SplineFontDB: 3.0
FontName: CMUTypewriter-Regular
FullName: CMU Typewriter Text Regular
FamilyName: CMU Typewriter Text
Weight: Medium
Copyright: Converted by Andrey V. Panov from TeX fonts. Some glyphs are copied from Blue Sky fonts released by AMS.
UComments: "2009-6-18: Created." 
Version: 0.7.0
ItalicAngle: 0
UnderlinePosition: -100
UnderlineWidth: 50
Ascent: 775
Descent: 225
LayerCount: 2
Layer: 0 0 "+BBcEMAQ0BD0EOAQ5 +BD8EOwQwBD0A"  1
Layer: 1 0 "+BB8ENQRABDUENAQ9BDgEOQAA +BD8EOwQwBD0A"  0
NeedsXUIDChange: 1
XUID: [1067 14509875]
FSType: 0
OS2Version: 0
OS2_WeightWidthSlopeOnly: 0
OS2_UseTypoMetrics: 1
CreationTime: 1245312771
ModificationTime: 1245313505
PfmFamily: 17
TTFWeight: 500
TTFWidth: 5
LineGap: 200
VLineGap: 90
Panose: 2 0 6 9 0 0 0 0 0 0
OS2TypoAscent: 0
OS2TypoAOffset: 1
OS2TypoDescent: 0
OS2TypoDOffset: 1
OS2TypoLinegap: 200
OS2WinAscent: 827
OS2WinAOffset: 0
OS2WinDescent: 233
OS2WinDOffset: 0
HheadAscent: 827
HheadAOffset: 0
HheadDescent: -233
HheadDOffset: 0
Lookup: 1 0 0 "Case substitutions"  {"Case substitutions subtable"  } ['case' ('cyrl' <'dflt' > 'grek' <'dflt' > 'latn' <'dflt' > ) ]
Lookup: 1 0 0 "Greek small to smallcaps"  {"Greek small to smallcaps subtable"  } ['smcp' ('grek' <'dflt' > ) ]
Lookup: 1 0 0 "Greek caps to smallcaps"  {"Greek caps to smallcaps subtable"  } ['c2sc' ('grek' <'dflt' > ) ]
Lookup: 3 0 0 "Greek alternatives"  {"Greek alternatives subtable"  } ['salt' ('grek' <'dflt' > ) ]
Lookup: 1 0 0 "Greek substitutions"  {"Greek substitutions subtable"  } ['locl' ('grek' <'dflt' > ) ]
Lookup: 4 0 0 "Latin Dutch ligatures"  {"Latin Dutch ligatures subtable"  } ['dlig' ('latn' <'NLD ' > ) ]
Lookup: 4 0 0 "Latin ligatures excepting Turkic"  {"Latin ligatures excepting Turkic subtable"  } ['dlig' ('latn' <'dflt' 'NLD ' 'VIT ' > ) ]
Lookup: 4 0 0 "Latin ligatures"  {"Latin ligatures subtable"  } ['dlig' ('latn' <'dflt' 'NLD ' 'VIT ' 'TRK ' 'AZE ' > ) ]

StartChar: .notdef
Encoding: 0 0 0
Width: 525
Flags: HW
HStem: 10 60<105 420> 705 60<105 420>
VStem: 10 60<112 663> 455 60<112 663>
DStem2: 105 705 70 663 0.508289 -0.861187<18.3797 309.738 396.718 688.585> 70 112 105 70 0.508289 0.861187<0 291.358 378.338 670.205>
LayerCount: 2
Fore
SplineSet
10 10 m 1
 10 765 l 1
 515 765 l 1
 515 10 l 1
 10 10 l 1
70 112 m 1
 232 388 l 1
 70 663 l 1
 70 112 l 1
105 70 m 1
 420 70 l 1
 262 337 l 1
 105 70 l 1
105 705 m 1
 262 438 l 1
 420 705 l 1
 105 705 l 1
292 388 m 1
 455 112 l 1
 455 663 l 1
 292 388 l 1
EndSplineSet
EndChar

StartChar: SF100000
Encoding: 9472 9472 1
Width: 525
Flags: HW
HStem: 240 70<0 525>
LayerCount: 2
Fore
SplineSet
-0 240 m 1
 -0 310 l 1
 525 310 l 1
 525 240 l 1
 -0 240 l 1
EndSplineSet
EndChar

StartChar: SF110000
Encoding: 9474 9474 2
Width: 525
Flags: HW
VStem: 227 70<-355 837>
LayerCount: 2
Fore
SplineSet
227 -355 m 1
 227 837 l 1
 297 837 l 1
 297 -355 l 1
 227 -355 l 1
EndSplineSet
EndChar

StartChar: SF010000
Encoding: 9484 9484 3
Width: 525
Flags: HW
HStem: 240 70<297 525>
VStem: 227 70<-355 240>
LayerCount: 2
Fore
SplineSet
227 310 m 1
 525 310 l 1
 525 240 l 1
 297 240 l 1
 297 -355 l 1
 227 -355 l 1
 227 310 l 1
EndSplineSet
EndChar

StartChar: SF030000
Encoding: 9488 9488 4
Width: 525
Flags: HW
HStem: 240 70<0 227>
VStem: 227 70<-355 240>
LayerCount: 2
Fore
SplineSet
0 240 m 1
 0 310 l 1
 297 310 l 1
 297 -355 l 1
 227 -355 l 1
 227 240 l 1
 0 240 l 1
EndSplineSet
EndChar

StartChar: SF020000
Encoding: 9492 9492 5
Width: 525
Flags: HW
HStem: 240 70<297 525>
VStem: 227 70<310 837>
LayerCount: 2
Fore
SplineSet
227 240 m 1
 227 837 l 1
 297 837 l 1
 297 310 l 1
 525 310 l 1
 525 240 l 1
 227 240 l 1
EndSplineSet
EndChar

StartChar: SF040000
Encoding: 9496 9496 6
Width: 525
Flags: HW
HStem: 240 70<0 227>
VStem: 227 70<310 837>
LayerCount: 2
Fore
SplineSet
0 240 m 1
 0 310 l 1
 227 310 l 1
 227 837 l 1
 297 837 l 1
 297 240 l 1
 0 240 l 1
EndSplineSet
EndChar

StartChar: SF080000
Encoding: 9500 9500 7
Width: 525
Flags: HW
HStem: 240 70<297 525>
VStem: 227 70<-355 240 310 837>
LayerCount: 2
Fore
SplineSet
227 -355 m 1
 227 837 l 1
 297 837 l 1
 297 310 l 1
 525 310 l 1
 525 240 l 1
 297 240 l 1
 297 -355 l 1
 227 -355 l 1
EndSplineSet
EndChar

StartChar: SF090000
Encoding: 9508 9508 8
Width: 525
Flags: HW
HStem: 240 70<0 227>
VStem: 227 70<-355 240 310 837>
LayerCount: 2
Fore
SplineSet
0 240 m 1
 0 310 l 1
 227 310 l 1
 227 837 l 1
 297 837 l 1
 297 -355 l 1
 227 -355 l 1
 227 240 l 1
 0 240 l 1
EndSplineSet
EndChar

StartChar: SF060000
Encoding: 9516 9516 9
Width: 525
Flags: HW
HStem: 240 70<0 227 297 525>
VStem: 227 70<-355 240>
LayerCount: 2
Fore
SplineSet
0 240 m 1
 0 310 l 1
 525 310 l 1
 525 240 l 1
 297 240 l 1
 297 -355 l 1
 227 -355 l 1
 227 240 l 1
 0 240 l 1
EndSplineSet
EndChar

StartChar: SF070000
Encoding: 9524 9524 10
Width: 525
Flags: HW
HStem: 240 70<0 227 297 525>
VStem: 227 70<310 837>
LayerCount: 2
Fore
SplineSet
0 240 m 1
 0 310 l 1
 227 310 l 1
 227 837 l 1
 297 837 l 1
 297 310 l 1
 525 310 l 1
 525 240 l 1
 0 240 l 1
EndSplineSet
EndChar

StartChar: SF050000
Encoding: 9532 9532 11
Width: 525
Flags: HW
HStem: 240 70<0 227 297 525>
VStem: 227 70<-355 240 310 837>
LayerCount: 2
Fore
SplineSet
-0 240 m 1
 -0 310 l 1
 227 310 l 1
 227 837 l 1
 297 837 l 1
 297 310 l 1
 525 310 l 1
 525 240 l 1
 297 240 l 1
 297 -355 l 1
 227 -355 l 1
 227 240 l 1
 -0 240 l 1
EndSplineSet
EndChar

StartChar: SF510000
Encoding: 9554 9554 14
Width: 525
Flags: HW
HStem: 160 70<297 525> 320 70<297 525>
VStem: 227 70<-355 160 230 320>
LayerCount: 2
Fore
SplineSet
227 -355 m 1
 227 390 l 1
 525 390 l 1
 525 320 l 1
 297 320 l 1
 297 230 l 1
 525 230 l 1
 525 160 l 1
 297 160 l 1
 297 -355 l 1
 227 -355 l 1
EndSplineSet
EndChar

StartChar: SF520000
Encoding: 9555 9555 15
Width: 525
Flags: HW
HStem: 240 70<217 307 377 525>
VStem: 147 70<-355 240> 307 70<-355 240>
LayerCount: 2
Fore
SplineSet
147 310 m 1
 525 310 l 1
 525 240 l 1
 377 240 l 1
 377 -355 l 1
 307 -355 l 1
 307 240 l 1
 217 240 l 1
 217 -355 l 1
 147 -355 l 1
 147 310 l 1
EndSplineSet
EndChar

StartChar: SF390000
Encoding: 9556 9556 16
Width: 525
Flags: HW
HStem: 160 70<377 525> 320 70<217 525>
VStem: 147 70<-355 320> 307 70<-355 160>
LayerCount: 2
Fore
SplineSet
147 -355 m 1
 147 390 l 1
 525 390 l 1
 525 320 l 1
 217 320 l 1
 217 -355 l 1
 147 -355 l 1
307 230 m 1
 525 230 l 1
 525 160 l 1
 377 160 l 1
 377 -355 l 1
 307 -355 l 1
 307 230 l 1
EndSplineSet
EndChar

StartChar: SF220000
Encoding: 9557 9557 17
Width: 525
Flags: HW
HStem: 160 70<0 227> 320 70<0 227>
VStem: 227 70<-355 160 230 320>
LayerCount: 2
Fore
SplineSet
0 160 m 1
 0 230 l 1
 227 230 l 1
 227 320 l 1
 0 320 l 1
 0 390 l 1
 297 390 l 1
 297 -355 l 1
 227 -355 l 1
 227 160 l 1
 0 160 l 1
EndSplineSet
EndChar

StartChar: SF210000
Encoding: 9558 9558 18
Width: 525
Flags: HW
HStem: 240 70<0 147 217 307>
VStem: 147 70<-355 240> 307 70<-355 240>
LayerCount: 2
Fore
SplineSet
0 240 m 1
 0 310 l 1
 377 310 l 1
 377 -355 l 1
 307 -355 l 1
 307 240 l 1
 217 240 l 1
 217 -355 l 1
 147 -355 l 1
 147 240 l 1
 0 240 l 1
EndSplineSet
EndChar

StartChar: SF250000
Encoding: 9559 9559 19
Width: 525
Flags: HW
HStem: 160 70<0 147> 320 70<0 307>
VStem: 147 70<-355 160> 307 70<-355 320>
LayerCount: 2
Fore
SplineSet
0 160 m 1
 0 230 l 1
 217 230 l 1
 217 -355 l 1
 147 -355 l 1
 147 160 l 1
 0 160 l 1
0 320 m 1
 0 390 l 1
 377 390 l 1
 377 -355 l 1
 307 -355 l 1
 307 320 l 1
 0 320 l 1
EndSplineSet
EndChar

StartChar: SF500000
Encoding: 9560 9560 20
Width: 525
Flags: HW
HStem: 160 70<297 525> 320 70<297 525>
VStem: 227 70<230 320 390 837>
LayerCount: 2
Fore
SplineSet
227 160 m 1
 227 837 l 1
 297 837 l 1
 297 390 l 1
 525 390 l 1
 525 320 l 1
 297 320 l 1
 297 230 l 1
 525 230 l 1
 525 160 l 1
 227 160 l 1
EndSplineSet
EndChar

StartChar: SF490000
Encoding: 9561 9561 21
Width: 525
Flags: HW
HStem: 240 70<217 307 377 525>
VStem: 147 70<310 837> 307 70<310 837>
LayerCount: 2
Fore
SplineSet
147 240 m 1
 147 837 l 1
 217 837 l 1
 217 310 l 1
 307 310 l 1
 307 837 l 1
 377 837 l 1
 377 310 l 1
 525 310 l 1
 525 240 l 1
 147 240 l 1
EndSplineSet
EndChar

StartChar: SF380000
Encoding: 9562 9562 22
Width: 525
Flags: HW
HStem: 160 70<217 525> 320 70<377 525>
VStem: 147 70<230 837> 307 70<390 837>
LayerCount: 2
Fore
SplineSet
147 160 m 1
 147 837 l 1
 217 837 l 1
 217 230 l 1
 525 230 l 1
 525 160 l 1
 147 160 l 1
307 320 m 1
 307 837 l 1
 377 837 l 1
 377 390 l 1
 525 390 l 1
 525 320 l 1
 307 320 l 1
EndSplineSet
EndChar

StartChar: SF280000
Encoding: 9563 9563 23
Width: 525
Flags: HW
HStem: 160 70<0 227> 320 70<0 227>
VStem: 227 70<230 320 390 837>
LayerCount: 2
Fore
SplineSet
0 160 m 1
 0 230 l 1
 227 230 l 1
 227 320 l 1
 0 320 l 1
 0 390 l 1
 227 390 l 1
 227 837 l 1
 297 837 l 1
 297 160 l 1
 0 160 l 1
EndSplineSet
EndChar

StartChar: SF270000
Encoding: 9564 9564 24
Width: 525
Flags: HW
HStem: 240 70<0 147 217 307>
VStem: 147 70<310 837> 307 70<310 837>
LayerCount: 2
Fore
SplineSet
0 240 m 1
 0 310 l 1
 147 310 l 1
 147 837 l 1
 217 837 l 1
 217 310 l 1
 307 310 l 1
 307 837 l 1
 377 837 l 1
 377 240 l 1
 0 240 l 1
EndSplineSet
EndChar

StartChar: SF260000
Encoding: 9565 9565 25
Width: 525
Flags: HW
HStem: 160 70<0 307> 320 70<0 147>
VStem: 147 70<390 837> 307 70<230 837>
LayerCount: 2
Fore
SplineSet
0 160 m 1
 0 230 l 1
 307 230 l 1
 307 837 l 1
 377 837 l 1
 377 160 l 1
 0 160 l 1
0 320 m 1
 0 390 l 1
 147 390 l 1
 147 837 l 1
 217 837 l 1
 217 320 l 1
 0 320 l 1
EndSplineSet
EndChar

StartChar: SF360000
Encoding: 9566 9566 26
Width: 525
Flags: HW
HStem: 160 70<297 525> 320 70<297 525>
VStem: 227 70<-355 160 230 320 390 837>
LayerCount: 2
Fore
SplineSet
227 -355 m 1
 227 837 l 1
 297 837 l 1
 297 390 l 1
 525 390 l 1
 525 320 l 1
 297 320 l 1
 297 230 l 1
 525 230 l 1
 525 160 l 1
 297 160 l 1
 297 -355 l 1
 227 -355 l 1
EndSplineSet
EndChar

StartChar: SF370000
Encoding: 9567 9567 27
Width: 525
Flags: HW
HStem: 240 70<377 525>
VStem: 147 70<-355 837> 307 70<-355 240 310 837>
LayerCount: 2
Fore
SplineSet
307 -355 m 1
 307 837 l 1
 377 837 l 1
 377 310 l 1
 525 310 l 1
 525 240 l 1
 377 240 l 1
 377 -355 l 1
 307 -355 l 1
EndSplineSet
Refer: 2 9474 S 1 0 0 1 -80 0 2
EndChar

StartChar: SF420000
Encoding: 9568 9568 28
Width: 525
Flags: HW
HStem: 160 70<377 525> 320 70<377 525>
VStem: 147 70<-355 837> 307 218<160 230 320 390> 307 70<-355 160 390 837>
LayerCount: 2
Fore
SplineSet
307 230 m 1xf0
 525 230 l 1
 525 160 l 1xf0
 377 160 l 1
 377 -355 l 1
 307 -355 l 1xe8
 307 230 l 1xf0
307 320 m 1xf0
 307 837 l 1
 377 837 l 1
 377 390 l 1xe8
 525 390 l 1
 525 320 l 1
 307 320 l 1xf0
EndSplineSet
Refer: 2 9474 S 1 0 0 1 -80 0 2
EndChar

StartChar: SF190000
Encoding: 9569 9569 29
Width: 525
Flags: HW
HStem: 160 70<0 227> 320 70<0 227>
VStem: 227 70<-355 160 230 320 390 837>
LayerCount: 2
Fore
SplineSet
0 160 m 1
 0 230 l 1
 227 230 l 1
 227 320 l 1
 0 320 l 1
 0 390 l 1
 227 390 l 1
 227 837 l 1
 297 837 l 1
 297 -355 l 1
 227 -355 l 1
 227 160 l 1
 0 160 l 1
EndSplineSet
EndChar

StartChar: SF200000
Encoding: 9570 9570 30
Width: 525
Flags: HW
HStem: 240 70<0 147>
VStem: 147 70<-355 240 310 837> 307 70<-355 837>
LayerCount: 2
Fore
SplineSet
0 240 m 1
 0 310 l 1
 147 310 l 1
 147 837 l 1
 217 837 l 1
 217 -355 l 1
 147 -355 l 1
 147 240 l 1
 0 240 l 1
EndSplineSet
Refer: 2 9474 S 1 0 0 1 80 0 2
EndChar

StartChar: SF230000
Encoding: 9571 9571 31
Width: 525
Flags: HW
HStem: 160 70<0 147> 320 70<0 147>
VStem: 0 217<160 230 320 390> 147 70<-355 160 390 837> 307 70<-355 837>
LayerCount: 2
Fore
SplineSet
0 160 m 1
 0 230 l 1
 217 230 l 1xe8
 217 -355 l 1
 147 -355 l 1
 147 160 l 1xd8
 0 160 l 1
0 320 m 1xe8
 0 390 l 1xe8
 147 390 l 1
 147 837 l 1
 217 837 l 1xd8
 217 320 l 1
 0 320 l 1xe8
EndSplineSet
Refer: 2 9474 S 1 0 0 1 80 0 2
EndChar

StartChar: SF470000
Encoding: 9572 9572 32
Width: 525
Flags: HW
HStem: 160 70<0 227 297 525> 320 70<0 525>
VStem: 227 70<-355 160>
LayerCount: 2
Fore
SplineSet
0 160 m 1
 0 230 l 1
 525 230 l 1
 525 160 l 1
 297 160 l 1
 297 -355 l 1
 227 -355 l 1
 227 160 l 1
 0 160 l 1
EndSplineSet
Refer: 1 9472 S 1 0 0 1 0 80 2
EndChar

StartChar: SF480000
Encoding: 9573 9573 33
Width: 525
Flags: HW
HStem: 240 70<0 147 217 307 377 525>
VStem: 147 70<-355 240> 307 70<-355 240>
LayerCount: 2
Fore
SplineSet
0 240 m 1
 0 310 l 1
 525 310 l 1
 525 240 l 1
 377 240 l 1
 377 -355 l 1
 307 -355 l 1
 307 240 l 1
 217 240 l 1
 217 -355 l 1
 147 -355 l 1
 147 240 l 1
 0 240 l 1
EndSplineSet
EndChar

StartChar: SF410000
Encoding: 9574 9574 34
Width: 525
Flags: HW
HStem: 160 70<0 147 377 525> 320 70<0 525>
VStem: 147 70<-355 160> 307 70<-355 160>
LayerCount: 2
Fore
SplineSet
0 160 m 1
 0 230 l 1
 217 230 l 1
 217 -355 l 1
 147 -355 l 1
 147 160 l 1
 0 160 l 1
307 230 m 1
 525 230 l 1
 525 160 l 1
 377 160 l 1
 377 -355 l 1
 307 -355 l 1
 307 230 l 1
EndSplineSet
Refer: 1 9472 S 1 0 0 1 0 80 2
EndChar

StartChar: SF450000
Encoding: 9575 9575 35
Width: 525
Flags: HW
HStem: 160 70<0 525> 320 70<0 227 297 525>
VStem: 227 70<390 837>
LayerCount: 2
Fore
SplineSet
0 320 m 1
 0 390 l 1
 227 390 l 1
 227 837 l 1
 297 837 l 1
 297 390 l 1
 525 390 l 1
 525 320 l 1
 0 320 l 1
EndSplineSet
Refer: 1 9472 S 1 0 0 1 0 -80 2
EndChar

StartChar: SF460000
Encoding: 9576 9576 36
Width: 525
Flags: HW
HStem: 240 70<0 147 217 307 377 525>
VStem: 147 70<310 837> 307 70<310 837>
LayerCount: 2
Fore
SplineSet
0 240 m 1
 0 310 l 1
 147 310 l 1
 147 837 l 1
 217 837 l 1
 217 310 l 1
 307 310 l 1
 307 837 l 1
 377 837 l 1
 377 310 l 1
 525 310 l 1
 525 240 l 1
 0 240 l 1
EndSplineSet
EndChar

StartChar: SF400000
Encoding: 9577 9577 37
Width: 525
Flags: HW
HStem: 160 70<0 525> 320 70<0 147 377 525>
VStem: 147 70<390 837> 307 70<390 837>
LayerCount: 2
Fore
SplineSet
0 320 m 1
 0 390 l 1
 147 390 l 1
 147 837 l 1
 217 837 l 1
 217 320 l 1
 0 320 l 1
307 320 m 1
 307 837 l 1
 377 837 l 1
 377 390 l 1
 525 390 l 1
 525 320 l 1
 307 320 l 1
EndSplineSet
Refer: 1 9472 S 1 0 0 1 0 -80 2
EndChar

StartChar: SF540000
Encoding: 9578 9578 38
Width: 525
Flags: HW
HStem: 160 70<0 227 297 525> 320 70<0 227 297 525>
VStem: 227 70<-355 160 230 320 390 837>
LayerCount: 2
Fore
SplineSet
0 160 m 1
 0 230 l 1
 227 230 l 1
 227 320 l 1
 0 320 l 1
 0 390 l 1
 227 390 l 1
 227 837 l 1
 297 837 l 1
 297 390 l 1
 525 390 l 1
 525 320 l 1
 297 320 l 1
 297 230 l 1
 525 230 l 1
 525 160 l 1
 297 160 l 1
 297 -355 l 1
 227 -355 l 1
 227 160 l 1
 0 160 l 1
EndSplineSet
EndChar

StartChar: SF530000
Encoding: 9579 9579 39
Width: 525
Flags: HW
HStem: 240 70<0 147 217 307 377 525>
VStem: 147 70<-355 240 310 837> 307 70<-355 240 310 837>
LayerCount: 2
Fore
SplineSet
-0 240 m 1
 -0 310 l 1
 147 310 l 1
 147 837 l 1
 217 837 l 1
 217 310 l 1
 307 310 l 1
 307 837 l 1
 377 837 l 1
 377 310 l 1
 525 310 l 1
 525 240 l 1
 377 240 l 1
 377 -355 l 1
 307 -355 l 1
 307 240 l 1
 217 240 l 1
 217 -355 l 1
 147 -355 l 1
 147 240 l 1
 -0 240 l 1
EndSplineSet
EndChar

StartChar: uni262D
Encoding: 9773 9773 40
Width: 525
Flags: HW
TeX: 117 0
HStem: 0 20G<30.5 60.5 462.5 467> 39 76<244.267 355.503> 102 51<98.531 128.337>
VStem: 89 43<98.6716 137.734> 431 65<186.303 382.211>
DStem2: 84 357 128 301 0.626941 0.779067<0 63.6069 102.652 165.701>
LayerCount: 2
Fore
SplineSet
18 18 m 0
 18 64 89 102 89 128 c 0
 89 148 93 153 104 153 c 0xb8
 115 153 118 159 132 180 c 1
 175 152 232 115 298 115 c 0
 336 115 356 128 356 129 c 0
 356 135 311 186 178 363 c 1
 128 301 l 1
 84 357 l 1
 188 486 l 1
 264 470 l 1
 203 393 l 1
 373 190 l 1
 396 165 l 1
 401 165 431 218 431 295 c 0
 431 473 263 587 263 593 c 1
 301 593 496 478 496 267 c 0
 496 167 458 114 450 100 c 1
 493 46 496 44 496 38 c 0
 496 17 470 -1 464 -1 c 0xd8
 461 -1 462 -3 409 62 c 1
 387 51 366 39 328 39 c 0xd8
 225 39 147 138 136 138 c 0
 132 138 132 134 132 130 c 2
 132 118 l 2
 132 108 128 102 120 102 c 0
 91 102 84 0 37 0 c 0
 24 0 18 7 18 18 c 0
EndSplineSet
EndChar

StartChar: florin
Encoding: 402 402 41
Width: 525
Flags: HW
TeX: 102 0
HStem: -228 62<91.5313 149.484> 369 61<169.467 266 348 464.153> 555 61<371.707 443.168>
VStem: 5 90<-161.625 -109.27> 440 90<498.136 550.625>
DStem2: 225 135 272 5 0.176031 0.984385<-235.789 237.563 312.045 438.964>
LayerCount: 2
Fore
SplineSet
5 -155 m 1
 6 -121 28 -100 55 -100 c 0
 77 -100 95 -115 95 -139 c 0
 95 -146 94 -154 90 -162 c 1
 100 -165 108 -166 114 -166 c 0
 181 -166 205 22 225 135 c 2
 266 369 l 1
 201 369 l 2
 178 369 168 382 168 397 c 0
 168 410 173 430 203 430 c 2
 277 430 l 1
 294 544 302 616 414 616 c 0
 506 616 530 577 530 544 c 0
 530 510 507 489 481 489 c 0
 458 489 440 504 440 528 c 0
 440 535 442 543 445 551 c 1
 435 553 424 555 413 555 c 0
 368 554 365 536 348 430 c 1
 431 430 l 2
 456 430 466 417 466 402 c 0
 466 390 460 369 429 369 c 2
 337 369 l 1
 272 5 l 1
 249 -111 237 -138 216 -167 c 0
 203 -185 171 -228 112 -228 c 0
 51 -228 6 -200 5 -155 c 1
EndSplineSet
EndChar

StartChar: longs
Encoding: 383 383 42
Width: 525
Flags: HW
TeX: 108 0
HStem: 0 61<42.8847 184 253 394.115> 370 61<43.8527 184> 556 61<275.858 350>
VStem: 184 69<61 370 431 535.156> 350 87<519.868 556>
AnchorPoint: "above" 341 611 basechar 0
AnchorPoint: "below" 218 0 basechar 0
LayerCount: 2
Fore
SplineSet
42 31 m 0
 42 61 68 61 83 61 c 2
 184 61 l 1
 184 370 l 1
 83 370 l 2
 68 370 43 370 43 400 c 0
 43 431 68 431 84 431 c 2
 184 431 l 1
 184 484 l 2
 184 571 261 617 341 617 c 0
 357 617 437 617 437 557 c 0
 437 529 414 513 394 513 c 0
 359 513 350 552 350 556 c 1
 320 556 253 556 253 478 c 2
 253 61 l 1
 354 61 l 2
 369 61 395 61 395 30 c 0
 395 0 369 0 354 0 c 2
 83 0 l 2
 68 0 42 0 42 31 c 0
EndSplineSet
EndChar

StartChar: uni03F5
Encoding: 1013 1013 43
Width: 525
Flags: HW
TeX: 117 0
HStem: -5 66<259.142 471.249> 186 67<126 413.447> 369 67<254.493 470.903>
LayerCount: 2
Fore
SplineSet
51 222 m 0
 51 308 103 434 434 436 c 0
 446 436 474 435 474 395 c 0
 474 371 459 369 444 369 c 2
 437 369 l 2
 182 369 139 284 126 253 c 1
 370 253 l 2
 394 253 417 245 417 213 c 0
 417 187 398 186 385 186 c 2
 121 186 l 1
 154 49 422 66 446 61 c 0
 459 58 474 47 474 24 c 0
 474 10 473 -5 445 -5 c 0
 276 -5 51 40 51 222 c 0
EndSplineSet
EndChar

StartChar: circumflex.cap
Encoding: 65536 -1 44
Width: 525
Flags: HW
HStem: 659 165
VStem: 100 326<683 709>
AnchorPoint: "above" 263 622 mark 0
LayerCount: 2
Fore
SplineSet
100 697 m 0
 100 709 106 717 120 727 c 0
 250 824 252 824 262 824 c 2
 264 824 l 2
 275 824 276 821 408 726 c 0
 414 721 426 712 426 698 c 0
 426 682 408 659 390 659 c 0
 372 659 304 718 262 751 c 1
 158 668 150 659 136 659 c 0
 116 659 100 683 100 697 c 0
EndSplineSet
EndChar

StartChar: dotaccent.cap
Encoding: 65538 -1 46
Width: 525
Flags: HW
HStem: 672 100<221.492 303.035>
VStem: 212 100<681.526 762.474>
AnchorPoint: "above" 262 622 mark 0
LayerCount: 2
Fore
SplineSet
212 722 m 0
 212 751 238 772 262 772 c 0
 288 772 312 751 312 722 c 0
 312 693 288 672 264 672 c 0
 234 672 212 695 212 722 c 0
EndSplineSet
EndChar

StartChar: caron.cap
Encoding: 65539 -1 47
Width: 525
Flags: HW
HStem: 636 75<238.125 286.532>
VStem: 118 290<762 791>
AnchorPoint: "above" 263 622 mark 0
LayerCount: 2
Fore
SplineSet
118 776 m 0
 118 791 132 804 148 804 c 0
 163 804 183 780 262 711 c 1
 264 711 l 1
 274 721 334 776 346 785 c 1
 356 795 366 804 378 804 c 0
 386 804 408 799 408 771 c 0
 408 762 402 756 288 649 c 0
 282 643 274 636 262 636 c 0
 252 636 242 643 236 649 c 0
 118 762 118 759 118 776 c 0
EndSplineSet
EndChar

StartChar: ring.cap
Encoding: 65540 -1 48
Width: 525
Flags: HW
HStem: 590 62<218.157 307.522> 766 61<218.162 307.982>
VStem: 146 59<665.551 752.759> 320 59<664.797 754.25>
AnchorPoint: "above" 262 622 mark 0
LayerCount: 2
Fore
SplineSet
146 709 m 0
 146 769 194 827 262 827 c 0
 322 827 379 779 379 709 c 0
 379 648 332 590 263 590 c 0
 195 590 146 646 146 709 c 0
205 709 m 0
 205 679 229 652 263 652 c 0
 296 652 320 680 320 709 c 0
 320 739 297 766 263 766 c 0
 229 766 205 737 205 709 c 0
EndSplineSet
EndChar

StartChar: breve.cap
Encoding: 65541 -1 49
Width: 525
Flags: HW
HStem: 652 64<181.842 344.394>
VStem: 86 63<745.585 817.557> 377 62<746.691 817.761>
AnchorPoint: "above" 262 622 mark 0
LayerCount: 2
Fore
SplineSet
86 788 m 0
 86 807 98 819 117 819 c 0
 149 819 147 787 149 779 c 0
 157 742 204 716 263 716 c 0
 310 716 371 736 377 786 c 0
 378 798 381 819 408 819 c 0
 426 819 439 807 439 787 c 0
 439 712 362 652 262 652 c 0
 157 652 86 716 86 788 c 0
EndSplineSet
EndChar

StartChar: grave
Encoding: 96 96 50
Width: 525
Flags: HW
TeX: 610 0
VStem: 108 213<546 604>
LayerCount: 2
Fore
SplineSet
108 604 m 0
 108 624 125 639 142 639 c 2
 144 639 l 2
 153 639 155 637 293 577 c 0
 304 572 321 564 321 546 c 0
 321 531 309 506 288 506 c 2
 287 506 l 2
 279 506 277 508 139 568 c 0
 127 574 108 582 108 604 c 0
EndSplineSet
EndChar

StartChar: acute
Encoding: 180 180 51
Width: 525
Flags: HW
TeX: 610 0
VStem: 202 213<546 604>
LayerCount: 2
Fore
SplineSet
202 546 m 0
 202 567 221 573 232 578 c 0
 365 636 371 639 378 639 c 2
 380 639 l 2
 397 639 415 625 415 604 c 0
 415 582 397 573 385 568 c 0
 241 505 246 506 236 506 c 0
 214 506 202 532 202 546 c 0
EndSplineSet
EndChar

StartChar: circumflex
Encoding: 710 710 52
Width: 525
Flags: HW
TeX: 638 0
HStem: 568 76<227.716 297.598>
VStem: 100 325<514 543>
LayerCount: 2
Fore
SplineSet
100 527 m 0
 100 543 111 550 122 557 c 0
 247 640 250 644 262 644 c 2
 263 644 l 2
 273 644 274 643 402 558 c 0
 410 553 425 544 425 526 c 0
 425 514 410 488 390 488 c 2
 388 488 l 2
 367 488 277 568 262 568 c 0
 255 568 249 562 231 549 c 0
 160 498 149 488 135 488 c 0
 115 488 100 513 100 527 c 0
EndSplineSet
EndChar

StartChar: tilde
Encoding: 732 732 53
Width: 525
Flags: HW
TeX: 638 0
HStem: 491 66<280.677 356.161> 544 67<167.847 243.712>
LayerCount: 2
Fore
SplineSet
88 523 m 0
 88 536 96 544 104 551 c 0
 159 602 192 611 214 611 c 0x40
 268 611 288 557 313 557 c 0
 346 557 382 610 404 610 c 0
 420 610 436 596 436 579 c 0
 436 566 427 558 420 551 c 0
 398 530 353 491 309 491 c 0x80
 253 491 239 544 211 544 c 0x40
 179 544 142 491 119 491 c 0x80
 100 491 88 509 88 523 c 0
EndSplineSet
EndChar

StartChar: dieresis
Encoding: 168 168 54
Width: 525
Flags: HW
TeX: 610 0
HStem: 511 100<119.117 201.035 323.232 405.035>
VStem: 110 100<519.701 602.162> 314 100<519.438 601.474>
LayerCount: 2
Fore
SplineSet
110 560 m 0
 110 588 132 611 160 611 c 0
 186 611 210 590 210 561 c 0
 210 534 189 511 160 511 c 0
 134 511 110 531 110 560 c 0
314 560 m 0
 314 587 336 611 364 611 c 0
 390 611 414 590 414 561 c 0
 414 533 393 511 364 511 c 0
 334 511 314 535 314 560 c 0
EndSplineSet
EndChar

StartChar: ring
Encoding: 730 730 56
Width: 525
Flags: HW
TeX: 638 0
HStem: 473 36<238.554 284.784> 611 36<237.717 286.118>
VStem: 172 58<512.354 608.289> 293 58<512.035 608.264>
LayerCount: 2
Fore
SplineSet
172 560 m 0
 172 603 207 647 262 647 c 0
 317 647 351 602 351 560 c 0
 351 518 318 473 262 473 c 0
 210 473 172 515 172 560 c 0
230 561 m 0
 230 531 246 509 262 509 c 0
 274 509 293 526 293 560 c 0
 293 593 278 611 262 611 c 0
 244 611 230 589 230 561 c 0
EndSplineSet
EndChar

StartChar: caron
Encoding: 711 711 57
Width: 525
Flags: HW
TeX: 638 0
HStem: 484 78<230.729 292.356> 619 20G<139.5 158.5 365.5 386.5>
VStem: 118 289<595 624>
LayerCount: 2
Fore
SplineSet
118 610 m 0
 118 626 132 639 147 639 c 0
 170 639 250 562 262 562 c 0
 276 562 353 638 378 639 c 0
 395 639 407 624 407 610 c 0
 407 592 403 592 287 496 c 0
 282 492 273 484 262 484 c 2
 259 484 l 2
 250 484 246 488 137 579 c 0
 128 586 118 595 118 610 c 0
EndSplineSet
EndChar

StartChar: breve
Encoding: 728 728 58
Width: 525
Flags: HW
TeX: 638 0
HStem: 498 65<162.257 361.289> 619 20G<107.5 131 390.5 416>
VStem: 85 63<581.51 637.373> 373 65<579.202 636.866>
LayerCount: 2
Fore
SplineSet
85 608 m 0
 85 627 99 639 116 639 c 0
 146 639 147 609 148 604 c 0
 158 565 238 563 261 563 c 0
 299 563 359 569 373 598 c 0
 377 607 374 639 407 639 c 0
 425 639 438 627 438 608 c 0
 438 564 401 498 262 498 c 0
 122 498 85 564 85 608 c 0
EndSplineSet
EndChar

StartChar: macron
Encoding: 175 175 59
Width: 525
Flags: HW
TeX: 610 0
HStem: 559 63<73.3338 449.679>
LayerCount: 2
Fore
SplineSet
72 590 m 0
 72 606 79 622 107 622 c 2
 417 622 l 2
 444 622 451 604 451 590 c 0
 451 575 443 559 415 559 c 2
 106 559 l 1
 78 560 72 578 72 590 c 0
EndSplineSet
EndChar

StartChar: dotaccent
Encoding: 729 729 60
Width: 525
Flags: HW
TeX: 610 0
HStem: 511 100<245.965 327.824>
VStem: 237 100<520.396 602.162>
LayerCount: 2
Fore
SplineSet
237 561 m 0
 237 590 261 611 287 611 c 0
 313 611 337 590 337 561 c 0
 337 532 312 511 288 511 c 0
 258 511 237 534 237 561 c 0
EndSplineSet
EndChar

StartChar: cedilla
Encoding: 184 184 61
Width: 525
Flags: HW
TeX: 0 194
HStem: -208 61<129.195 312.41> -65 122<228.213 295.472>
VStem: 226 71<-14.1479 55.4557> 324 71<-132.162 -81.8719>
LayerCount: 2
Fore
SplineSet
128 -178 m 0
 128 -148 153 -147 164 -147 c 0
 173 -147 182 -147 191 -147 c 0
 260 -145 324 -139 324 -108 c 0
 324 -100 319 -91 316 -86 c 1
 282 -62 261 -69 247 -65 c 0
 228 -59 226 -43 226 -23 c 0
 226 -12 226 -2 226 9 c 0
 226 30 226 57 259 57 c 2
 262 57 l 2
 299 57 297 29 297 15 c 2
 297 -9 l 1
 388 -28 395 -87 395 -107 c 0
 395 -206 260 -208 173 -208 c 2
 161 -208 l 2
 142 -208 128 -196 128 -178 c 0
EndSplineSet
EndChar

StartChar: ogonek
Encoding: 731 731 62
Width: 525
Flags: HW
TeX: 0 222
HStem: -192 65<255.376 342.72>
VStem: 183 72<-124.101 -69.6598>
LayerCount: 2
Fore
SplineSet
183 -105 m 0
 183 -36 267 1 283 9 c 0
 358 47 347 56 367 56 c 0
 381 56 395 44 395 28 c 0
 395 -14 284 -43 258 -91 c 0
 256 -95 255 -99 255 -102 c 0
 255 -116 270 -127 294 -127 c 0
 352 -126 364 -59 394 -59 c 0
 407 -59 426 -71 426 -90 c 0
 426 -111 373 -192 288 -192 c 0
 233 -192 183 -156 183 -105 c 0
EndSplineSet
EndChar

StartChar: guilsinglleft
Encoding: 8249 8249 64
Width: 525
Flags: HW
TeX: 438 0
HStem: 0 21G<355 372> 419 20G<356.5 370.5>
VStem: 65 82<204.939 234.061>
DStem2: 85 249 147 220 0.813299 0.581846<33.551 335.416> 147 219 85 190 0.812365 -0.58315<0 301.837>
LayerCount: 2
Fore
SplineSet
65 220 m 0
 65 238 82 247 85 249 c 2
 338 430 l 2
 345 435 351 439 362 439 c 0
 379 439 392 426 392 411 c 0
 392 400 388 393 376 384 c 0
 300 329 155 225 147 220 c 1
 147 219 l 1
 155 214 300 110 376 55 c 0
 384 49 392 42 392 28 c 0
 392 15 382 0 362 0 c 0
 348 0 342 6 326 17 c 2
 85 190 l 2
 82 192 65 202 65 220 c 0
EndSplineSet
EndChar

StartChar: guilsinglright
Encoding: 8250 8250 65
Width: 525
Flags: HW
TeX: 438 0
HStem: 0 21G<154 167.5> 419 20G<153.5 170.5>
VStem: 377 81<204.939 234.061>
DStem2: 198 422 148 384 0.811214 -0.58475<-38.4965 263.327> 148 55 186 9 0.812206 0.58337<-20.2969 281.668>
LayerCount: 2
Fore
SplineSet
131 28 m 0
 131 39 136 46 148 55 c 0
 224 110 369 214 377 219 c 1
 377 220 l 1
 369 225 224 329 148 384 c 0
 140 390 131 397 131 411 c 0
 131 427 145 439 162 439 c 0
 179 439 190 427 198 422 c 2
 438 249 l 2
 441 247 458 238 458 220 c 0
 458 202 441 192 438 190 c 2
 186 9 l 2
 179 4 173 0 162 0 c 0
 146 0 131 11 131 28 c 0
EndSplineSet
EndChar

StartChar: quotedblleft
Encoding: 8220 8220 66
Width: 525
Flags: HW
TeX: 610 0
HStem: 347 125<75.748 140.859 412.748 477.859> 590 20G<120.5 143 456.5 480>
VStem: 10 146<378.691 456.706> 347 146<378.691 456.706>
LayerCount: 2
Fore
SplineSet
10 447 m 0
 10 552 106 610 135 610 c 0
 151 610 166 594 166 579 c 0
 166 539 100 561 74 469 c 1
 80 470 87 472 93 472 c 2
 94 472 l 2
 131 472 156 443 156 409 c 0
 156 376 131 347 94 347 c 0
 43 347 10 393 10 447 c 0
347 447 m 0
 347 552 442 610 471 610 c 2
 472 610 l 2
 488 610 503 594 503 579 c 0
 503 539 437 561 411 469 c 1
 417 470 424 472 430 472 c 2
 431 472 l 2
 468 472 493 443 493 409 c 0
 493 376 468 347 431 347 c 0
 380 347 347 393 347 447 c 0
EndSplineSet
EndChar

StartChar: quotedblright
Encoding: 8221 8221 67
Width: 525
Flags: HW
TeX: 610 0
HStem: 486 125<46.6205 112.922 383.144 449.718>
VStem: 31 147<501.291 578.747> 368 146<501.291 578.252>
LayerCount: 2
Fore
SplineSet
21 378 m 0
 21 418 88 396 114 488 c 1
 108 487 101 486 95 486 c 2
 94 486 l 2
 57 486 31 514 31 548 c 0
 31 579 54 611 95 611 c 0
 145 611 178 563 178 511 c 0
 178 406 83 347 53 347 c 0
 36 347 21 363 21 378 c 0
358 379 m 0
 358 419 424 395 450 488 c 1
 444 487 437 486 431 486 c 2
 430 486 l 2
 393 486 368 514 368 548 c 0
 368 579 390 611 431 611 c 0
 471 611 514 575 514 511 c 0
 514 406 419 347 389 347 c 0
 372 347 358 363 358 379 c 0
EndSplineSet
EndChar

StartChar: dotlessi
Encoding: 305 305 74
Width: 525
Flags: HW
TeX: 430 0
HStem: 0 61<111.5 240 119 240 309 414> 370 61<119.5 269 127 240>
VStem: 240 69<61 370 370 370>
AnchorPoint: "below" 274 0 basechar 0
AnchorPoint: "above" 274 440 basechar 0
LayerCount: 2
Fore
SplineSet
78 30 m 0
 78 61 103 61 119 61 c 2
 240 61 l 1
 240 370 l 1
 127 370 l 2
 112 370 86 370 86 401 c 0
 86 431 112 431 127 431 c 2
 269 431 l 2
 303 431 309 421 309 390 c 2
 309 61 l 1
 414 61 l 2
 429 61 455 61 455 30 c 0
 455 0 429 0 414 0 c 2
 119 0 l 2
 104 0 78 0 78 30 c 0
EndSplineSet
EndChar

StartChar: dotlessj
Encoding: 567 567 75
Width: 525
Flags: HW
TeX: 430 222
HStem: -228 61<177.5 203.5 177.5 259.5> 370 61<161.5 328 170 299>
VStem: 48 89<-154.5 -137.5> 299 69<-39 370 370 370>
AnchorPoint: "below" 239 -222 basechar 0
AnchorPoint: "above" 334 440 basechar 0
LayerCount: 2
Fore
SplineSet
48 -152 m 0
 48 -123 70 -106 93 -106 c 0
 114 -106 137 -123 137 -151 c 0
 137 -158 137 -160 136 -163 c 1
 151 -165 163 -167 192 -167 c 0
 215 -167 246 -167 273 -129 c 0
 299 -94 299 -56 299 -39 c 2
 299 370 l 1
 169 370 l 2
 154 370 129 370 129 400 c 0
 129 431 154 431 170 431 c 2
 328 431 l 2
 362 431 368 421 368 390 c 2
 368 -44 l 2
 368 -108 332 -228 187 -228 c 0
 146 -228 48 -228 48 -152 c 0
EndSplineSet
EndChar

StartChar: ff
Encoding: 64256 64256 76
Width: 525
Flags: HW
TeX: 610 0
HStem: 0 62<10.0996 90 160 235.777 263.137 339 409 508.944> 369 61<26.0938 90 160 256.937 409 506.937> 555 61<194.307 323.739 426.741 492.773>
VStem: 90 70<62 369 430 524.981> 339 70<62 369 430 510.484>
LayerCount: 2
Fore
SplineSet
9 31 m 0
 9 61 33 62 49 62 c 2
 90 62 l 1
 90 369 l 1
 62 369 l 2
 49 369 25 369 25 399 c 0
 25 429 50 430 60 430 c 2
 90 430 l 1
 90 483 l 2
 90 563 173 616 289 616 c 0
 361 616 379 601 393 588 c 1
 407 598 438 616 483 616 c 0
 555 616 573 580 573 556 c 0
 573 530 552 513 530 513 c 0
 519 513 490 518 487 554 c 1
 482 554 l 2
 445 554 409 537 409 482 c 2
 409 430 l 1
 474 430 l 2
 489 430 508 424 508 399 c 0
 508 385 501 370 474 369 c 1
 409 369 l 1
 409 62 l 1
 477 62 l 2
 505 62 510 44 510 31 c 0
 510 16 503 0 474 0 c 2
 298 0 l 2
 270 0 262 16 262 31 c 0
 262 59 288 62 298 62 c 2
 339 62 l 1
 339 475 l 2
 339 488 340 500 342 511 c 1
 337 516 324 526 324 547 c 2
 324 552 l 1
 310 554 297 555 283 555 c 0
 204 555 171 521 163 503 c 0
 159 494 160 484 160 474 c 2
 160 430 l 1
 224 430 l 2
 239 430 258 424 258 399 c 0
 258 385 251 370 224 369 c 1
 160 369 l 1
 160 62 l 1
 199 62 l 2
 209 62 237 62 237 31 c 0
 237 19 232 0 200 0 c 2
 47 0 l 2
 34 0 9 1 9 31 c 0
EndSplineSet
Ligature2: "Latin ligatures subtable" f f
EndChar

StartChar: fi
Encoding: 64257 64257 77
Width: 525
Flags: HW
TeX: 610 0
HStem: 0 62<12.0566 96 166 246.943 277.102 358 428 511.838> 369 61<27.0957 96 166 358> 555 61<201.342 339.652>
VStem: 96 70<62 369 430 521.007> 339 89<496.851 548.766> 358 70<62 369>
LayerCount: 2
Fore
SplineSet
11 31 m 0
 11 60 35 62 48 62 c 0
 64 62 80 62 96 62 c 1
 96 369 l 1
 62 369 l 2
 51 369 26 369 26 399 c 0
 26 428 51 430 61 430 c 2
 96 430 l 1
 96 448 96 466 96 484 c 0
 96 580 212 616 299 616 c 0
 405 616 428 568 428 536 c 0
 428 509 407 490 383 490 c 0
 361 490 339 506 339 535 c 0xf8
 339 540 340 544 341 549 c 1
 327 553 310 555 293 555 c 0
 223 555 181 526 170 504 c 0
 165 495 166 484 166 474 c 2
 166 430 l 1
 393 430 l 2
 430 430 428 406 428 390 c 2
 428 62 l 1
 476 62 l 2
 487 62 513 61 513 31 c 0
 513 17 506 0 477 0 c 2
 312 0 l 2
 283 0 276 15 276 31 c 0
 276 61 301 62 315 62 c 2
 358 62 l 1
 358 369 l 1
 166 369 l 1
 166 62 l 1xf4
 211 62 l 2
 224 62 248 60 248 31 c 0
 248 12 239 0 212 0 c 2
 47 0 l 2
 18 0 11 16 11 31 c 0
EndSplineSet
Ligature2: "Latin ligatures excepting Turkic subtable" f i
EndChar

StartChar: fl
Encoding: 64258 64258 78
Width: 525
Flags: HW
TeX: 610 0
HStem: 0 62<12.0566 96 166 246.943 277.102 358 428 511.838> 369 61<27.0957 96 166 358> 555 61<202.537 348.72>
VStem: 96 70<62 369 430 521.63> 358 70<62 369 430 552.533>
LayerCount: 2
Fore
SplineSet
11 31 m 0
 11 60 35 62 48 62 c 0
 64 62 80 62 96 62 c 1
 96 369 l 1
 62 369 l 2
 51 369 26 369 26 399 c 0
 26 428 51 430 61 430 c 2
 96 430 l 1
 96 448 96 466 96 484 c 0
 96 582 212 616 306 616 c 0
 365 616 370 611 383 611 c 2
 386 611 l 1
 386 608 l 1
 391 609 396 610 400 610 c 0
 425 610 428 590 428 574 c 2
 428 62 l 1
 476 62 l 2
 487 62 513 61 513 31 c 0
 513 17 506 0 477 0 c 2
 312 0 l 2
 283 0 276 15 276 31 c 0
 276 61 301 62 315 62 c 2
 358 62 l 1
 358 369 l 1
 166 369 l 1
 166 62 l 1
 211 62 l 2
 224 62 248 60 248 31 c 0
 248 12 239 0 212 0 c 2
 47 0 l 2
 18 0 11 16 11 31 c 0
166 430 m 1
 358 430 l 1
 358 522 l 1
 344 536 345 543 343 553 c 1
 328 554 313 555 298 555 c 2
 297 555 l 2
 222 555 166 527 166 481 c 0
 166 464 166 447 166 430 c 1
EndSplineSet
Ligature2: "Latin ligatures subtable" f l
EndChar

StartChar: ffi
Encoding: 64259 64259 79
Width: 525
Flags: HW
TeX: 610 0
HStem: -0 62<-2.84857 53 123 164.722 185.488 228 298 339.393 360.329 402 472 527.719> 369 61<18.1367 53 123 228 298 402> 554 62<141.116 211.565 317.144 384.694>
VStem: -4 170<1.73098 60.2349> 53 70<62 369 430 532.834> 184 157<1.99631 59.8521> 228 70<62 369 430 532.254> 359 170<1.73098 60.0183> 383 89<496.481 551.72> 402 70<62 369>
LayerCount: 2
Fore
SplineSet
-4 31 m 0xf0
 -4 60 21 62 33 62 c 2
 53 62 l 1
 53 369 l 1
 43 369 17 370 17 401 c 0
 17 416 27 430 52 430 c 2
 53 430 l 1
 53 483 l 2
 53 575 136 616 201 616 c 0
 247 616 270 593 278 585 c 1
 279 585 l 1
 304 605 342 616 375 616 c 0
 438 616 472 572 472 536 c 0
 472 506 450 490 428 490 c 0
 402 490 383 510 383 535 c 0xe880
 383 542 384 546 386 552 c 1
 380 553 376 554 370 554 c 0
 349 554 298 542 298 481 c 2
 298 430 l 1
 437 430 l 2
 473 430 472 406 472 390 c 2
 472 62 l 1xe240
 492 62 l 2
 524 62 529 42 529 31 c 0
 529 20 524 0 494 -0 c 2
 393 -0 l 2
 368 0 359 15 359 30 c 0xe1
 359 60 383 62 397 62 c 2
 402 62 l 1
 402 369 l 1
 298 369 l 1
 298 62 l 1xe240
 304 62 l 2
 331 62 341 48 341 33 c 0
 341 20 335 0 305 -0 c 2
 219 -0 l 2
 194 0 184 15 184 30 c 0xe4
 184 44 192 57 206 60 c 0
 213 62 221 62 228 62 c 1
 228 369 l 1
 123 369 l 1
 123 62 l 1xea
 128 62 l 2
 143 62 166 60 166 30 c 0
 166 15 157 0 132 -0 c 2
 31 -0 l 2
 3 0 -4 17 -4 31 c 0xf0
123 430 m 1
 228 430 l 1xea
 228 497 l 1
 217 507 209 517 209 533 c 0
 209 538 210 545 212 552 c 1
 207 553 202 554 195 554 c 0
 173 554 123 542 123 482 c 2
 123 430 l 1
EndSplineSet
Ligature2: "Latin ligatures excepting Turkic subtable" ff i
Ligature2: "Latin ligatures excepting Turkic subtable" f f i
EndChar

StartChar: ffl
Encoding: 64260 64260 80
Width: 525
Flags: HW
TeX: 610 0
HStem: -0 62<-2.84857 53 123 164.722 185.488 228 298 339.393 360.329 402 472 527.719> 369 61<18.1367 53 123 228 298 402> 554 62<141.012 212.733 316.031 387>
VStem: -4 170<1.73098 60.2349> 53 70<62 369 430 536.158> 184 157<1.99631 59.8521> 228 70<62 369 430 536.02> 359 170<1.73098 60.0183> 402 70<62 369 430 522>
LayerCount: 2
Fore
SplineSet
-4 31 m 0xf0
 -4 60 21 62 33 62 c 2
 53 62 l 1
 53 369 l 1
 43 369 17 369 17 400 c 0
 17 415 27 430 51 430 c 2
 53 430 l 1
 53 483 l 2
 53 575 135 616 202 616 c 0
 250 616 270 598 281 587 c 1
 313 609 346 616 378 616 c 0
 407 616 414 612 431 611 c 1
 431 609 l 1
 434 609 438 610 443 610 c 0
 456 610 472 604 472 575 c 2
 472 62 l 1xe880
 492 62 l 2
 524 62 529 42 529 31 c 0
 529 20 524 0 494 -0 c 2
 393 -0 l 2
 368 0 359 15 359 30 c 0xe1
 359 60 383 62 397 62 c 2
 402 62 l 1
 402 369 l 1
 298 369 l 1
 298 62 l 1xe280
 304 62 l 2
 331 62 341 48 341 33 c 0
 341 20 335 0 305 -0 c 2
 219 -0 l 2
 194 0 184 15 184 30 c 0xe4
 184 44 192 57 206 60 c 0
 213 62 221 62 228 62 c 1
 228 369 l 1
 123 369 l 1
 123 62 l 1xea
 128 62 l 2
 143 62 166 60 166 30 c 0
 166 15 157 0 132 -0 c 2
 31 -0 l 2
 3 0 -4 17 -4 31 c 0xf0
123 430 m 1
 228 430 l 1
 228 469 l 1
 230 511 l 1
 225 516 212 526 212 548 c 0
 212 550 213 551 213 553 c 1
 207 554 201 554 196 554 c 0
 168 554 123 540 123 482 c 2xea
 123 430 l 1
298 430 m 1
 402 430 l 1
 402 522 l 1
 393 533 l 1
 388 545 l 1
 387 554 l 1
 374 554 l 2
 342 554 298 540 298 482 c 2xe280
 298 430 l 1
EndSplineSet
Ligature2: "Latin ligatures subtable" ff l
Ligature2: "Latin ligatures subtable" f f l
EndChar

StartChar: uni2423
Encoding: 9251 9251 81
Width: 525
Flags: HW
TeX: 430 111
HStem: -133 43<86 437>
VStem: 43 43<-90 239.985> 437 43<-90 239.991>
LayerCount: 2
Fore
SplineSet
43 -106 m 2
 43 212 l 2
 43 233 54 240 64 240 c 0
 73 240 86 235 86 215 c 2
 86 -90 l 1
 437 -90 l 1
 437 215 l 2
 437 237 450 240 459 240 c 0
 465 240 480 237 480 213 c 2
 480 -102 l 2
 480 -118 478 -132 452 -133 c 1
 76 -133 l 2
 64 -133 43 -133 43 -106 c 2
EndSplineSet
EndChar

StartChar: exclam
Encoding: 33 33 82
Width: 525
Flags: HW
TeX: 610 0
HStem: 0 125<214.967 307.881> 202 420<214.198 308.85>
VStem: 199 125<15.9439 108.789 372.417 606.375> 211 101<203.655 422.583>
LayerCount: 2
Fore
SplineSet
199 548 m 1
 199 557 l 2
 199 603 236 622 262 622 c 0
 290 622 324 602 324 557 c 1xe0
 312 236 l 2
 310 202 289 202 275 202 c 2xd0
 245 202 l 2
 209 202 212 232 211 247 c 2xd0
 199 548 l 1
EndSplineSet
Refer: 95 46 S 1 0 0 1 0 0 3
EndChar

StartChar: quotedbl
Encoding: 34 34 83
Width: 525
Flags: HW
TeX: 610 0
HStem: 328 293<144.441 203.5 320.491 378.112>
VStem: 129 89<337.334 614.619> 305 89<336.701 614.641>
LayerCount: 2
Fore
SplineSet
129 575 m 0
 129 606 153 621 174 621 c 0
 194 621 218 607 218 575 c 0
 218 568 210 437 206 368 c 0
 205 355 205 328 174 328 c 0
 143 328 143 356 142 365 c 0
 138 435 129 568 129 575 c 0
305 579 m 0
 305 601 325 621 350 621 c 0
 364 621 394 612 394 575 c 0
 394 568 385 437 381 368 c 0
 380 353 380 328 349 328 c 0
 317 328 318 361 318 365 c 0
 311 483 305 568 305 579 c 0
EndSplineSet
EndChar

StartChar: numbersign
Encoding: 35 35 84
Width: 525
Flags: HW
TeX: 610 0
HStem: 0 21G<128 144.5 307 323.5> 167 62<36.3066 123 194 302 372 487.665> 382 62<36.5021 152 223 331 402 487.262> 590 20G<201 219 380 396.5>
VStem: 105 59<1.55046 162.86> 161 79<447.585 587.579> 284 59<1.55046 162.86> 340 79<447.585 587.579>
DStem2: 123 167 185 167 0.137505 0.990501<-135.477 0 71.1739 216.945 288.289 425.347> 302 167 364 167 0.137505 0.990501<-135.477 0 71.0364 216.945 288.281 425.347>
LayerCount: 2
Fore
SplineSet
35 198 m 0
 35 226 61 229 75 229 c 2
 132 229 l 1
 152 382 l 1
 72 382 l 2
 38 382 35 405 35 414 c 0
 35 429 47 444 73 444 c 2
 160 444 l 1
 161 445 l 2
 161 446 179 581 181 588 c 0
 184 597 192 610 210 610 c 0
 228 610 240 596 240 581 c 0
 240 564 232 521 223 444 c 1
 339 444 l 1
 340 445 l 2
 340 446 357 581 359 588 c 0
 362 597 371 610 389 610 c 0
 404 610 419 598 419 581 c 0xf5
 419 564 411 521 402 444 c 1
 451 444 l 2
 485 444 489 423 489 413 c 0
 489 408 487 394 472 386 c 0
 463 381 453 382 443 382 c 2
 393 382 l 1
 372 229 l 1
 452 229 l 2
 486 229 489 206 489 198 c 0
 489 189 486 167 452 167 c 2
 364 167 l 1
 351 78 348 32 343 19 c 0
 341 14 332 0 315 0 c 0
 299 0 284 13 284 32 c 0
 284 47 293 87 302 167 c 1
 185 167 l 1
 172 78 169 32 164 19 c 0
 162 14 153 0 136 0 c 0
 120 0 105 13 105 32 c 0xfa
 105 47 114 87 123 167 c 1
 74 167 l 2
 65 167 35 167 35 198 c 0
194 229 m 1xf0
 310 229 l 1
 331 382 l 1
 214 382 l 1
 194 229 l 1xf0
EndSplineSet
EndChar

StartChar: dollar
Encoding: 36 36 85
Width: 525
Flags: HW
TeX: 694 83
HStem: -4 62<176.416 231 293 346.179> 552 63<173.577 231 293 355.069>
VStem: 58 77<94.0275 190.582> 58 65<404.73 508.22> 231 62<-81.8125 -1.77173 59 275 360 552 612.28 692.861> 377 89<413.691 484.854> 401 65<109.113 225.792>
LayerCount: 2
Fore
SplineSet
58 168 m 0
 58 207 87 216 102 216 c 0
 127 216 147 198 147 172 c 0
 147 151 135 147 135 134 c 0xea
 135 129 143 74 231 58 c 1
 231 288 l 1
 74 319 58 413 58 451 c 0
 58 514 107 598 231 615 c 1
 231 653 l 2
 231 666 229 694 262 694 c 0
 296 694 293 660 293 654 c 2
 293 615 l 1
 395 603 466 551 466 455 c 0
 466 417 436 407 421 407 c 0
 398 407 377 425 377 452 c 0xdc
 377 472 389 482 391 485 c 1
 377 522 349 546 293 553 c 1
 293 347 l 1
 415 327 466 242 466 172 c 0xca
 466 95 405 12 293 -3 c 1
 293 -42 l 2
 293 -56 294 -83 262 -83 c 0
 228 -83 231 -49 231 -43 c 2
 231 -4 l 1
 127 4 58 75 58 168 c 0
123 456 m 0xd8
 123 418 156 374 231 360 c 1
 231 552 l 1
 163 542 123 498 123 456 c 0xd8
293 59 m 1
 366 72 401 124 401 167 c 0xca
 401 210 368 259 293 275 c 1
 293 59 l 1
EndSplineSet
EndChar

StartChar: percent
Encoding: 37 37 86
Width: 525
Flags: HW
TeX: 694 83
HStem: -83 62<396 408 396 427> 121 62<396 408> 427 62<116 128 116 146.5> 632 62<115.5 128.5>
VStem: 35 56<539 581.5 539 598.5> 153 56<539 581.5> 315 56<28 72 28 87> 433 56<28 72>
LayerCount: 2
Fore
SplineSet
35 561 m 0
 35 636 73 694 122 694 c 0
 170 694 209 638 209 560 c 0
 209 485 171 427 122 427 c 0
 74 427 35 483 35 561 c 0
87 -48 m 0
 87 -41 89 -36 93 -26 c 2
 366 663 l 2
 371 675 378 694 402 694 c 0
 422 694 437 677 437 659 c 0
 437 652 435 647 431 637 c 2
 157 -54 l 2
 153 -65 146 -83 122 -83 c 0
 103 -83 87 -67 87 -48 c 0
91 561 m 0
 91 517 110 489 122 489 c 0
 134 489 153 517 153 561 c 0
 153 602 135 632 122 632 c 0
 109 632 91 602 91 561 c 0
315 50 m 0
 315 124 352 183 402 183 c 0
 452 183 489 124 489 50 c 0
 489 -24 452 -83 402 -83 c 0
 352 -83 315 -24 315 50 c 0
371 50 m 0
 371 6 390 -21 402 -21 c 0
 414 -21 433 6 433 50 c 0
 433 94 414 121 402 121 c 0
 390 121 371 94 371 50 c 0
EndSplineSet
EndChar

StartChar: ampersand
Encoding: 38 38 87
Width: 525
Flags: HW
TeX: 610 0
HStem: -11 61<129.5 159 129.5 177 373.5 400> 370 61<358 359 419 450 419 419> 561 61<196 224>
VStem: 28 69<126.5 160> 103 56<473 506 473 527> 243 56<473.5 489.5> 431 56<107 109.5>
LayerCount: 2
Fore
SplineSet
28 137 m 0
 28 183 44 218 63 242 c 0
 65 243 123 307 131 315 c 1
 110 378 103 434 103 477 c 0
 103 577 157 622 207 622 c 0
 278 622 299 546 299 485 c 0
 299 462 299 403 198 298 c 1
 218 244 259 181 272 160 c 1
 299 213 332 299 359 370 c 1
 342 370 318 370 318 401 c 0
 318 431 343 431 358 431 c 2
 450 431 l 2
 466 431 490 431 490 400 c 0
 490 370 465 370 450 370 c 2
 419 370 l 1
 359 214 l 2
 349 189 329 143 308 108 c 1
 317 96 355 50 392 50 c 0
 408 50 427 63 431 107 c 0
 431 112 433 138 459 138 c 0
 461 138 487 138 487 105 c 0
 487 57 458 -11 392 -11 c 0
 334 -11 291 40 275 59 c 1
 244 21 203 -11 151 -11 c 0
 75 -11 28 61 28 137 c 0
97 140 m 0
 97 113 107 50 152 50 c 0
 166 50 202 55 239 108 c 1
 222 132 217 141 195 180 c 0
 181 203 162 236 155 252 c 1
 108 200 97 188 97 140 c 0
159 477 m 0
 159 469 160 416 175 364 c 1
 225 420 243 456 243 485 c 0
 243 494 241 561 207 561 c 0
 185 561 159 535 159 477 c 0
EndSplineSet
EndChar

StartChar: quoteright
Encoding: 8217 8217 88
Width: 525
Flags: HW
TeX: 610 0
HStem: 486 125<213.79 290.377>
VStem: 292 62<408.978 491.269>
LayerCount: 2
Fore
SplineSet
180 309 m 0
 180 329 199 336 209 342 c 0
 235 358 291 401 292 492 c 1
 283 488 274 486 262 486 c 0
 224 486 199 515 199 548 c 0
 199 581 223 611 261 611 c 0
 317 611 354 558 354 488 c 0
 354 355 239 278 211 278 c 0
 195 278 180 293 180 309 c 0
EndSplineSet
EndChar

StartChar: parenleft
Encoding: 40 40 89
Width: 525
Flags: HW
TeX: 694 83
HStem: -82 21<394 419> 674 20<391.5 419>
VStem: 173 69<250 356 250 434>
LayerCount: 2
Fore
SplineSet
173 306 m 0
 173 562 377 694 406 694 c 0
 432 694 437 674 437 666 c 0
 437 651 430 647 414 636 c 0
 280 545 242 406 242 306 c 0
 242 194 288 61 412 -23 c 0
 430 -35 437 -39 437 -54 c 0
 437 -62 432 -82 406 -82 c 0
 382 -82 307 -26 254 47 c 1
 219 97 173 187 173 306 c 0
EndSplineSet
EndChar

StartChar: parenright
Encoding: 41 41 90
Width: 525
Flags: HW
TeX: 694 83
HStem: -82 21<106.5 133.5> 674 20<106.5 131>
VStem: 283 69<256 338.5>
LayerCount: 2
Fore
SplineSet
88 -54 m 0
 88 -39 96 -34 111 -24 c 0
 246 67 283 206 283 306 c 0
 283 371 268 532 104 641 c 0
 99 644 88 651 88 666 c 0
 88 674 94 694 119 694 c 0
 143 694 218 638 271 565 c 1
 306 515 352 425 352 306 c 0
 352 50 148 -82 119 -82 c 0
 94 -82 88 -62 88 -54 c 0
EndSplineSet
EndChar

StartChar: asterisk
Encoding: 42 42 91
Width: 525
Flags: HW
TeX: 520 0
HStem: 90 21<245.5 278.5> 501 20<245.5 278.5>
VStem: 232 60<358 358>
LayerCount: 2
Fore
SplineSet
68 214 m 0
 68 234 81 240 93 247 c 2
 201 306 l 1
 92 365 l 2
 79 372 68 378 68 397 c 0
 68 412 81 430 101 430 c 0
 108 430 110 430 124 421 c 2
 232 358 l 1
 230 384 229 450 229 479 c 0
 229 488 229 521 262 521 c 0
 295 521 295 488 295 479 c 0
 295 450 294 384 292 358 c 1
 416 430 l 1
 456 430 456 401 456 397 c 0
 456 378 443 371 431 364 c 2
 323 305 l 1
 349 291 417 258 442 241 c 0
 444 240 456 231 456 214 c 0
 456 199 443 181 423 181 c 0
 415 181 413 181 386 197 c 0
 316 239 353 219 292 253 c 1
 294 227 295 161 295 132 c 0
 295 123 295 90 262 90 c 0
 229 90 229 123 229 132 c 0
 229 161 230 227 232 253 c 1
 108 181 l 1
 68 181 68 210 68 214 c 0
EndSplineSet
EndChar

StartChar: plus
Encoding: 43 43 92
Width: 525
Flags: HW
TeX: 530 -80
HStem: 275 62<38.5578 231 293 484.623>
VStem: 231 62<82.75 275 337 528.397>
LayerCount: 2
Fore
SplineSet
37 306 m 0
 37 317 43 337 77 337 c 2
 231 337 l 1
 231 489 l 2
 231 496 231 503 233 509 c 0
 237 521 249 530 262 530 c 0
 287 530 293 511 293 489 c 2
 293 337 l 1
 447 337 l 2
 482 337 486 316 486 306 c 0
 486 277 461 275 449 275 c 2
 293 275 l 1
 293 122 l 2
 293 115 293 109 291 103 c 0
 287 91 275 81 262 81 c 0
 249 81 237 91 233 103 c 0
 231 109 231 115 231 122 c 2
 231 275 l 1
 80 275 l 2
 73 275 67 274 60 276 c 0
 47 280 37 292 37 306 c 0
EndSplineSet
EndChar

StartChar: comma
Encoding: 44 44 93
Width: 525
Flags: HW
TeX: 124 138
HStem: -139 21<203.5 228> 0 125<245.5 265>
VStem: 282 64
LayerCount: 2
Fore
SplineSet
180 -107 m 0
 180 -87 198 -82 208 -79 c 0
 220 -75 267 -59 282 3 c 1
 275 1 268 0 262 0 c 0
 229 0 200 25 200 63 c 0
 200 95 223 125 263 125 c 0
 307 125 346 86 346 25 c 0
 346 -85 244 -139 212 -139 c 0
 195 -139 180 -122 180 -107 c 0
EndSplineSet
EndChar

StartChar: hyphen
Encoding: 45 45 94
Width: 525
Flags: HW
TeX: 430 0
HStem: 185 61<88.0815 434.961>
LayerCount: 2
Fore
SplineSet
87 216 m 0
 87 228 92 246 122 246 c 2
 403 246 l 2
 430 246 436 228 436 216 c 0
 436 202 430 185 401 185 c 2
 120 185 l 1
 92 186 87 204 87 216 c 0
EndSplineSet
EndChar

StartChar: period
Encoding: 46 46 95
Width: 525
Flags: HW
TeX: 124 0
HStem: 0 125<214.967 307.881>
VStem: 199 125<15.9439 108.789>
LayerCount: 2
Fore
SplineSet
199 63 m 0
 199 94 225 125 262 125 c 0
 295 125 324 99 324 63 c 0
 324 32 299 0 262 0 c 0
 229 0 199 27 199 63 c 0
EndSplineSet
EndChar

StartChar: slash
Encoding: 47 47 96
Width: 525
Flags: HW
TeX: 694 83
DStem2: 67 -26 121 -57 0.435291 0.90029<-27.8025 794.065>
LayerCount: 2
Fore
SplineSet
58 -53 m 0
 58 -43 63 -34 67 -26 c 2
 404 669 l 2
 409 678 416 694 435 694 c 0
 451 694 465 682 465 664 c 0
 465 655 461 647 458 640 c 2
 121 -57 l 2
 116 -66 108 -83 89 -83 c 0
 73 -83 58 -71 58 -53 c 0
EndSplineSet
EndChar

StartChar: zero
Encoding: 48 48 97
Width: 525
Flags: HW
TeX: 610 0
HStem: -11 61<223 301 223 318> 561 61<225 298.5>
VStem: 50 69<242 389 242 397> 405 69<242 389.5>
LayerCount: 2
Fore
SplineSet
50 306 m 0
 50 488 150 622 262 622 c 0
 372 622 474 491 474 305 c 0
 474 123 374 -11 262 -11 c 0
 152 -11 50 120 50 306 c 0
119 316 m 0
 119 168 184 50 262 50 c 0
 340 50 405 168 405 316 c 0
 405 463 335 561 262 561 c 0
 188 561 119 462 119 316 c 0
EndSplineSet
Substitution2: "LGC old numerals subtable" zerooldstyle
EndChar

StartChar: one
Encoding: 49 49 98
Width: 525
Flags: HW
TeX: 610 0
HStem: 0 61<143.5 242 151 242 311 402> 439 61 602 20<271.5 296>
VStem: 242 69<61 483 483 483>
LayerCount: 2
Fore
SplineSet
105 469 m 0
 105 497 126 499 142 500 c 0
 161 502 213 513 251 598 c 0
 256 610 262 622 281 622 c 0
 311 622 311 597 311 581 c 2
 311 61 l 1
 402 61 l 2
 418 61 442 61 442 30 c 0
 442 0 417 0 402 0 c 2
 151 0 l 2
 136 0 111 0 111 30 c 0
 111 61 135 61 151 61 c 2
 242 61 l 1
 242 483 l 1
 198 445 157 439 138 439 c 0
 123 439 105 444 105 469 c 0
EndSplineSet
Substitution2: "LGC old numerals subtable" oneoldstyle
EndChar

StartChar: two
Encoding: 50 50 99
Width: 525
Flags: HW
TeX: 610 0
HStem: 0 61<165 403 165 432> 561 61<216.5 285>
VStem: 52 89<438 458 438 497.5> 403 69<61 67 25 75 392 471>
LayerCount: 2
Fore
SplineSet
52 31 m 0
 52 45 58 50 67 58 c 2
 288 244 l 2
 354 299 403 357 403 427 c 0
 403 515 326 561 244 561 c 0
 189 561 142 530 127 484 c 1
 136 477 141 464 141 452 c 0
 141 424 118 407 97 407 c 0
 80 407 52 418 52 455 c 0
 52 540 131 622 249 622 c 0
 371 622 472 547 472 427 c 0
 472 347 426 283 363 227 c 1
 320 187 224 112 165 61 c 1
 403 61 l 1
 403 89 403 108 438 108 c 0
 472 108 472 86 472 67 c 2
 472 41 l 2
 472 9 465 0 432 0 c 2
 93 0 l 2
 77 0 52 0 52 31 c 0
EndSplineSet
Substitution2: "LGC old numerals subtable" twooldstyle
EndChar

StartChar: three
Encoding: 51 51 100
Width: 525
Flags: HW
TeX: 610 0
HStem: -11 61<244 309.5 244 329.5> 299 60 561 61<259.5 298>
VStem: 44 89<129 151 129 152> 73 89<489 510 489 539.5> 382 69<465 502.5> 411 69<143.5 203>
LayerCount: 2
Fore
SplineSet
44 136 m 0
 44 168 66 183 89 183 c 0
 114 183 133 163 133 139 c 0
 133 119 126 113 121 108 c 1
 147 61 224 50 264 50 c 0
 355 50 411 113 411 174 c 0
 411 232 360 299 261 299 c 2
 215 299 l 2xf2
 199 299 175 299 175 330 c 0
 175 359 190 359 247 363 c 0
 283 365 308 367 340 393 c 0
 367 415 382 450 382 480 c 0
 382 525 332 561 264 561 c 0
 255 561 184 561 153 530 c 1
 156 527 162 517 162 503 c 0
 162 475 139 458 118 458 c 0
 98 458 73 472 73 505 c 0
 73 574 143 622 263 622 c 0
 378 622 451 555 451 481 c 0
 451 427 423 370 367 334 c 1xec
 433 304 480 245 480 174 c 0
 480 81 395 -11 264 -11 c 0
 141 -11 44 47 44 136 c 0
EndSplineSet
Substitution2: "LGC old numerals subtable" threeoldstyle
EndChar

StartChar: four
Encoding: 52 52 101
Width: 525
Flags: HW
TeX: 610 0
HStem: 0 61<251.5 321 259 321 377 439> 169 61<53.5 321 99 321 99 321 377 455 99 377> 603 20<308 336 336 353>
VStem: 321 56<61 169 61 169 230 579 579 579>
LayerCount: 2
Fore
SplineSet
29 209 m 0
 29 229 29 231 38 244 c 2
 266 602 l 2
 279 622 284 623 308 623 c 2
 336 623 l 2
 370 623 377 615 377 582 c 2
 377 230 l 1
 455 230 l 2
 471 230 495 230 495 199 c 0
 495 169 470 169 455 169 c 2
 377 169 l 1
 377 61 l 1
 439 61 l 2
 455 61 479 61 479 30 c 0
 479 0 454 0 439 0 c 2
 259 0 l 2
 244 0 219 0 219 30 c 0
 219 61 243 61 259 61 c 2
 321 61 l 1
 321 169 l 1
 69 169 l 2
 38 169 29 176 29 209 c 0
99 230 m 1
 321 230 l 1
 321 579 l 1
 99 230 l 1
EndSplineSet
Substitution2: "LGC old numerals subtable" fouroldstyle
EndChar

StartChar: five
Encoding: 53 53 102
Width: 525
Flags: HW
TeX: 610 0
HStem: -11 61<234 290 234 310.5> 328 61<259.5 317> 550 61<157 397 157 157>
VStem: 52 89<135 159.5 135 161.5> 88 69<360 550 360 570 360 586> 403 69<150 222.5>
LayerCount: 2
Fore
SplineSet
52 142 m 0
 52 181 82 190 97 190 c 0
 118 190 141 174 141 145 c 0
 141 125 133 118 128 113 c 1
 156 58 220 50 248 50 c 0
 332 50 403 110 403 190 c 0xf4
 403 255 358 328 276 328 c 0
 218 328 177 310 150 278 c 0
 142 268 138 263 120 263 c 0
 88 263 88 286 88 304 c 2
 88 570 l 2
 88 602 95 611 128 611 c 2
 397 611 l 2
 413 611 437 611 437 580 c 0
 437 550 412 550 397 550 c 2
 157 550 l 1
 157 360 l 1
 198 382 242 389 277 389 c 0xec
 395 389 472 291 472 190 c 0
 472 79 373 -11 248 -11 c 0
 136 -11 52 59 52 142 c 0
EndSplineSet
Substitution2: "LGC old numerals subtable" fiveoldstyle
EndChar

StartChar: six
Encoding: 54 54 103
Width: 525
Flags: HW
TeX: 610 0
HStem: -11 61<231.5 300 231.5 318.5> 334 62<247 308.5> 561 61<276 337>
VStem: 53 79<218.5 253 218.5 400> 365 89<504 525> 402 69<150 230>
LayerCount: 2
Fore
SplineSet
53 299 m 0
 53 501 187 622 321 622 c 0
 418 622 454 568 454 519 c 0
 454 489 434 472 409 472 c 0
 383 472 365 492 365 516 c 0
 365 534 370 540 375 545 c 1
 370 550 354 561 320 561 c 0
 232 561 138 479 124 338 c 1xf8
 169 379 221 396 273 396 c 0
 383 396 471 307 471 193 c 0
 471 73 373 -11 264 -11 c 0xf4
 165 -11 53 62 53 299 c 0
132 222 m 0
 132 215 134 198 135 191 c 1
 134 182 l 1
 135 178 l 2
 137 172 138 166 140 160 c 0
 160 99 199 50 264 50 c 0
 336 50 402 107 402 193 c 0
 402 267 349 334 268 334 c 0
 192 334 132 284 132 222 c 0
EndSplineSet
Substitution2: "LGC old numerals subtable" sixoldstyle
EndChar

StartChar: seven
Encoding: 55 55 104
Width: 525
Flags: HW
TeX: 610 0
HStem: -11 21<187.5 213.5> 550 61<113 377 113 113>
VStem: 44 69<544 550 536 586 536 595.5> 170 69<14.5 91>
LayerCount: 2
Fore
SplineSet
44 544 m 2
 44 586 l 2
 44 605 44 627 78 627 c 0
 86 627 104 627 110 611 c 1
 440 611 l 2
 456 611 480 611 480 580 c 0
 480 566 478 564 458 546 c 0
 397 487 244 313 239 29 c 0
 239 0 222 -11 205 -11 c 0
 170 -11 170 22 170 36 c 0
 170 146 204 366 377 550 c 1
 113 550 l 1
 113 522 113 503 78 503 c 0
 44 503 44 525 44 544 c 2
EndSplineSet
Substitution2: "LGC old numerals subtable" sevenoldstyle
EndChar

StartChar: eight
Encoding: 56 56 105
Width: 525
Flags: HW
TeX: 610 0
HStem: -11 61<220.5 303.5 220.5 325> 299 61<225.5 298.5 225.5 308> 561 61<222.5 301>
VStem: 44 69<140.5 205.5 140.5 211.5> 58 69<433.5 487 433 502.5> 397 69<433.5 487> 411 69<140.5 205.5>
LayerCount: 2
Fore
SplineSet
44 174 m 0xf2
 44 249 108 308 183 329 c 1
 104 355 58 405 58 462 c 0
 58 543 142 622 262 622 c 0
 381 622 466 544 466 462 c 0
 466 405 421 356 341 329 c 1
 415 308 480 249 480 174 c 0
 480 77 388 -11 262 -11 c 0
 137 -11 44 77 44 174 c 0xf2
113 175 m 0
 113 106 179 50 262 50 c 0
 345 50 411 106 411 175 c 0
 411 236 354 299 262 299 c 0
 171 299 113 236 113 175 c 0
127 461 m 0
 127 405 189 360 262 360 c 0xec
 335 360 397 404 397 461 c 0
 397 513 340 561 262 561 c 0
 183 561 127 513 127 461 c 0
EndSplineSet
Substitution2: "LGC old numerals subtable" eightoldstyle
EndChar

StartChar: nine
Encoding: 57 57 106
Width: 525
Flags: HW
TeX: 610 0
HStem: -11 61<211.5 264 211.5 282> 215 62<215.5 277> 561 61<229 286.5>
VStem: 53 69<381 461.5 381 478.5> 70 89<86.5 107 86.5 107> 393 78<361.5 393.5>
LayerCount: 2
Fore
SplineSet
53 418 m 0
 53 539 154 622 265 622 c 0xf4
 360 622 471 553 471 312 c 0
 471 114 348 -11 216 -11 c 0
 88 -11 70 60 70 92 c 0
 70 122 90 139 115 139 c 0
 141 139 159 119 159 95 c 0
 159 78 154 72 150 67 c 1
 171 51 207 50 216 50 c 0
 312 50 390 149 400 273 c 1xec
 355 232 303 215 251 215 c 0
 141 215 53 304 53 418 c 0
122 418 m 0
 122 344 175 277 256 277 c 0
 339 277 393 334 393 389 c 0
 393 398 389 414 389 419 c 0
 389 424 390 426 390 428 c 0
 390 434 378 485 352 518 c 0
 336 538 308 561 265 561 c 0
 193 561 122 505 122 418 c 0
EndSplineSet
Substitution2: "LGC old numerals subtable" nineoldstyle
EndChar

StartChar: less
Encoding: 60 60 109
Width: 525
Flags: HW
TeX: 554 -55
DStem2: 81 338 146 305 0.85157 0.52424<38.0522 414.424> 146 305 81 273 0.85157 -0.52424<0 375.848>
LayerCount: 2
Fore
SplineSet
56 306 m 0
 56 326 75 334 81 338 c 2
 414 543 l 2
 421 547 427 551 437 551 c 0
 451 551 468 539 468 521 c 0
 468 504 456 497 446 490 c 2
 146 305 l 1
 154 301 161 296 169 291 c 2
 446 121 l 2
 452 117 468 109 468 90 c 0
 468 72 451 60 437 60 c 0
 427 60 421 64 414 68 c 2
 81 273 l 2
 74 277 56 286 56 306 c 0
EndSplineSet
EndChar

StartChar: equal
Encoding: 61 61 110
Width: 525
Flags: HW
TeX: 415 -195
HStem: 199 62<39.3152 484.531> 350 62<38.4707 484.492>
LayerCount: 2
Fore
SplineSet
37 382 m 0
 37 391 41 412 78 412 c 2
 447 412 l 2
 481 412 486 393 486 381 c 0
 486 371 480 350 452 350 c 2
 74 350 l 2
 42 350 37 371 37 382 c 0
38 230 m 0
 38 239 41 261 74 261 c 2
 449 261 l 2
 483 261 486 237 486 230 c 0
 486 219 480 199 446 199 c 2
 75 199 l 1
 42 200 38 221 38 230 c 0
EndSplineSet
EndChar

StartChar: greater
Encoding: 62 62 111
Width: 525
Flags: HW
TeX: 554 -55
DStem2: 110 543 78 490 0.852712 -0.522382<-23.3927 352.331> 378 306 110 68 0.85157 0.52424<-376.372 0>
LayerCount: 2
Fore
SplineSet
56 90 m 0
 56 107 68 114 78 121 c 2
 378 306 l 1
 370 310 363 315 355 320 c 2
 78 490 l 2
 72 494 56 502 56 521 c 0
 56 536 70 551 87 551 c 0
 97 551 103 547 110 543 c 2
 443 339 l 2
 450 335 468 326 468 306 c 0
 468 287 449 277 443 273 c 2
 110 68 l 2
 103 64 97 60 87 60 c 0
 72 60 56 72 56 90 c 0
EndSplineSet
EndChar

StartChar: question
Encoding: 63 63 112
Width: 525
Flags: HW
TeX: 610 0
HStem: 0 100<233 261> 184 21<227 262> 556 61<232.5 303>
VStem: 62 89<479 499 479 523> 197 100<36 64> 207 80<216.5 224 224 241 207 256> 393 69<480 508.5>
LayerCount: 2
Fore
SplineSet
62 495 m 0
 62 551 111 617 252 617 c 0
 437 617 462 530 462 493 c 0
 462 441 425 412 396 396 c 0
 303 345 287 288 287 241 c 2xf6
 287 224 l 2
 287 190 277 184 247 184 c 0
 207 184 207 197 207 236 c 0
 207 276 207 365 352 445 c 0
 371 455 393 467 393 493 c 0
 393 524 354 556 252 556 c 0
 213 556 166 549 141 521 c 1
 146 515 151 505 151 493 c 0
 151 465 128 448 107 448 c 0
 86 448 62 463 62 495 c 0
197 50 m 0
 197 78 219 100 247 100 c 0
 275 100 297 78 297 50 c 0xfa
 297 22 275 0 247 0 c 0
 219 0 197 22 197 50 c 0
EndSplineSet
EndChar

StartChar: at
Encoding: 64 64 113
Width: 525
Flags: HW
TeX: 610 0
HStem: -6 61<251 322 251 351> 106 61<312.5 357.5 312.5 359.5> 444 61<314 352.5 296 357.5> 556 61<252.5 318>
VStem: 44 56<234 379.5 234 396> 191 56<266 347 266 362.5> 424 56<264.5 345.5>
LayerCount: 2
Fore
SplineSet
44 306 m 0
 44 486 168 617 304 617 c 0
 480 617 480 386 480 321 c 0
 480 148 384 106 335 106 c 0
 261 106 191 187 191 306 c 0
 191 419 256 505 336 505 c 0
 369 505 397 487 400 485 c 1
 377 546 332 556 304 556 c 0
 201 556 100 454 100 305 c 0
 100 163 197 55 305 55 c 0
 339 55 377 66 412 98 c 0
 422 108 425 108 442 108 c 0
 452 108 480 108 480 80 c 0
 480 51 396 -6 306 -6 c 0
 166 -6 44 127 44 306 c 0
247 305 m 0
 247 227 289 167 336 167 c 0
 379 167 424 224 424 305 c 0
 424 386 380 444 335 444 c 0
 293 444 247 389 247 305 c 0
EndSplineSet
EndChar

StartChar: A
Encoding: 65 65 114
Width: 525
Flags: HW
TeX: 610 0
HStem: 0 61<61.5 87 80 87 158 172 348 352 352 366 437 444.5> 165 61<196 328 196 343 181 328> 542 81
VStem: 27 470<15 36.5>
AnchorPoint: "ogonek" 401 0 basechar 0
AnchorPoint: "below" 262 0 basechar 0
AnchorPoint: "above" 262 622 basechar 0
LayerCount: 2
Fore
SplineSet
27 30 m 0
 27 43 33 53 44 59 c 1
 50 61 73 61 87 61 c 1
 208 585 l 2
 217 623 233 623 262 623 c 0
 293 623 307 622 316 584 c 2
 437 61 l 1
 452 61 474 61 480 58 c 0
 492 53 497 43 497 30 c 0
 497 0 471 0 454 0 c 2
 352 0 l 2
 334 0 310 0 310 30 c 0
 310 61 330 61 366 61 c 1
 343 165 l 1
 181 165 l 1
 158 61 l 1
 194 61 214 61 214 30 c 0
 214 0 190 0 172 0 c 2
 70 0 l 2
 53 0 27 0 27 30 c 0
196 226 m 1
 328 226 l 1
 262 540 l 1
 196 226 l 1
EndSplineSet
EndChar

StartChar: B
Encoding: 66 66 115
Width: 525
Flags: HW
TeX: 610 0
HStem: 0 61<56 91 64 91 160 287 287 309> 287 61<160 263 263 298 160 263> 550 61<63 64 64 91 160 160 160 285>
VStem: 91 69<61 287 348 550> 392 69<434.5 471.5> 413 69<144.5 191.5>
AnchorPoint: "below" 218 0 basechar 0
AnchorPoint: "above" 218 622 basechar 0
LayerCount: 2
Fore
SplineSet
23 30 m 0
 23 61 48 61 64 61 c 2xf4
 91 61 l 1
 91 550 l 1
 64 550 l 2
 48 550 23 550 23 581 c 0
 23 611 49 611 63 611 c 2
 289 611 l 2
 400 611 461 529 461 456 c 0
 461 394 417 342 353 320 c 1
 434 301 482 236 482 167 c 0
 482 89 422 0 309 0 c 2
 63 0 l 2
 49 0 23 0 23 30 c 0
160 61 m 1
 287 61 l 2
 374 61 413 120 413 169 c 0
 413 214 383 287 298 287 c 2
 160 287 l 1
 160 61 l 1
160 348 m 1
 263 348 l 2
 360 348 392 414 392 455 c 0
 392 488 370 550 285 550 c 2
 160 550 l 1xf8
 160 348 l 1
EndSplineSet
EndChar

StartChar: C
Encoding: 67 67 116
Width: 525
Flags: HW
TeX: 610 0
HStem: -11 61<240.5 306.5 240.5 340> 561 61<240.5 306.5 216.5 315>
VStem: 40 69<231 380.5 231 397> 424 60
AnchorPoint: "below" 282 0 basechar 0
AnchorPoint: "above" 280 622 basechar 0
LayerCount: 2
Fore
SplineSet
40 306 m 0
 40 488 152 622 281 622 c 0
 332 622 378 602 411 574 c 1
 424 599 424 601 426 605 c 0
 431 612 436 622 454 622 c 0
 484 622 484 597 484 581 c 2
 484 442 l 2
 484 422 484 401 449 401 c 0
 419 401 417 417 414 434 c 0
 400 515 345 561 285 561 c 0
 196 561 109 455 109 306 c 0
 109 156 195 50 286 50 c 0
 327 50 408 74 415 172 c 0
 417 201 440 201 449 201 c 0
 460 201 484 201 484 168 c 0
 484 78 398 -11 282 -11 c 0
 152 -11 40 123 40 306 c 0
EndSplineSet
EndChar

StartChar: D
Encoding: 68 68 117
Width: 525
Flags: HW
TeX: 610 0
HStem: 0 61<52.5 82 60 82 151 247 247 266> 550 61<52.5 266 60 82 151 151 151 247>
VStem: 82 69<61 550> 416 69<242.5 359>
AnchorPoint: "below" 217 0 basechar 0
AnchorPoint: "above" 217 622 basechar 0
LayerCount: 2
Fore
SplineSet
19 30 m 0
 19 61 44 61 60 61 c 2
 82 61 l 1
 82 550 l 1
 60 550 l 2
 45 550 19 550 19 580 c 0
 19 611 44 611 60 611 c 2
 266 611 l 2
 399 611 485 461 485 301 c 0
 485 140 397 0 266 0 c 2
 60 0 l 2
 45 0 19 0 19 30 c 0
151 61 m 1
 247 61 l 2
 358 61 416 184 416 301 c 0
 416 417 360 550 247 550 c 2
 151 550 l 1
 151 61 l 1
EndSplineSet
EndChar

StartChar: E
Encoding: 69 69 118
Width: 525
Flags: HW
TeX: 610 0
HStem: 0 61<59.5 97 67 97 166 433> 286 61<166 297 166 297> 550 61<59.5 440 67 97 166 166 166 411>
VStem: 97 69<61 286 347 550> 297 69<265.5 270 270 286 347 363> 411 69<497 550 550 550> 433 69<61 130>
AnchorPoint: "ogonek" 264 0 basechar 0
AnchorPoint: "below" 264 0 basechar 0
AnchorPoint: "above" 264 622 basechar 0
LayerCount: 2
Fore
SplineSet
26 30 m 0
 26 61 51 61 67 61 c 2
 97 61 l 1xfa
 97 550 l 1
 67 550 l 2
 52 550 26 550 26 581 c 0
 26 611 52 611 67 611 c 2
 440 611 l 2
 474 611 480 601 480 570 c 2
 480 497 l 2
 480 477 480 456 445 456 c 0
 411 456 411 478 411 497 c 2
 411 550 l 1
 166 550 l 1
 166 347 l 1
 297 347 l 1
 297 388 297 404 332 404 c 0
 366 404 366 382 366 363 c 2
 366 270 l 2
 366 251 366 229 332 229 c 0
 297 229 297 245 297 286 c 1
 166 286 l 1xfc
 166 61 l 1
 433 61 l 1
 433 130 l 2
 433 150 433 171 468 171 c 0
 502 171 502 149 502 130 c 2
 502 41 l 2
 502 9 495 0 462 0 c 2
 67 0 l 2
 52 0 26 0 26 30 c 0
EndSplineSet
EndChar

StartChar: F
Encoding: 70 70 119
Width: 525
Flags: HW
TeX: 610 0
HStem: 0 61<61.5 102 69 102 171 223> 275 61<171 307 171 307> 550 61<61.5 450 69 102 171 171 171 421>
VStem: 102 69<61 275 61 336 336 550> 307 69<254.5 259 259 275 336 352> 421 69<497 550 550 550>
CounterMasks: 1 e0
AnchorPoint: "below" 259 0 basechar 0
AnchorPoint: "above" 259 622 basechar 0
LayerCount: 2
Fore
SplineSet
28 30 m 0
 28 61 53 61 69 61 c 2
 102 61 l 1
 102 550 l 1
 69 550 l 2
 54 550 28 550 28 580 c 0
 28 611 53 611 69 611 c 2
 450 611 l 2
 484 611 490 601 490 570 c 2
 490 497 l 2
 490 477 490 456 455 456 c 0
 421 456 421 478 421 497 c 2
 421 550 l 1
 171 550 l 1
 171 336 l 1
 307 336 l 1
 307 377 307 393 342 393 c 0
 376 393 376 371 376 352 c 2
 376 259 l 2
 376 240 376 218 342 218 c 0
 307 218 307 234 307 275 c 1
 171 275 l 1
 171 61 l 1
 223 61 l 2
 239 61 263 61 263 30 c 0
 263 0 238 0 223 0 c 2
 69 0 l 2
 54 0 28 0 28 30 c 0
EndSplineSet
EndChar

StartChar: G
Encoding: 71 71 120
Width: 525
Flags: HW
TeX: 610 0
HStem: -11 61<223.5 289.5> 209 61<328 455 336 378 449 455 455 461> 561 61<226 282 201 282.5>
VStem: 38 69<231.5 381.5 231.5 396.5> 380 69<31.5 41 41 42>
AnchorPoint: "below" 261 0 basechar 0
AnchorPoint: "above" 260 622 basechar 0
LayerCount: 2
Fore
SplineSet
38 306 m 0
 38 487 141 622 261 622 c 0
 303 622 343 607 378 577 c 1
 393 611 398 622 419 622 c 0
 449 622 449 597 449 581 c 2
 449 442 l 2
 449 422 449 401 414 401 c 0
 388 401 382 413 380 430 c 0
 363 538 300 561 265 561 c 0
 187 561 107 458 107 305 c 0
 107 158 183 50 264 50 c 0
 317 50 366 97 378 209 c 1
 336 209 l 2
 320 209 296 209 296 240 c 0
 296 270 321 270 336 270 c 2
 455 270 l 2
 470 270 496 270 496 240 c 0
 496 209 473 209 449 209 c 1
 449 41 l 2
 449 22 449 0 415 0 c 0
 380 0 380 20 380 42 c 1
 360 19 318 -11 261 -11 c 0
 142 -11 38 122 38 306 c 0
EndSplineSet
EndChar

StartChar: H
Encoding: 72 72 121
Width: 525
Flags: HW
TeX: 610 0
HStem: 0 61<54.5 87 62 87 156 181 343 368 437 462> 287 61<156 368 156 368> 550 61<54.5 181 62 87 156 156 156 181 343 368 437 462 437 437>
VStem: 87 69<61 287 61 348 348 550> 368 69<61 287 287 287 348 550 61 550>
AnchorPoint: "below" 262 0 basechar 0
AnchorPoint: "above" 262 622 basechar 0
LayerCount: 2
Fore
SplineSet
22 30 m 0
 22 61 46 61 62 61 c 2
 87 61 l 1
 87 550 l 1
 62 550 l 2
 47 550 22 550 22 580 c 0
 22 611 46 611 62 611 c 2
 181 611 l 2
 197 611 221 611 221 580 c 0
 221 550 196 550 181 550 c 2
 156 550 l 1
 156 348 l 1
 368 348 l 1
 368 550 l 1
 343 550 l 2
 327 550 303 550 303 581 c 0
 303 611 328 611 343 611 c 2
 462 611 l 2
 478 611 502 611 502 580 c 0
 502 550 477 550 462 550 c 2
 437 550 l 1
 437 61 l 1
 462 61 l 2
 478 61 502 61 502 30 c 0
 502 0 477 0 462 0 c 2
 343 0 l 2
 327 0 303 0 303 31 c 0
 303 61 328 61 343 61 c 2
 368 61 l 1
 368 287 l 1
 156 287 l 1
 156 61 l 1
 181 61 l 2
 197 61 221 61 221 30 c 0
 221 0 196 0 181 0 c 2
 62 0 l 2
 47 0 22 0 22 30 c 0
EndSplineSet
EndChar

StartChar: I
Encoding: 73 73 122
Width: 525
Flags: HW
TeX: 610 0
HStem: 0 61<112.5 228 120 228 297 405> 550 61<112.5 405 120 228 297 405 297 297>
VStem: 228 69<61 550 61 550>
AnchorPoint: "ogonek" 262 0 basechar 0
AnchorPoint: "below" 262 0 basechar 0
AnchorPoint: "above" 262 622 basechar 0
LayerCount: 2
Fore
SplineSet
79 31 m 0
 79 61 105 61 120 61 c 2
 228 61 l 1
 228 550 l 1
 120 550 l 2
 105 550 79 550 79 581 c 0
 79 611 105 611 120 611 c 2
 405 611 l 2
 420 611 446 611 446 580 c 0
 446 550 420 550 405 550 c 2
 297 550 l 1
 297 61 l 1
 405 61 l 2
 420 61 446 61 446 30 c 0
 446 0 420 0 405 0 c 2
 120 0 l 2
 105 0 79 0 79 31 c 0
EndSplineSet
EndChar

StartChar: J
Encoding: 74 74 123
Width: 525
Flags: HW
TeX: 610 0
HStem: -11 61<233 246.5 233 281.5> 550 61<248.5 437 256 338 407 437 407 407>
VStem: 71 89<94 114 94 115> 338 69<140 550>
AnchorPoint: "below" 274 0 basechar 0
AnchorPoint: "above" 372 622 basechar 0
LayerCount: 2
Fore
SplineSet
71 99 m 0
 71 131 93 146 116 146 c 0
 141 146 160 126 160 102 c 0
 160 86 156 81 152 76 c 1
 181 50 229 50 237 50 c 0
 256 50 338 55 338 140 c 2
 338 550 l 1
 256 550 l 2
 241 550 215 550 215 581 c 0
 215 611 241 611 256 611 c 2
 437 611 l 2
 452 611 478 611 478 581 c 0
 478 550 453 550 437 550 c 2
 407 550 l 1
 407 134 l 2
 407 43 326 -11 237 -11 c 0
 137 -11 71 36 71 99 c 0
EndSplineSet
EndChar

StartChar: K
Encoding: 75 75 124
Width: 525
Flags: HW
TeX: 610 0
HStem: 0 61<59 89 67 89 145 167 371 378 443 454> 550 61<59 167 67 89 145 145 145 167 428 444 444 446>
VStem: 89 56<61 194 284 550>
AnchorPoint: "below" 260 0 basechar 0
AnchorPoint: "above" 260 622 basechar 0
LayerCount: 2
Fore
SplineSet
26 31 m 0
 26 61 52 61 67 61 c 2
 89 61 l 1
 89 550 l 1
 67 550 l 2
 51 550 26 550 26 581 c 0
 26 611 52 611 67 611 c 2
 167 611 l 2
 183 611 208 611 208 580 c 0
 208 550 182 550 167 550 c 2
 145 550 l 1
 145 284 l 1
 356 550 l 1
 342 550 315 550 315 580 c 0
 315 611 341 611 356 611 c 2
 444 611 l 2
 458 611 485 611 485 581 c 0
 485 550 464 550 428 550 c 1
 276 358 l 1
 436 73 l 2
 437 71 441 65 443 61 c 1
 472 61 495 61 495 30 c 0
 495 0 469 0 454 0 c 2
 379 0 l 2
 363 0 338 0 338 31 c 0
 338 61 364 61 378 61 c 1
 238 311 l 1
 145 194 l 1
 145 61 l 1
 167 61 l 2
 183 61 208 61 208 30 c 0
 208 0 182 0 167 0 c 2
 67 0 l 2
 51 0 26 0 26 31 c 0
EndSplineSet
EndChar

StartChar: L
Encoding: 76 76 125
Width: 525
Flags: HW
TeX: 610 0
HStem: 0 61<64.5 109 72 109 178 419> 550 61<64.5 234 72 109 178 234 178 178>
VStem: 109 69<61 550 61 550> 419 69<61 130>
AnchorPoint: "below" 260 0 basechar 0
AnchorPoint: "above" 260 622 basechar 0
LayerCount: 2
Fore
SplineSet
32 30 m 0
 32 61 56 61 72 61 c 2
 109 61 l 1
 109 550 l 1
 72 550 l 2
 57 550 32 550 32 580 c 0
 32 611 56 611 72 611 c 2
 234 611 l 2
 249 611 275 611 275 580 c 0
 275 550 248 550 234 550 c 2
 178 550 l 1
 178 61 l 1
 419 61 l 1
 419 130 l 2
 419 151 419 171 454 171 c 0
 488 171 488 150 488 130 c 2
 488 41 l 2
 488 9 481 0 448 0 c 2
 72 0 l 2
 57 0 32 0 32 30 c 0
EndSplineSet
EndChar

StartChar: M
Encoding: 77 77 126
Width: 525
Flags: HW
TeX: 610 0
HStem: 0 61<54 57 57 70 126 139 382 385 385 398 454 467> 204 69 550 61<57 70 454 467 467 470>
VStem: 70 56<61 538 61 550 61 550> 398 56<61 538 538 538>
AnchorPoint: "below" 262 0 basechar 0
AnchorPoint: "above" 262 622 basechar 0
LayerCount: 2
Fore
SplineSet
17 30 m 0
 17 61 38 61 70 61 c 1
 70 550 l 1
 38 550 17 550 17 581 c 0
 17 611 42 611 57 611 c 2
 113 611 l 2
 127 611 152 611 162 587 c 0
 164 581 252 322 262 275 c 1
 263 275 l 1
 269 304 278 333 290 369 c 2
 357 571 l 2
 366 597 370 611 411 611 c 2
 467 611 l 2
 482 611 507 611 507 581 c 0
 507 550 486 550 454 550 c 1
 454 61 l 1
 486 61 507 61 507 30 c 0
 507 0 482 0 467 0 c 2
 385 0 l 2
 370 0 345 0 345 30 c 0
 345 61 366 61 398 61 c 1
 398 538 l 1
 397 538 l 1
 385 485 300 232 297 226 c 0
 289 212 275 204 262 204 c 0
 250 204 238 211 232 219 c 0
 227 226 214 264 206 287 c 0
 202 300 138 492 127 538 c 1
 126 538 l 1
 126 61 l 1
 158 61 179 61 179 30 c 0
 179 0 154 0 139 0 c 2
 57 0 l 2
 42 0 17 0 17 30 c 0
EndSplineSet
EndChar

StartChar: N
Encoding: 78 78 127
Width: 525
Flags: HW
TeX: 610 0
HStem: 0 61<60 93 68 93 149 174> 550 61<60 136 68 93 350 375 431 431 431 456>
VStem: 93 56<61 536 61 550 61 550> 375 56<75 550>
AnchorPoint: "below" 262 0 basechar 0
AnchorPoint: "above" 262 622 basechar 0
LayerCount: 2
Fore
SplineSet
28 31 m 0
 28 61 53 61 68 61 c 2
 93 61 l 1
 93 550 l 1
 68 550 l 2
 52 550 28 550 28 581 c 0
 28 611 53 611 68 611 c 2
 136 611 l 2
 163 611 178 608 190 575 c 2
 374 75 l 1
 375 75 l 1
 375 550 l 1
 350 550 l 2
 335 550 310 550 310 580 c 0
 310 611 334 611 350 611 c 2
 456 611 l 2
 472 611 496 611 496 580 c 0
 496 550 471 550 456 550 c 2
 431 550 l 1
 431 41 l 2
 431 3 419 0 389 0 c 0
 363 0 347 1 334 36 c 2
 150 536 l 1
 149 536 l 1
 149 61 l 1
 174 61 l 2
 190 61 214 61 214 30 c 0
 214 0 189 0 174 0 c 2
 68 0 l 2
 52 0 28 0 28 31 c 0
EndSplineSet
EndChar

StartChar: O
Encoding: 79 79 128
Width: 525
Flags: HW
TeX: 610 0
HStem: -11 61<218 306.5 218 354> 561 61<221 299.5>
VStem: 56 69<286.5 345 286.5 450> 399 69<283 344.5>
AnchorPoint: "ogonek" 262 0 basechar 0
AnchorPoint: "below" 262 0 basechar 0
AnchorPoint: "above" 262 622 basechar 0
LayerCount: 2
Fore
SplineSet
56 305 m 0
 56 595 77 622 262 622 c 0
 447 622 468 594 468 305 c 0
 468 16 446 -11 262 -11 c 0
 77 -11 56 16 56 305 c 0
125 314 m 0
 125 259 125 172 137 121 c 0
 149 71 174 50 262 50 c 0
 351 50 377 71 388 127 c 0
 399 181 399 252 399 314 c 0
 399 375 399 450 387 497 c 0
 372 552 337 561 262 561 c 0
 180 561 149 549 136 490 c 0
 125 444 125 376 125 314 c 0
EndSplineSet
EndChar

StartChar: P
Encoding: 80 80 129
Width: 525
Flags: HW
TeX: 610 0
HStem: 0 61<59.5 97 67 97 166 196> 245 61<166 272 166 272 272 291> 550 61<59.5 291 67 97 166 272 166 166>
VStem: 97 69<61 245 61 306 306 550> 411 69<401.5 454.5>
AnchorPoint: "below" 218 0 basechar 0
AnchorPoint: "above" 218 622 basechar 0
LayerCount: 2
Fore
SplineSet
26 30 m 0
 26 61 51 61 67 61 c 2
 97 61 l 1
 97 550 l 1
 67 550 l 2
 52 550 26 550 26 581 c 0
 26 611 52 611 67 611 c 2
 291 611 l 2
 406 611 480 521 480 428 c 0
 480 335 407 245 291 245 c 2
 166 245 l 1
 166 61 l 1
 196 61 l 2
 211 61 237 61 237 30 c 0
 237 0 211 0 196 0 c 2
 67 0 l 2
 52 0 26 0 26 30 c 0
166 306 m 1
 272 306 l 2
 368 306 411 375 411 428 c 0
 411 481 368 550 272 550 c 2
 166 550 l 1
 166 306 l 1
EndSplineSet
EndChar

StartChar: Q
Encoding: 81 81 130
Width: 525
Flags: HW
TeX: 610 138
HStem: -139 21<406 414 414 423> -11 61<254 268.5> 561 61<216 306.5>
VStem: 56 69<278 333 278 450> 399 69<282 333>
AnchorPoint: "below" 262 -222 basechar 0
AnchorPoint: "above" 262 622 basechar 0
LayerCount: 2
Fore
SplineSet
56 305 m 0
 56 595 77 622 262 622 c 0
 447 622 468 594 468 305 c 0
 468 259 468 192 462 138 c 0
 453 57 435 22 391 4 c 1
 398 -9 416 -43 424 -56 c 1
 435 -78 455 -114 455 -120 c 0
 455 -139 438 -139 423 -139 c 2
 414 -139 l 2
 398 -139 387 -139 379 -127 c 0
 377 -123 324 -23 318 -10 c 1
 307 -11 275 -11 262 -11 c 0
 77 -11 56 16 56 305 c 0
125 305 m 0
 125 251 125 183 134 132 c 0
 144 78 164 50 254 50 c 2
 286 50 l 1
 240 139 l 2
 237 144 236 147 236 152 c 0
 236 171 254 171 268 171 c 2
 279 171 l 2
 299 171 300 170 309 155 c 2
 357 68 l 1
 379 83 399 97 399 306 c 0
 399 360 399 428 390 479 c 0
 379 544 351 561 262 561 c 0
 170 561 148 541 135 486 c 1
 125 438 125 361 125 305 c 0
EndSplineSet
EndChar

StartChar: R
Encoding: 82 82 131
Width: 525
Flags: HW
TeX: 610 0
HStem: -11 61<420 442.5 420 466.5> 0 61<54.5 87 62 87 156 181> 275 61<156 228 228 234 156 228> 550 61<54.5 239 62 87 156 156 156 228>
VStem: 87 69<61 275 336 550> 337 69<129.5 180.5 122.5 183> 364 69<422.5 467> 453 69<91 95>
AnchorPoint: "below" 218 0 basechar 0
AnchorPoint: "above" 218 622 basechar 0
LayerCount: 2
Fore
SplineSet
22 30 m 0
 22 61 46 61 62 61 c 2
 87 61 l 1
 87 550 l 1
 62 550 l 2
 47 550 22 550 22 580 c 0
 22 611 46 611 62 611 c 2
 239 611 l 2
 357 611 433 529 433 443 c 0
 433 402 414 341 348 304 c 1
 362 293 385 272 397 243 c 0
 406 220 406 212 406 149 c 0
 406 96 406 50 434 50 c 0
 451 50 453 87 453 95 c 0
 454 125 477 125 487 125 c 0
 498 125 522 125 522 93 c 0
 522 55 498 -11 435 -11 c 0
 401 -11 373 5 356 35 c 0
 337 67 337 97 337 162 c 0
 337 204 337 226 315 247 c 1
 283 275 253 275 234 275 c 2xbd
 156 275 l 1
 156 61 l 1
 181 61 l 2
 197 61 221 61 221 30 c 0
 221 0 196 0 181 0 c 2
 62 0 l 2
 47 0 22 0 22 30 c 0
156 336 m 1
 228 336 l 2
 319 336 364 394 364 443 c 0
 364 491 320 550 228 550 c 2
 156 550 l 1x7b
 156 336 l 1
EndSplineSet
EndChar

StartChar: S
Encoding: 83 83 132
Width: 525
Flags: HW
TeX: 610 0
HStem: -11 61<271 324.5 271 342> 561 61<201.5 260.5 182.5 296>
VStem: 52 65<438.5 487.5 438.5 500.5> 380 65 407 65<135 198 121.5 204.5>
AnchorPoint: "below" 284 0 basechar 0
AnchorPoint: "above" 237 622 basechar 0
LayerCount: 2
Fore
SplineSet
52 30 m 2
 52 162 l 2
 52 182 52 203 87 203 c 0
 119 203 120 185 121 168 c 0
 122 150 126 108 168 81 c 1
 208 54 257 50 285 50 c 0
 364 50 407 109 407 161 c 0
 407 248 324 268 296 274 c 0xe8
 282 277 185 300 181 301 c 0
 98 325 52 391 52 458 c 0
 52 543 127 622 238 622 c 0
 283 622 337 610 378 575 c 1
 386 605 391 622 415 622 c 0
 445 622 445 597 445 581 c 2
 445 449 l 2
 445 429 445 408 410 408 c 0
 390 408 379 414 376 436 c 1
 370 467 355 561 237 561 c 0
 166 561 117 513 117 462 c 0
 117 415 155 380 197 368 c 1xf0
 278 350 l 2
 356 332 383 325 424 285 c 0
 436 272 472 230 472 166 c 0
 472 77 400 -11 284 -11 c 0
 220 -11 159 5 119 35 c 1
 110 3 104 -11 82 -11 c 0
 52 -11 52 14 52 30 c 2
EndSplineSet
EndChar

StartChar: T
Encoding: 84 84 133
Width: 525
Flags: HW
TeX: 610 0
HStem: 0 61<168 228 176 228 297 349> 550 61<95 228 95 95 297 429 297 297>
VStem: 26 69<497 550 487 570> 228 69<61 550 61 550> 429 69<497 550 550 550>
CounterMasks: 1 38
AnchorPoint: "below" 262 0 basechar 0
AnchorPoint: "above" 262 622 basechar 0
LayerCount: 2
Fore
SplineSet
26 497 m 2
 26 570 l 2
 26 603 34 611 67 611 c 2
 458 611 l 2
 492 611 498 601 498 570 c 2
 498 497 l 2
 498 477 498 456 463 456 c 0
 429 456 429 478 429 497 c 2
 429 550 l 1
 297 550 l 1
 297 61 l 1
 349 61 l 2
 365 61 389 61 389 30 c 0
 389 0 364 0 349 0 c 2
 176 0 l 2
 160 0 136 0 136 31 c 0
 136 61 161 61 176 61 c 2
 228 61 l 1
 228 550 l 1
 95 550 l 1
 95 497 l 2
 95 477 95 456 60 456 c 0
 26 456 26 478 26 497 c 2
EndSplineSet
EndChar

StartChar: U
Encoding: 85 85 134
Width: 525
Flags: HW
TeX: 610 0
HStem: -11 61<235.5 288 235.5 312> 550 61<37.5 174 45 75 144 144 144 174 350 380 449 479 449 449>
VStem: 75 69<204 209 209 550> 380 69<209 550>
AnchorPoint: "ogonek" 262 0 basechar 0
AnchorPoint: "below" 262 0 basechar 0
AnchorPoint: "above" 262 622 basechar 0
LayerCount: 2
Fore
SplineSet
4 581 m 0
 4 611 30 611 45 611 c 2
 174 611 l 2
 189 611 215 611 215 581 c 0
 215 550 189 550 174 550 c 2
 144 550 l 1
 144 209 l 2
 144 102 209 50 262 50 c 0
 314 50 380 102 380 209 c 2
 380 550 l 1
 350 550 l 2
 335 550 309 550 309 581 c 0
 309 611 335 611 350 611 c 2
 479 611 l 2
 494 611 520 611 520 581 c 0
 520 550 495 550 479 550 c 2
 449 550 l 1
 449 204 l 2
 449 81 362 -11 262 -11 c 0
 162 -11 75 81 75 204 c 2
 75 550 l 1
 45 550 l 2
 30 550 4 550 4 581 c 0
EndSplineSet
EndChar

StartChar: V
Encoding: 86 86 135
Width: 525
Flags: HW
TeX: 610 0
HStem: -8 21<247.5 275.5> 550 61<59 75 146 161 161 163.5 363 378 449 465 465 467>
VStem: 18 488<565.5 596>
AnchorPoint: "below" 262 0 basechar 0
AnchorPoint: "above" 262 622 basechar 0
LayerCount: 2
Fore
SplineSet
18 581 m 0
 18 611 44 611 59 611 c 2
 161 611 l 2
 176 611 202 611 202 581 c 0
 202 550 181 550 146 550 c 1
 243 161 l 2
 252 124 256 107 261 72 c 1
 262 72 l 1
 269 115 288 191 301 244 c 2
 378 550 l 1
 343 550 322 550 322 581 c 0
 322 611 348 611 363 611 c 2
 465 611 l 2
 480 611 506 611 506 581 c 0
 506 550 485 550 449 550 c 1
 317 29 l 2
 308 -8 289 -8 262 -8 c 0
 233 -8 217 -8 207 30 c 2
 75 550 l 1
 39 550 18 550 18 581 c 0
EndSplineSet
EndChar

StartChar: W
Encoding: 87 87 136
Width: 525
Flags: HW
TeX: 610 0
HStem: -8 21<156 166.5 358.5 368> 298 69 550 61<43.5 131 48 131 106 106 106 131 393 418 475 479.5>
VStem: 11 502<565 595.5>
AnchorPoint: "below" 262 0 basechar 0
AnchorPoint: "above" 262 622 basechar 0
LayerCount: 2
Fore
SplineSet
11 580 m 0
 11 611 37 611 52 611 c 2
 131 611 l 2
 147 611 171 611 171 580 c 0
 171 550 146 550 131 550 c 2
 106 550 l 1
 158 154 l 2
 165 100 166 81 166 76 c 1
 167 76 l 1
 172 138 219 338 222 345 c 0
 232 367 252 367 262 367 c 0
 271 367 294 367 303 344 c 1
 304 338 351 140 357 76 c 1
 358 76 l 1
 359 104 366 156 374 217 c 2
 418 550 l 1
 393 550 l 2
 378 550 353 550 353 580 c 0
 353 611 377 611 393 611 c 2
 472 611 l 2
 487 611 513 611 513 580 c 0
 513 550 486 550 475 550 c 1
 403 27 l 2
 398 -8 374 -8 362 -8 c 0
 355 -8 329 -8 322 17 c 0
 321 19 267 248 263 293 c 1
 262 293 l 1
 258 253 204 19 201 12 c 0
 191 -8 171 -8 162 -8 c 0
 150 -8 126 -8 121 27 c 2
 49 550 l 1
 48 550 l 2
 39 550 11 550 11 580 c 0
EndSplineSet
EndChar

StartChar: X
Encoding: 88 88 137
Width: 525
Flags: HW
TeX: 610 0
HStem: 0 61<59.5 89 67 89 165 171 344.5 351 351 356 432 455> 550 61<71.5 183 79 102 180 183 183 190 322 328 404 404 404 426>
VStem: 38 458
AnchorPoint: "below" 262 0 basechar 0
AnchorPoint: "above" 262 622 basechar 0
LayerCount: 2
Fore
SplineSet
27 30 m 0
 27 61 51 61 67 61 c 2
 89 61 l 1
 222 325 l 1
 102 550 l 1
 79 550 l 2
 64 550 38 550 38 581 c 0
 38 611 64 611 79 611 c 2
 183 611 l 2
 198 611 223 611 223 581 c 0
 223 550 200 550 180 550 c 1
 257 404 l 1
 328 550 l 1
 305 550 282 550 282 581 c 0
 282 611 307 611 322 611 c 2
 426 611 l 2
 441 611 467 611 467 580 c 0
 467 550 441 550 426 550 c 2
 404 550 l 1
 291 326 l 1
 432 61 l 1
 455 61 l 2
 470 61 496 61 496 30 c 0
 496 0 470 0 455 0 c 2
 351 0 l 2
 336 0 311 0 311 30 c 0
 311 61 333 61 356 61 c 1
 257 255 l 1
 165 61 l 1
 188 61 212 61 212 30 c 0
 212 0 186 0 171 0 c 2
 67 0 l 2
 52 0 27 0 27 30 c 0
EndSplineSet
EndChar

StartChar: Y
Encoding: 89 89 138
Width: 525
Flags: HW
TeX: 610 0
HStem: 0 61<195 228 203 228 297 322> 550 61<51 163 59 80 157 163 163 169 361 367 444 465 444 444>
VStem: 228 69<61 244 61 244>
AnchorPoint: "below" 262 0 basechar 0
AnchorPoint: "above" 262 622 basechar 0
LayerCount: 2
Fore
SplineSet
19 581 m 0
 19 611 44 611 59 611 c 2
 163 611 l 2
 178 611 203 611 203 581 c 0
 203 550 181 550 157 550 c 1
 167 529 248 365 262 314 c 1
 367 550 l 1
 343 550 321 550 321 581 c 0
 321 611 346 611 361 611 c 2
 465 611 l 2
 481 611 505 611 505 580 c 0
 505 550 480 550 465 550 c 2
 444 550 l 1
 297 244 l 1
 297 61 l 1
 322 61 l 2
 338 61 362 61 362 30 c 0
 362 0 337 0 322 0 c 2
 203 0 l 2
 187 0 163 0 163 31 c 0
 163 61 188 61 203 61 c 2
 228 61 l 1
 228 244 l 1
 80 550 l 1
 59 550 l 2
 43 550 19 550 19 581 c 0
EndSplineSet
EndChar

StartChar: Z
Encoding: 90 90 139
Width: 525
Flags: HW
TeX: 610 0
HStem: 0 61<79.5 412 137 412 137 441> 550 61<129 387 129 129>
VStem: 60 69<497 550 487 570> 412 69<61 133>
AnchorPoint: "below" 264 0 basechar 0
AnchorPoint: "above" 264 622 basechar 0
LayerCount: 2
Fore
SplineSet
48 34 m 0
 48 44 48 50 58 65 c 2
 387 550 l 1
 129 550 l 1
 129 497 l 2
 129 477 129 456 94 456 c 0
 60 456 60 478 60 497 c 2
 60 570 l 2
 60 603 68 611 101 611 c 2
 435 611 l 2
 454 611 476 611 476 577 c 0
 476 567 476 561 466 546 c 2
 137 61 l 1
 412 61 l 1
 412 133 l 2
 412 153 412 174 447 174 c 0
 481 174 481 152 481 133 c 2
 481 41 l 2
 481 9 474 0 441 0 c 2
 89 0 l 2
 70 0 48 0 48 34 c 0
EndSplineSet
EndChar

StartChar: bracketleft
Encoding: 91 91 140
Width: 525
Flags: HW
TeX: 694 83
HStem: -83 61<292 481.87> 632 62<292 481.87>
VStem: 222 70<-22 632>
LayerCount: 2
Fore
SplineSet
222 -49 m 1
 222 660 l 2
 222 692 245 694 259 694 c 2
 446 694 l 2
 458 694 483 693 483 663 c 0
 483 649 476 632 450 632 c 2
 292 632 l 1
 292 -22 l 1
 450 -22 l 2
 476 -22 483 -39 483 -53 c 0
 483 -83 458 -83 448 -83 c 2
 257 -83 l 2
 228 -83 221 -67 222 -49 c 1
EndSplineSet
EndChar

StartChar: backslash
Encoding: 92 92 141
Width: 525
Flags: HW
TeX: 694 83
DStem2: 456 -24 67 638 0.434603 -0.900622<-791.277 29.5642>
LayerCount: 2
Fore
SplineSet
58 663 m 0
 58 681 75 694 89 694 c 0
 110 694 117 675 123 663 c 2
 456 -24 l 2
 460 -32 465 -42 465 -53 c 0
 465 -71 450 -83 435 -83 c 0
 414 -83 405 -63 399 -50 c 2
 67 638 l 2
 64 645 58 653 58 663 c 0
EndSplineSet
EndChar

StartChar: bracketright
Encoding: 93 93 142
Width: 525
Flags: HW
TeX: 694 83
HStem: -83 61<41.2531 232> 633 61<41.1367 74 75 232>
VStem: 232 70<-22 633>
LayerCount: 2
Fore
SplineSet
40 -53 m 0
 40 -39 48 -22 74 -22 c 2
 232 -22 l 1
 232 633 l 1
 75 633 l 1
 74 632 l 1
 48 632 40 649 40 663 c 0
 40 693 66 694 76 694 c 2
 266 694 l 2
 294 694 303 678 302 660 c 1
 302 -49 l 2
 302 -68 295 -83 265 -83 c 2
 78 -83 l 2
 61 -83 40 -78 40 -53 c 0
EndSplineSet
EndChar

StartChar: asciicircum
Encoding: 94 94 143
Width: 525
Flags: HW
TeX: 610 0
HStem: 494 71<216.714 307.219>
LayerCount: 2
Fore
SplineSet
76 462 m 0
 76 480 94 489 104 493 c 0
 230 553 250 565 262 565 c 2
 263 565 l 2
 272 565 271 564 420 493 c 0
 431 488 448 481 448 462 c 0
 448 449 435 422 414 422 c 2
 413 422 l 2
 404 422 405 423 276 489 c 0
 271 491 268 494 264 494 c 0
 253 494 233 481 134 430 c 0
 127 426 119 422 110 422 c 0
 89 422 76 449 76 462 c 0
EndSplineSet
EndChar

StartChar: underscore
Encoding: 95 95 144
Width: 525
Flags: HW
TeX: 0 95
HStem: -95 70<58.6365 465.171>
LayerCount: 2
Fore
SplineSet
56 -60 m 0
 56 -51 60 -25 98 -25 c 2
 427 -25 l 2
 463 -25 468 -51 468 -61 c 0
 468 -73 461 -95 425 -95 c 2
 97 -95 l 1
 61 -94 56 -71 56 -60 c 0
EndSplineSet
EndChar

StartChar: quoteleft
Encoding: 8216 8216 145
Width: 525
Flags: HW
TeX: 610 0
HStem: 347 125<233.086 309.406>
VStem: 170 62<465.777 548.946>
LayerCount: 2
Fore
SplineSet
170 469 m 0
 170 604 286 680 313 680 c 0
 329 680 344 664 344 648 c 0
 344 628 325 621 315 615 c 0
 289 600 233 556 232 465 c 1
 241 469 250 472 262 472 c 0
 299 472 325 442 325 409 c 0
 325 376 300 347 262 347 c 0
 207 347 170 400 170 469 c 0
EndSplineSet
EndChar

StartChar: a
Encoding: 97 97 146
Width: 525
Flags: HW
TeX: 430 0
HStem: -6 61<196 231 196 238.5> 0 61<463 488> 218 61 379 61<222.5 265>
VStem: 55 69<108.5 152.5 108.5 176> 81 89<367 371 367 403.5> 355 69<134 218 218 218 277 285 69 312.5>
AnchorPoint: "ogonek" 390 0 basechar 0
AnchorPoint: "affricate-below" 525 -222 basechar 0
AnchorPoint: "affricate-above" 525 611 basechar 0
AnchorPoint: "below" 226 0 basechar 0
AnchorPoint: "above" 226 440 basechar 0
LayerCount: 2
Fore
SplineSet
55 128 m 0xba
 55 224 178 274 355 277 c 1
 355 348 303 379 227 379 c 0
 218 379 205 379 191 378 c 0
 171 376 170 375 170 367 c 0
 169 330 141 321 126 321 c 0
 102 321 81 337 81 367 c 0
 81 440 183 440 226 440 c 0
 370 440 424 356 424 285 c 2
 424 69 l 1
 432 66 442 61 484 61 c 0
 499 61 524 61 524 31 c 0
 524 0 502 0 474 0 c 0
 436 0 388 1 366 32 c 1x76
 319 1 257 -6 220 -6 c 0
 118 -6 55 59 55 128 c 0xba
124 128 m 0
 124 89 165 55 227 55 c 0
 235 55 280 55 316 72 c 0
 355 90 355 111 355 134 c 2
 355 218 l 1
 210 214 124 177 124 128 c 0
EndSplineSet
EndChar

StartChar: b
Encoding: 98 98 147
Width: 525
Flags: HW
TeX: 610 0
HStem: -6 61<266 314 240 336.5> 0 21<114.5 149> 376 61<269 324> 550 61<45 126 53 97>
VStem: 97 69<41 45 167 191 191 264 388 550 550 550> 419 69<168 259.5>
AnchorPoint: "affricate-below" 525 -222 basechar 0
AnchorPoint: "affricate-above" 525 611 basechar 0
AnchorPoint: "below" 292 0 basechar 0
AnchorPoint: "above" 292 611 basechar 0
LayerCount: 2
Fore
SplineSet
12 580 m 0
 12 611 37 611 53 611 c 2
 126 611 l 2
 160 611 166 601 166 570 c 2
 166 388 l 1x7c
 200 419 245 437 293 437 c 0
 399 437 488 339 488 216 c 0
 488 89 391 -6 282 -6 c 0xbc
 250 -6 207 3 166 45 c 1
 166 20 166 0 132 0 c 0
 97 0 97 21 97 41 c 2
 97 550 l 1
 52 550 l 2
 38 550 12 550 12 580 c 0
166 191 m 2
 166 143 201 55 279 55 c 0
 349 55 419 120 419 216 c 0
 419 303 361 376 287 376 c 0
 224 376 166 323 166 264 c 2
 166 191 l 2
EndSplineSet
EndChar

StartChar: c
Encoding: 99 99 148
Width: 525
Flags: HW
TeX: 430 0
HStem: -6 61<256.5 336 256.5 362.5> 379 61<237.5 315.5>
VStem: 73 69<170.5 240 170.5 260> 365 89<370 374.5>
AnchorPoint: "affricate-below" 525 -222 basechar 0
AnchorPoint: "affricate-above" 525 611 basechar 0
AnchorPoint: "below" 293 0 basechar 0
AnchorPoint: "above" 305 440 basechar 0
LayerCount: 2
Fore
SplineSet
73 216 m 0
 73 304 133 440 305 440 c 0
 350 440 454 440 454 367 c 0
 454 338 433 321 409 321 c 0
 385 321 366 335 365 370 c 0
 365 379 326 379 305 379 c 0
 170 379 142 264 142 216 c 0
 142 125 214 55 299 55 c 0
 373 55 392 102 398 115 c 1
 405 135 415 137 431 137 c 0
 437 137 466 137 466 109 c 0
 466 92 432 -6 293 -6 c 0
 167 -6 73 96 73 216 c 0
EndSplineSet
EndChar

StartChar: d
Encoding: 100 100 149
Width: 525
Flags: HW
TeX: 610 0
HStem: -6 61<200.5 260> 0 61<378 472 427 471> 376 61<210 262.5 186.5 277> 550 61<306 387 314 358>
VStem: 36 69<170.5 263 170.5 278.5> 358 69<32 570 194 265 265 292.5 392 550 550 550>
AnchorPoint: "affricate-below" 525 -222 basechar 0
AnchorPoint: "affricate-above" 525 611 basechar 0
AnchorPoint: "below" 274 0 basechar 0
AnchorPoint: "above" 232 611 basechar 0
LayerCount: 2
Fore
SplineSet
36 215 m 0
 36 342 132 437 241 437 c 0xbc
 284 437 325 421 358 392 c 1
 358 550 l 1
 313 550 l 2
 299 550 273 550 273 580 c 0
 273 611 298 611 314 611 c 2
 387 611 l 2
 421 611 427 601 427 570 c 2
 427 61 l 1
 472 61 l 2
 486 61 512 61 512 31 c 0
 512 0 487 0 471 0 c 2
 398 0 l 2
 358 0 358 14 358 50 c 1x7c
 330 21 288 -6 232 -6 c 0
 126 -6 36 91 36 215 c 0
105 215 m 0
 105 126 165 55 236 55 c 0
 313 55 358 138 358 194 c 2
 358 265 l 2
 358 320 309 376 245 376 c 0
 175 376 105 311 105 215 c 0
EndSplineSet
EndChar

StartChar: e
Encoding: 101 101 150
Width: 525
Flags: HW
TeX: 430 0
HStem: -6 61<254.5 306 254.5 351> 191 60<127 393 127 424 126 393> 379 61<235 296>
VStem: 55 72<251 251 251 278.5> 393 71<251 251>
AnchorPoint: "ogonek" 285 0 basechar 0
AnchorPoint: "affricate-below" 525 -222 basechar 0
AnchorPoint: "affricate-above" 525 611 basechar 0
AnchorPoint: "below" 285 0 basechar 0
AnchorPoint: "above" 270 440 basechar 0
LayerCount: 2
Fore
SplineSet
55 217 m 0
 55 340 151 440 270 440 c 0
 400 440 464 342 464 228 c 0
 464 191 445 191 424 191 c 2
 126 191 l 1
 142 105 217 55 292 55 c 0
 320 55 374 64 396 115 c 1
 403 134 411 137 429 137 c 0
 435 137 464 137 464 109 c 0
 464 84 417 -6 285 -6 c 0
 156 -6 55 95 55 217 c 0
127 251 m 1
 393 251 l 1
 384 354 322 379 270 379 c 0
 200 379 141 324 127 251 c 1
EndSplineSet
EndChar

StartChar: f
Encoding: 102 102 151
Width: 525
Flags: HW
TeX: 610 0
HStem: 0 61<75.5 184 83 184 253 354> 370 61<75.5 184 84 184 84 184 253 375> 556 61<335 349 301 350>
VStem: 184 69<61 370 61 370 431 478> 350 87<554 556>
AnchorPoint: "affricate-below" 525 -222 basechar 0
AnchorPoint: "affricate-above" 525 611 basechar 0
AnchorPoint: "above" 341 611 basechar 0
AnchorPoint: "below" 218 0 basechar 0
LayerCount: 2
Fore
SplineSet
42 31 m 0
 42 61 68 61 83 61 c 2
 184 61 l 1
 184 370 l 1
 83 370 l 2
 68 370 43 370 43 400 c 0
 43 431 68 431 84 431 c 2
 184 431 l 1
 184 484 l 2
 184 571 261 617 341 617 c 0
 357 617 437 617 437 557 c 0
 437 529 414 513 394 513 c 0
 359 513 350 552 350 556 c 1
 320 556 253 556 253 478 c 2
 253 431 l 1
 375 431 l 2
 391 431 415 431 415 400 c 0
 415 370 390 370 375 370 c 2
 253 370 l 1
 253 61 l 1
 354 61 l 2
 369 61 395 61 395 30 c 0
 395 0 369 0 354 0 c 2
 83 0 l 2
 68 0 42 0 42 31 c 0
EndSplineSet
EndChar

StartChar: g
Encoding: 103 103 152
Width: 525
Flags: HW
TeX: 430 222
HStem: -229 60<212 312 212 326> 4 57<211 279.5> 116 60<208.5 259 206 279> 377 60<207 256 186 260>
VStem: 29 58<-104 -76.5> 68 69<255.5 304.5> 329 69<248.5 292 232.5 303.5> 437 58<-104 -63.5 -124.5 -39> 437 72
AnchorPoint: "affricate-below" 525 -222 basechar 0
AnchorPoint: "affricate-above" 525 611 basechar 0
AnchorPoint: "below" 262 -222 basechar 0
AnchorPoint: "above" 232 440 basechar 0
LayerCount: 2
Fore
SplineSet
29 -82 m 0
 29 -71 29 -3 103 42 c 1
 94 54 80 79 80 114 c 0xfb
 80 144 89 166 100 182 c 1
 85 201 68 234 68 277 c 0
 68 362 139 437 233 437 c 0
 279 437 314 418 330 407 c 1
 376 441 425 442 436 442 c 0
 490 442 509 411 509 388 c 0
 509 359 486 347 469 347 c 0
 459 347 436 354 430 381 c 1
 417 380 393 376 372 364 c 1
 389 336 398 307 398 277 c 0
 398 188 325 116 233 116 c 0
 184 116 146 139 143 141 c 1
 139 131 137 117 137 113 c 0
 137 111 138 91 149 77 c 0
 161 63 167 63 182 63 c 1
 190 61 203 61 211 61 c 2
 281 61 l 2
 371 61 413 39 426 32 c 0
 477 5 495 -45 495 -82 c 0
 495 -167 390 -229 262 -229 c 0
 134 -229 29 -168 29 -82 c 0
87 -82 m 0
 87 -126 162 -169 262 -169 c 0
 362 -169 437 -126 437 -82 c 0
 437 4 324 4 235 4 c 0
 162 4 153 4 128 -12 c 0
 96 -32 87 -64 87 -82 c 0
137 276 m 0
 137 223 179 176 233 176 c 0xf680
 285 176 329 220 329 277 c 0
 329 330 287 377 233 377 c 0
 181 377 137 333 137 276 c 0
EndSplineSet
EndChar

StartChar: h
Encoding: 104 104 153
Width: 525
Flags: HW
TeX: 610 0
HStem: 0 61<45 97 53 97 166 210 210 211 319 358 427 471 471 472> 376 61<265.5 317.5> 550 61<45 126 53 97>
VStem: 97 69<61 238 384 550 550 550> 358 69<61 288 288 293 61 318>
AnchorPoint: "affricate-below" 525 -222 basechar 0
AnchorPoint: "affricate-above" 525 611 basechar 0
AnchorPoint: "below" 262 0 basechar 0
AnchorPoint: "above" 262 611 basechar 0
LayerCount: 2
Fore
SplineSet
12 30 m 0
 12 61 37 61 53 61 c 2
 97 61 l 1
 97 550 l 1
 52 550 l 2
 38 550 12 550 12 580 c 0
 12 611 37 611 53 611 c 2
 126 611 l 2
 160 611 166 601 166 570 c 2
 166 384 l 1
 185 403 230 437 297 437 c 0
 376 437 427 394 427 293 c 2
 427 61 l 1
 471 61 l 2
 487 61 512 61 512 30 c 0
 512 0 486 0 472 0 c 2
 319 0 l 2
 305 0 278 0 278 30 c 0
 278 61 303 61 319 61 c 2
 358 61 l 1
 358 288 l 2
 358 348 344 376 291 376 c 0
 240 376 166 338 166 238 c 2
 166 61 l 1
 210 61 l 2
 226 61 251 61 251 30 c 0
 251 0 225 0 211 0 c 2
 52 0 l 2
 38 0 12 0 12 30 c 0
EndSplineSet
EndChar

StartChar: i
Encoding: 105 105 154
Width: 525
Flags: HW
TeX: 610 0
HStem: 0 61<111.5 240 119 240 309 414> 370 61<119.5 269 127 240> 512 100<245 273>
VStem: 209 100<548 576> 240 69<61 370 370 370>
AnchorPoint: "above" 274 592 basechar 0
AnchorPoint: "ogonek" 266 0 basechar 0
AnchorPoint: "affricate-below" 525 -222 basechar 0
AnchorPoint: "affricate-above" 525 611 basechar 0
AnchorPoint: "below" 274 0 basechar 0
LayerCount: 2
Fore
SplineSet
209 562 m 0
 209 590 231 612 259 612 c 0
 287 612 309 590 309 562 c 0xf0
 309 534 287 512 259 512 c 0
 231 512 209 534 209 562 c 0
EndSplineSet
Refer: 74 305 S 1 0 0 1 0 0 3
EndChar

StartChar: j
Encoding: 106 106 155
Width: 525
Flags: HW
TeX: 610 222
HStem: -228 61<177.5 203.5 177.5 259.5> 370 61<161.5 328 170 299> 512 100<304 332>
VStem: 48 89<-154.5 -137.5> 268 100<548 576> 299 69<-39 370 370 370>
AnchorPoint: "affricate-below" 525 -222 basechar 0
AnchorPoint: "affricate-above" 525 611 basechar 0
AnchorPoint: "below" 239 -222 basechar 0
LayerCount: 2
Fore
SplineSet
268 562 m 0
 268 590 290 612 318 612 c 0
 346 612 368 590 368 562 c 0xf8
 368 534 346 512 318 512 c 0
 290 512 268 534 268 562 c 0
EndSplineSet
Refer: 75 567 S 1 0 0 1 0 0 3
EndChar

StartChar: k
Encoding: 107 107 156
Width: 525
Flags: HW
TeX: 610 0
HStem: 0 61<53 110 61 110 166 215 347 349 349 365 436 467> 370 61<283.5 445 291 328 410 410 410 445> 550 61<53 126 61 110>
VStem: 110 56<61 142 218 550 550 550>
AnchorPoint: "affricate-below" 525 -222 basechar 0
AnchorPoint: "affricate-above" 525 611 basechar 0
AnchorPoint: "below" 264 0 basechar 0
AnchorPoint: "above" 264 611 basechar 0
LayerCount: 2
Fore
SplineSet
21 31 m 0
 21 61 46 61 61 61 c 2
 110 61 l 1
 110 550 l 1
 61 550 l 2
 45 550 21 550 21 581 c 0
 21 611 46 611 61 611 c 2
 126 611 l 2
 160 611 166 601 166 570 c 2
 166 218 l 1
 328 370 l 1
 291 370 l 2
 276 370 251 370 251 400 c 0
 251 431 275 431 291 431 c 2
 445 431 l 2
 460 431 486 431 486 400 c 0
 486 370 460 370 445 370 c 2
 410 370 l 1
 287 255 l 1
 436 61 l 1
 467 61 l 2
 482 61 508 61 508 30 c 0
 508 0 482 0 467 0 c 2
 349 0 l 2
 334 0 309 0 309 30 c 0
 309 61 329 61 365 61 c 1
 246 216 l 1
 166 142 l 1
 166 61 l 1
 215 61 l 2
 231 61 255 61 255 30 c 0
 255 0 230 0 215 0 c 2
 61 0 l 2
 45 0 21 0 21 31 c 0
EndSplineSet
EndChar

StartChar: l
Encoding: 108 108 157
Width: 525
Flags: HW
TeX: 610 0
HStem: 0 61<91 228 99 228 297 427> 550 61<91 257 99 228>
VStem: 228 69<61 550 550 550>
AnchorPoint: "affricate-below" 525 -222 basechar 0
AnchorPoint: "affricate-above" 525 611 basechar 0
AnchorPoint: "below" 262 0 basechar 0
AnchorPoint: "above" 262 611 basechar 0
LayerCount: 2
Fore
SplineSet
58 30 m 0
 58 61 83 61 99 61 c 2
 228 61 l 1
 228 550 l 1
 98 550 l 2
 84 550 58 550 58 580 c 0
 58 611 83 611 99 611 c 2
 257 611 l 2
 291 611 297 601 297 570 c 2
 297 61 l 1
 427 61 l 2
 443 61 467 61 467 30 c 0
 467 0 442 0 427 0 c 2
 98 0 l 2
 84 0 58 0 58 30 c 0
EndSplineSet
EndChar

StartChar: m
Encoding: 109 109 158
Width: 525
Flags: HW
TeX: 430 0
HStem: 0 61<13.6826 53 109 155.841 290 336.841 471 517.841> 370 61<6.15893 53> 376 61<159.4 226.9 343 407.9>
VStem: 53 56<61 355.7> 234 56<61 355.7> 415 56<61 354.924>
AnchorPoint: "affricate-below" 525 -222 basechar 0
AnchorPoint: "affricate-above" 525 611 basechar 0
AnchorPoint: "below" 262 0 basechar 0
AnchorPoint: "above" 262 440 basechar 0
LayerCount: 2
Fore
SplineSet
-4 30 m 0
 -4 61 17 61 53 61 c 1
 53 370 l 1
 17 370 -4 370 -4 401 c 0
 -4 431 22 431 37 431 c 2
 69 431 l 2
 87 431 107 431 109 401 c 1xdc
 133 423 169 437 201 437 c 0
 234 437 262 419 277 385 c 1
 305 424 352 437 382 437 c 0
 471 437 471 323 471 303 c 2
 471 61 l 1
 507 61 528 61 528 30 c 0
 528 0 502 0 487 0 c 2
 407 0 l 2
 393 0 366 0 366 30 c 0
 366 61 391 61 415 61 c 1
 415 294 l 2
 415 359 401 376 378 376 c 0
 337 376 290 329 290 240 c 2
 290 61 l 1
 326 61 347 61 347 30 c 0
 347 0 321 0 306 0 c 2
 226 0 l 2
 212 0 185 0 185 30 c 0
 185 61 210 61 234 61 c 1
 234 294 l 2
 234 359 220 376 197 376 c 0xbc
 156 376 109 329 109 240 c 2
 109 61 l 1
 145 61 166 61 166 30 c 0
 166 0 140 0 125 0 c 2
 37 0 l 2
 23 0 -4 0 -4 30 c 0
EndSplineSet
EndChar

StartChar: n
Encoding: 110 110 159
Width: 525
Flags: HW
TeX: 430 0
HStem: 0 61<45 97 53 97 166 210 210 211 319 358 427 471 471 472> 370 61<45 126 53 97> 376 61<265.5 317.5>
VStem: 97 69<61 238 61 370> 358 69<61 288 288 293 61 318>
AnchorPoint: "affricate-below" 525 -222 basechar 0
AnchorPoint: "affricate-above" 525 611 basechar 0
AnchorPoint: "below" 262 0 basechar 0
AnchorPoint: "above" 262 440 basechar 0
LayerCount: 2
Fore
SplineSet
12 30 m 0
 12 61 37 61 53 61 c 2
 97 61 l 1
 97 370 l 1
 52 370 l 2
 38 370 12 370 12 400 c 0
 12 431 37 431 53 431 c 2
 126 431 l 2
 166 431 166 416 166 384 c 1xd8
 185 403 230 437 297 437 c 0
 376 437 427 394 427 293 c 2
 427 61 l 1
 471 61 l 2
 487 61 512 61 512 30 c 0
 512 0 486 0 472 0 c 2
 319 0 l 2
 305 0 278 0 278 30 c 0
 278 61 303 61 319 61 c 2
 358 61 l 1
 358 288 l 2
 358 348 344 376 291 376 c 0xb8
 240 376 166 338 166 238 c 2
 166 61 l 1
 210 61 l 2
 226 61 251 61 251 30 c 0
 251 0 225 0 211 0 c 2
 52 0 l 2
 38 0 12 0 12 30 c 0
EndSplineSet
EndChar

StartChar: o
Encoding: 111 111 160
Width: 525
Flags: HW
TeX: 430 0
HStem: -6 61<225 299 225 317> 379 61<226.5 298>
VStem: 57 69<176.5 268.5 176.5 278.5> 398 69<176.5 268.5>
AnchorPoint: "ogonek" 262 0 basechar 0
AnchorPoint: "affricate-below" 525 -222 basechar 0
AnchorPoint: "affricate-above" 525 611 basechar 0
AnchorPoint: "below" 262 0 basechar 0
AnchorPoint: "above" 262 440 basechar 0
LayerCount: 2
Fore
SplineSet
57 216 m 0
 57 341 150 440 262 440 c 0
 374 440 467 341 467 216 c 0
 467 90 372 -6 262 -6 c 0
 152 -6 57 89 57 216 c 0
126 223 m 0
 126 130 188 55 262 55 c 0
 336 55 398 130 398 223 c 0
 398 314 334 379 262 379 c 0
 191 379 126 314 126 223 c 0
EndSplineSet
EndChar

StartChar: p
Encoding: 112 112 161
Width: 525
Flags: HW
TeX: 430 222
HStem: -222 61<45 97 53 97 166 210 210 211> -6 61<266 314 240 336.5> 370 61<45 126 53 97> 376 61<269 324>
VStem: 97 69<-161 45 167 191 191 264> 419 69<168 259.5>
AnchorPoint: "affricate-below" 525 -222 basechar 0
AnchorPoint: "affricate-above" 525 611 basechar 0
AnchorPoint: "below" 292 -222 basechar 0
AnchorPoint: "above" 292 440 basechar 0
LayerCount: 2
Fore
SplineSet
12 -192 m 0
 12 -161 37 -161 53 -161 c 2
 97 -161 l 1
 97 370 l 1
 52 370 l 2
 38 370 12 370 12 400 c 0
 12 431 37 431 53 431 c 2
 126 431 l 2xec
 164 431 166 417 166 388 c 1
 200 419 245 437 293 437 c 0
 399 437 488 339 488 216 c 0
 488 89 391 -6 282 -6 c 0
 250 -6 207 3 166 45 c 1
 166 -161 l 1
 210 -161 l 2
 226 -161 251 -161 251 -192 c 0
 251 -222 225 -222 211 -222 c 2
 52 -222 l 2
 38 -222 12 -222 12 -192 c 0
166 191 m 2
 166 143 201 55 279 55 c 0
 349 55 419 120 419 216 c 0
 419 303 361 376 287 376 c 0
 224 376 166 323 166 264 c 2xdc
 166 191 l 2
EndSplineSet
EndChar

StartChar: q
Encoding: 113 113 162
Width: 525
Flags: HW
TeX: 430 222
HStem: -222 61<322 379 330 379 448 497> -6 61<211 278> 376 61<219 282.5 198 296.5>
VStem: 40 69<170 261 170 278.5> 379 69<-161 54 54 54 194 233 233 266 382 396 -161 401>
AnchorPoint: "affricate-below" 525 -222 basechar 0
AnchorPoint: "affricate-above" 525 611 basechar 0
AnchorPoint: "below" 244 -222 basechar 0
AnchorPoint: "above" 244 440 basechar 0
LayerCount: 2
Fore
SplineSet
40 215 m 0
 40 342 142 437 254 437 c 0
 311 437 352 411 379 382 c 1
 379 420 379 437 414 437 c 0
 448 437 448 415 448 396 c 2
 448 -161 l 1
 497 -161 l 2
 513 -161 537 -161 537 -192 c 0
 537 -222 512 -222 497 -222 c 2
 330 -222 l 2
 314 -222 290 -222 290 -191 c 0
 290 -161 315 -161 330 -161 c 2
 379 -161 l 1
 379 54 l 1
 358 31 312 -6 244 -6 c 0
 134 -6 40 91 40 215 c 0
109 215 m 0
 109 125 174 55 248 55 c 0
 330 55 379 137 379 194 c 2
 379 233 l 2
 379 299 334 376 259 376 c 0
 179 376 109 307 109 215 c 0
EndSplineSet
EndChar

StartChar: r
Encoding: 114 114 163
Width: 525
Flags: HW
TeX: 430 0
HStem: 0 61<64 153 72 153 222 333> 370 61<64 182 72 153> 376 61<366.5 402>
VStem: 153 69<61 186 356 370 370 370> 400 87
AnchorPoint: "affricate-below" 525 -222 basechar 0
AnchorPoint: "affricate-above" 525 611 basechar 0
AnchorPoint: "below" 202 0 basechar 0
AnchorPoint: "above" 248 440 basechar 0
LayerCount: 2
Fore
SplineSet
32 31 m 0
 32 61 57 61 72 61 c 2
 153 61 l 1
 153 370 l 1
 72 370 l 2
 56 370 32 370 32 401 c 0
 32 431 57 431 72 431 c 2
 182 431 l 2
 216 431 222 421 222 390 c 2xd0
 222 356 l 1
 277 419 341 437 392 437 c 0
 475 437 487 395 487 375 c 0
 487 348 467 332 445 332 c 0
 420 332 403 352 402 376 c 1
 281 376 222 280 222 186 c 2xb8
 222 61 l 1
 333 61 l 2
 348 61 374 61 374 30 c 0
 374 0 348 0 333 0 c 2
 72 0 l 2
 56 0 32 0 32 31 c 0
EndSplineSet
EndChar

StartChar: s
Encoding: 115 115 164
Width: 525
Flags: HW
TeX: 430 0
HStem: -6 61<255 315.5 246.5 348> 379 61<212.5 271.5 178.5 301.5>
VStem: 72 61<302.5 335 302.5 340> 368 61 398 61<106.5 151.5>
AnchorPoint: "affricate-below" 525 -222 basechar 0
AnchorPoint: "affricate-above" 525 611 basechar 0
AnchorPoint: "below" 269 0 basechar 0
AnchorPoint: "above" 262 440 basechar 0
LayerCount: 2
Fore
SplineSet
72 35 m 2
 72 132 l 2
 72 152 72 173 107 173 c 0
 133 173 137 162 142 144 c 0
 167 66 223 55 270 55 c 0
 361 55 398 88 398 125 c 0xe8
 398 178 318 191 269 199 c 0
 177 213 72 230 72 322 c 0
 72 358 95 440 262 440 c 0
 281 440 325 440 369 419 c 1
 371 426 375 440 399 440 c 0
 429 440 429 415 429 399 c 2
 429 330 l 2
 429 310 429 289 394 289 c 0
 363 289 361 306 360 323 c 0
 357 349 343 379 260 379 c 0
 165 379 133 348 133 322 c 0
 133 283 201 271 230 267 c 1
 255 262 275 259 298 255 c 0xf0
 330 250 459 229 459 125 c 0
 459 77 427 -6 269 -6 c 0
 241 -6 188 -4 139 32 c 1
 127 -5 111 -6 102 -6 c 0
 72 -6 72 19 72 35 c 2
EndSplineSet
EndChar

StartChar: t
Encoding: 116 116 165
Width: 525
Flags: HW
TeX: 554 0
HStem: -6 61<260.5 310.5 260.5 331> 370 61<57.5 153 66 153 66 153 222 386> 534 20<170.5 205>
VStem: 153 69<126 132 132 370 431 513> 380 69<127 135 81.5 135.5>
AnchorPoint: "affricate-below" 525 -222 basechar 0
AnchorPoint: "affricate-above" 525 611 basechar 0
AnchorPoint: "below" 259 0 basechar 0
AnchorPoint: "above" 188 554 basechar 0
LayerCount: 2
Fore
SplineSet
25 400 m 0
 25 431 50 431 66 431 c 2
 153 431 l 1
 153 513 l 2
 153 533 153 554 188 554 c 0
 222 554 222 532 222 513 c 2
 222 431 l 1
 386 431 l 2
 402 431 426 431 426 400 c 0
 426 370 401 370 386 370 c 2
 222 370 l 1
 222 132 l 2
 222 107 222 55 299 55 c 0
 322 55 379 65 380 127 c 0
 380 144 381 165 414 165 c 0
 449 165 449 144 449 126 c 0
 449 37 368 -6 294 -6 c 0
 221 -6 153 30 153 126 c 2
 153 370 l 1
 65 370 l 2
 50 370 25 370 25 400 c 0
EndSplineSet
EndChar

StartChar: u
Encoding: 117 117 166
Width: 525
Flags: HW
TeX: 430 0
HStem: -6 61<205.5 259.5> 0 61<389 472 427 471> 370 61<45 126 53 97 314 358>
VStem: 97 69<114 120 120 370 370 370> 358 69<157 370 370 370>
AnchorPoint: "ogonek" 392 0 basechar 0
AnchorPoint: "affricate-below" 525 -222 basechar 0
AnchorPoint: "affricate-above" 525 611 basechar 0
AnchorPoint: "below" 262 0 basechar 0
AnchorPoint: "above" 262 440 basechar 0
LayerCount: 2
Fore
SplineSet
12 400 m 0
 12 431 37 431 53 431 c 2
 126 431 l 2
 160 431 166 421 166 390 c 2
 166 120 l 2
 166 88 166 55 245 55 c 0xb8
 277 55 358 67 358 157 c 2
 358 370 l 1
 313 370 l 2
 299 370 273 370 273 400 c 0
 273 431 298 431 314 431 c 2
 387 431 l 2
 421 431 427 421 427 390 c 2
 427 61 l 1
 472 61 l 2
 486 61 512 61 512 31 c 0
 512 0 487 0 471 0 c 2
 398 0 l 2
 380 0 359 0 358 32 c 1x78
 321 4 280 -6 239 -6 c 0
 166 -6 97 18 97 114 c 2
 97 370 l 1
 52 370 l 2
 38 370 12 370 12 400 c 0
EndSplineSet
EndChar

StartChar: v
Encoding: 118 118 167
Width: 525
Flags: HW
TeX: 430 0
HStem: -4 52<262 262 262 271.5> 370 61<56.5 181 64 94 153 153 153 181 343 371 430 460 430 430>
VStem: 24 476<385 415.5>
AnchorPoint: "affricate-below" 525 -222 basechar 0
AnchorPoint: "affricate-above" 525 611 basechar 0
AnchorPoint: "below" 262 0 basechar 0
AnchorPoint: "above" 262 440 basechar 0
LayerCount: 2
Fore
SplineSet
24 400 m 0
 24 431 48 431 64 431 c 2
 181 431 l 2
 197 431 221 431 221 400 c 0
 221 370 196 370 181 370 c 2
 153 370 l 1
 262 48 l 1
 371 370 l 1
 343 370 l 2
 327 370 303 370 303 401 c 0
 303 431 328 431 343 431 c 2
 460 431 l 2
 476 431 500 431 500 400 c 0
 500 370 475 370 460 370 c 2
 430 370 l 1
 315 29 l 2
 304 -4 281 -4 262 -4 c 0
 241 -4 221 -4 209 30 c 2
 94 370 l 1
 64 370 l 2
 49 370 24 370 24 400 c 0
EndSplineSet
EndChar

StartChar: w
Encoding: 119 119 168
Width: 525
Flags: HW
TeX: 430 0
HStem: -4 21<154 194 347 371.5> 190 69<264 265 264 264> 370 61<58 67 124 124 124 173 351 400 457 466 466 472>
VStem: 16 492<385.5 416>
AnchorPoint: "affricate-below" 525 -222 basechar 0
AnchorPoint: "affricate-above" 525 611 basechar 0
AnchorPoint: "below" 264 0 basechar 0
AnchorPoint: "above" 262 440 basechar 0
LayerCount: 2
Fore
SplineSet
16 401 m 0
 16 431 40 431 58 431 c 2
 173 431 l 2
 192 431 215 431 215 400 c 0
 215 370 191 370 173 370 c 2
 124 370 l 1
 176 72 l 1
 177 72 l 1
 181 92 221 230 224 237 c 0
 235 259 254 259 264 259 c 0
 299 259 302 248 320 185 c 0
 332 144 345 98 349 72 c 1
 350 72 l 1
 400 370 l 1
 351 370 l 2
 332 370 309 370 309 401 c 0
 309 431 333 431 351 431 c 2
 466 431 l 2
 484 431 508 431 508 401 c 0
 508 370 487 370 457 370 c 1
 397 34 l 2
 393 12 390 -4 353 -4 c 0
 341 -4 323 -4 311 13 c 1
 307 21 270 138 265 190 c 1
 264 190 l 1
 261 168 260 154 235 66 c 0
 217 5 214 -4 174 -4 c 0
 134 -4 131 11 127 34 c 2
 67 370 l 1
 37 370 16 370 16 401 c 0
EndSplineSet
EndChar

StartChar: x
Encoding: 120 120 169
Width: 525
Flags: HW
TeX: 430 0
HStem: 0 61<61 108 68 108 173 185 334 338 338 348 415 455> 370 61<67 191 74 114 183 191 191 196 324 333 401 401 401 441>
VStem: 27 469<15 45.5>
AnchorPoint: "affricate-below" 525 -222 basechar 0
AnchorPoint: "affricate-above" 525 611 basechar 0
AnchorPoint: "below" 262 0 basechar 0
AnchorPoint: "above" 262 440 basechar 0
LayerCount: 2
Fore
SplineSet
27 30 m 0
 27 61 53 61 68 61 c 2
 108 61 l 1
 232 222 l 1
 114 370 l 1
 74 370 l 2
 60 370 33 370 33 400 c 0
 33 431 59 431 74 431 c 2
 191 431 l 2
 206 431 231 431 231 401 c 0
 231 370 209 370 183 370 c 1
 259 269 l 1
 333 370 l 1
 306 370 284 370 284 401 c 0
 284 431 309 431 324 431 c 2
 441 431 l 2
 456 431 482 431 482 400 c 0
 482 370 455 370 441 370 c 2
 401 370 l 1
 287 222 l 1
 415 61 l 1
 455 61 l 2
 470 61 496 61 496 30 c 0
 496 0 469 0 455 0 c 2
 338 0 l 2
 323 0 298 0 298 30 c 0
 298 61 320 61 348 61 c 1
 259 184 l 1
 173 61 l 1
 204 61 225 61 225 30 c 0
 225 0 200 0 185 0 c 2
 68 0 l 2
 54 0 27 0 27 30 c 0
EndSplineSet
EndChar

StartChar: y
Encoding: 121 121 170
Width: 525
Flags: HW
TeX: 430 222
HStem: -228 61<126 126> 370 61<58.5 183 66 97 158 158 158 183 343 371 430 460 430 430>
VStem: 43 87<-151.5 -133>
AnchorPoint: "affricate-below" 525 -222 basechar 0
AnchorPoint: "affricate-above" 525 611 basechar 0
AnchorPoint: "below" 263 -222 basechar 0
AnchorPoint: "above" 268 440 basechar 0
LayerCount: 2
Fore
SplineSet
26 400 m 0
 26 431 50 431 66 431 c 2
 183 431 l 2
 199 431 223 431 223 400 c 0
 223 370 198 370 183 370 c 2
 158 370 l 1
 251 130 l 2
 258 111 267 90 272 71 c 1
 273 71 l 1
 280 102 286 120 299 157 c 2
 371 370 l 1
 343 370 l 2
 327 370 303 370 303 401 c 0
 303 431 328 431 343 431 c 2
 460 431 l 2
 476 431 500 431 500 400 c 0
 500 370 475 370 460 370 c 2
 430 370 l 1
 275 -85 l 2
 271 -96 226 -228 126 -228 c 0
 77 -228 43 -188 43 -146 c 0
 43 -120 60 -102 87 -102 c 0
 112 -102 130 -120 130 -145 c 0
 130 -158 125 -166 125 -167 c 1
 140 -166 176 -164 205 -109 c 0
 218 -84 243 -2 243 0 c 0
 243 1 243 3 239 13 c 2
 97 370 l 1
 66 370 l 2
 51 370 26 370 26 400 c 0
EndSplineSet
EndChar

StartChar: z
Encoding: 122 122 171
Width: 525
Flags: HW
TeX: 430 0
HStem: 0 61<137 406 137 453> 370 61<118 367 118 118>
VStem: 49 69<344 370 334 390 334 406.5> 406 69<61 99 33.5 109>
AnchorPoint: "affricate-below" 525 -222 basechar 0
AnchorPoint: "affricate-above" 525 611 basechar 0
AnchorPoint: "below" 254 0 basechar 0
AnchorPoint: "above" 254 440 basechar 0
LayerCount: 2
Fore
SplineSet
33 34 m 0
 33 51 34 54 55 74 c 2
 367 370 l 1
 118 370 l 1
 118 344 l 2
 118 324 118 303 83 303 c 0
 49 303 49 325 49 344 c 2
 49 390 l 2
 49 423 57 431 90 431 c 2
 430 431 l 2
 449 431 471 431 471 397 c 0
 471 380 470 377 449 357 c 2
 137 61 l 1
 406 61 l 1
 406 99 l 2
 406 119 406 140 441 140 c 0
 475 140 475 118 475 99 c 2
 475 41 l 2
 475 26 475 6 453 0 c 1
 74 0 l 2
 55 0 33 0 33 34 c 0
EndSplineSet
EndChar

StartChar: braceleft
Encoding: 123 123 172
Width: 525
Flags: HW
TeX: 694 83
HStem: -83 76<304.156 456.922> 617 77<302.578 455.379>
VStem: 227 70<0.366943 250.148 361.362 610.794>
LayerCount: 2
Fore
SplineSet
56 305 m 0
 56 320 65 332 78 335 c 0
 88 337 214 332 226 389 c 0
 227 396 227 402 227 409 c 2
 227 568 l 2
 227 644 276 693 432 694 c 0
 460 694 467 678 467 664 c 0
 467 612 401 647 329 617 c 0
 298 604 297 585 297 570 c 2
 297 409 l 2
 297 386 298 338 239 306 c 1
 239 305 l 1
 297 273 297 226 297 202 c 2
 297 45 l 2
 297 28 295 8 333 -7 c 0
 401 -33 467 -3 467 -52 c 0
 467 -65 461 -82 434 -83 c 1
 423 -83 l 1
 276 -80 227 -33 227 42 c 2
 227 202 l 2
 227 221 228 242 191 258 c 0
 122 288 56 255 56 305 c 0
EndSplineSet
EndChar

StartChar: bar
Encoding: 124 124 173
Width: 525
Flags: HW
TeX: 694 83
VStem: 227 70<-79.9881 691.104>
LayerCount: 2
Fore
SplineSet
227 -42 m 2
 227 648 l 2
 227 654 227 659 228 665 c 0
 231 679 244 694 262 694 c 0
 270 694 297 690 297 653 c 2
 297 -37 l 2
 297 -43 297 -49 296 -55 c 0
 294 -67 282 -83 262 -83 c 0
 254 -83 227 -78 227 -42 c 2
EndSplineSet
EndChar

StartChar: braceright
Encoding: 125 125 174
Width: 525
Flags: HW
TeX: 694 83
HStem: -83 59<57.0393 198.364> 276 60<327.518 466.027> 632 62<57.3008 203.737>
VStem: 227 70<1.0899 249.153 360.815 610.21>
LayerCount: 2
Fore
SplineSet
56 -52 m 0
 56 -38 63 -28 73 -24 c 0
 87 -18 209 -28 225 23 c 0
 227 30 227 38 227 46 c 2
 227 202 l 2
 227 231 228 275 284 305 c 1
 284 306 l 1
 229 336 227 381 227 403 c 2
 227 565 l 2
 227 591 230 628 92 632 c 0
 86 632 56 631 56 663 c 0
 56 676 62 693 89 694 c 1
 101 694 l 1
 250 691 297 643 297 568 c 2
 297 409 l 2
 297 386 292 340 431 336 c 1
 432 336 l 2
 438 336 467 335 467 306 c 0
 467 291 458 279 445 276 c 0
 434 273 311 278 298 222 c 0
 297 215 297 209 297 202 c 2
 297 43 l 2
 297 -58 206 -82 91 -83 c 0
 62 -83 56 -66 56 -52 c 0
EndSplineSet
EndChar

StartChar: asciitilde
Encoding: 126 126 175
Width: 525
Flags: HW
TeX: 610 0
HStem: 491 67<278.285 377.729> 544 67<147.093 245.168>
LayerCount: 2
Fore
SplineSet
71 522 m 0
 71 541 127 611 191 611 c 0x40
 253 611 291 558 333 558 c 0
 378 558 391 610 420 610 c 0
 435 610 452 596 452 579 c 0
 452 560 396 491 332 491 c 0x80
 266 491 234 544 192 544 c 0x40
 148 544 130 491 103 491 c 0x80
 88 491 71 505 71 522 c 0
EndSplineSet
EndChar

StartChar: uni00AD
Encoding: 173 173 176
Width: 525
Flags: HW
TeX: 430 0
HStem: 185 61<176.091 347.874>
VStem: 175 174<186.739 244.261>
LayerCount: 2
Fore
SplineSet
175 216 m 0
 175 230 182 246 210 246 c 2
 313 246 l 2
 341 246 349 231 349 215 c 0
 349 190 333 185 313 185 c 2
 211 185 l 2
 183 185 175 200 175 216 c 0
EndSplineSet
EndChar

StartChar: Abreve
Encoding: 258 258 177
Width: 525
Flags: HW
TeX: 819 0
HStem: 0 62<28.1226 86 158 213.909 310.091 365 437 494.988> 164 61<196 328> 603 20<238.5 287> 652 64<171.266 334.383>
VStem: 75 63<745.971 817.557> 367 61<747.062 817.88>
DStem2: 86 62 158 62 0.225813 0.974171<16.2586 121.043 183.629 506.371> 437 62 328 225 0.225535 -0.974235<-506.127 -183.384 -120.798 -16.2385>
AnchorPoint: "below" 262 0 basechar 0
AnchorPoint: "above" 262 798 basechar 0
LayerCount: 2
Fore
SplineSet
75 788 m 0
 75 807 88 819 106 819 c 0
 138 819 136 787 138 779 c 0
 146 745 188 717 252 716 c 0
 298 716 361 735 367 786 c 0
 367 788 367 819 398 819 c 0
 410 819 428 812 428 787 c 0
 428 713 354 652 252 652 c 0
 147 652 75 717 75 788 c 0
EndSplineSet
Refer: 114 65 S 1 0 0 1 0 0 3
AlternateSubs2: "Stilistic set 01 subtable" Abreve.vn
AlternateSubs2: "Latin alternatives subtable" Abreve.vn
Substitution2: "Latin Vietnamese substitutions subtable" Abreve.vn
EndChar

StartChar: Aogonek
Encoding: 260 260 178
Width: 525
Flags: HW
TeX: 610 222
HStem: -233 62<372.544 456.639> -0 62<28.1226 86 158 213.909 310.461 355 437 495.64> 164 61<196 328> 603 20G<238.5 287>
VStem: 295 64<-158.472 -62.5423>
DStem2: 86 62 158 62 0.225813 0.974171<16.2586 121.043 183.629 506.371> 437 62 328 225 0.225535 -0.974235<-506.127 -183.384 -120.798 -16.2385>
AnchorPoint: "above" 264 622 basechar 0
LayerCount: 2
Fore
SplineSet
27 31 m 0
 27 57 47 62 64 62 c 2
 86 62 l 1
 207 584 l 2
 214 615 225 623 252 623 c 2
 275 623 l 2
 299 623 311 609 315 589 c 2
 437 62 l 1
 460 62 l 2
 490 62 497 44 497 30 c 0
 497 -4 467 4 449 -6 c 0
 400 -34 359 -74 359 -115 c 0
 359 -146 386 -171 415 -171 c 0
 459 -171 462 -124 490 -124 c 0
 506 -124 522 -138 522 -155 c 0
 522 -176 481 -233 414 -233 c 0
 356 -233 295 -188 295 -115 c 1
 296 -68 323 -31 355 -0 c 1
 344 -0 l 2
 318 0 309 15 309 29 c 0
 309 41 313 62 344 62 c 0
 351 62 358 62 365 62 c 1
 342 164 l 1
 182 164 l 1
 158 62 l 1
 179 62 l 2
 208 62 215 46 215 31 c 0
 215 15 207 0 179 -0 c 2
 63 -0 l 2
 34 0 27 16 27 31 c 0
196 225 m 1
 328 225 l 1
 279 445 265 509 262 541 c 1
 237 411 l 1
 196 225 l 1
EndSplineSet
Ligature2: "Latin ligatures subtable" A uni0328
EndChar

StartChar: Ccaron
Encoding: 268 268 180
Width: 525
Flags: HW
TeX: 819 0
HStem: -11 62<216.184 357.025> 560 62<218.735 351.568> 636 75<285 308.545>
VStem: 40 70<186.602 427.723> 404 80<405.608 506.294> 413 71<108.902 200.523 573 615.216>
AnchorPoint: "below" 282 0 basechar 0
AnchorPoint: "above" 280 784 basechar 0
LayerCount: 2
Fore
SplineSet
141 776 m 0xf0
 141 791 155 804 170 804 c 0
 185 804 194 793 262 732 c 2
 285 711 l 1
 286 711 l 1
 294 719 302 726 368 785 c 0
 380 795 388 804 401 804 c 0
 416 804 430 791 430 775 c 0
 430 762 420 753 415 748 c 0
 297 635 300 636 285 636 c 0
 270 636 273 635 155 748 c 0
 148 755 141 763 141 776 c 0xf0
EndSplineSet
Refer: 116 67 S 1 0 0 1 0 0 3
EndChar

StartChar: Dcaron
Encoding: 270 270 181
Width: 525
Flags: HW
TeX: 819 0
HStem: 0 62<19.4257 81 151 318.921> 549 62<19.2812 81 151 317.125> 636 75<234 258.545>
VStem: 81 70<62 549> 415 70<182.537 423.706>
AnchorPoint: "below" 217 0 basechar 0
AnchorPoint: "above" 217 795 basechar 0
LayerCount: 2
Fore
SplineSet
90 776 m 0
 90 791 104 804 119 804 c 0
 134 804 143 793 211 732 c 2
 234 711 l 1
 235 711 l 1
 243 719 251 726 317 785 c 0
 329 795 337 804 350 804 c 0
 365 804 379 791 379 775 c 0
 379 762 370 753 365 748 c 0
 247 635 250 636 235 636 c 0
 220 636 223 635 105 748 c 0
 98 755 90 763 90 776 c 0
EndSplineSet
Refer: 117 68 S 1 0 0 1 0 0 3
EndChar

StartChar: Ecaron
Encoding: 282 282 182
Width: 525
Flags: HW
TeX: 819 0
HStem: -0 62<26.1387 96 166 433> 286 61<166 297> 549 62<26.2227 96 166 410> 636 21G<242.5 257.5>
VStem: 96 70<62 286 347 549> 297 70<230.504 286 347 402.693> 410 70<456.46 549> 433 70<62 170.685>
AnchorPoint: "below" 264 0 basechar 0
AnchorPoint: "above" 264 795 basechar 0
LayerCount: 2
Fore
SplineSet
105 776 m 0xfc
 105 791 119 804 134 804 c 0
 149 804 158 793 226 732 c 0
 234 725 242 718 250 711 c 1
 258 719 267 726 333 785 c 0
 345 795 353 804 366 804 c 0
 381 804 395 791 395 775 c 0
 395 762 385 753 380 748 c 0
 262 635 265 636 250 636 c 0
 235 636 238 635 120 748 c 0
 113 755 105 763 105 776 c 0xfc
EndSplineSet
Refer: 118 69 S 1 0 0 1 0 -0 3
EndChar

StartChar: Eogonek
Encoding: 280 280 183
Width: 525
Flags: HW
TeX: 610 222
HStem: -233 62<343.819 427.367> 0 62<26.1797 96 166 326 394.893 432> 286 61<166 297> 549 62<26.2227 96 166 410>
VStem: 96 70<62 286 347 549> 266 64<-156.972 -62.1693> 297 70<230.504 286 347 402.693> 410 70<456.46 549> 432 70<62 170.499>
AnchorPoint: "above" 252 622 basechar 0
LayerCount: 2
Fore
SplineSet
25 31 m 0
 25 60 52 62 62 62 c 2
 96 62 l 1
 96 549 l 1
 63 549 l 2
 53 549 25 550 25 580 c 0
 25 594 32 611 60 611 c 2
 445 611 l 2
 480 611 480 587 480 573 c 2
 480 488 l 2
 480 467 468 455 447 455 c 2
 446 455 l 2
 432 455 411 456 410 488 c 1
 410 549 l 1
 166 549 l 1
 166 347 l 1
 297 347 l 1
 297 367 l 2
 297 382 299 404 329 404 c 2
 332 404 l 2
 343 404 367 404 367 367 c 2
 367 265 l 2xfb
 367 247 360 229 334 229 c 2
 330 229 l 2xfc
 297 229 297 255 297 266 c 2
 297 286 l 1
 166 286 l 1
 166 62 l 1
 432 62 l 1
 432 137 l 2
 432 152 437 172 465 172 c 2
 467 172 l 2
 501 172 502 150 502 135 c 2
 502 37 l 2
 502 14 495 0 466 0 c 2xfa80
 441 0 l 2
 416 0 330 -58 330 -114 c 0
 330 -148 360 -171 387 -171 c 0
 432 -171 431 -124 461 -124 c 0
 474 -124 493 -135 493 -154 c 0
 493 -180 449 -233 386 -233 c 0
 327 -233 266 -187 266 -116 c 0xfc80
 266 -67 296 -29 326 0 c 1
 60 0 l 2
 33 0 25 16 25 31 c 0
EndSplineSet
EndChar

StartChar: Gbreve
Encoding: 286 286 184
Width: 525
Flags: HW
TeX: 819 0
HStem: -11 62<203.43 320.586> -0 21G<394.5 430.5> 208 61<296.057 377 449 494.904> 492 130<385.422 447.471> 560 62<208.521 363.604> 652 64<179.862 342.68>
VStem: 37 70<181.315 432.108> 84 63<745.971 817.557> 375 62<747.062 817.664> 379 70<1.39258 41 128.237 208>
LayerCount: 2
Fore
SplineSet
37 306 m 0
 37 474 128 622 265 622 c 0xae40
 336 622 374 606 385 602 c 1
 394 611 403 622 419 622 c 0
 451 622 449 592 449 580 c 2
 449 527 l 2
 449 497 434 492 412 492 c 0x3640
 357 492 411 560 274 560 c 0
 177 560 107 443 107 306 c 0
 107 157 184 51 264 51 c 0xae40
 332 51 368 125 377 208 c 1
 336 208 l 2
 335 208 334 207 332 207 c 0
 319 207 295 209 295 238 c 0
 295 263 312 269 331 269 c 2
 460 269 l 2
 471 269 496 268 496 238 c 0
 496 224 489 208 461 208 c 2
 449 208 l 1
 449 37 l 2
 449 20 447 0 414 -0 c 2x6640
 412 -0 l 2x6640
 377 0 379 32 379 41 c 1
 348 9 308 -11 261 -11 c 0
 136 -11 37 129 37 306 c 0
84 788 m 0
 84 807 97 819 115 819 c 0
 147 819 145 787 147 779 c 0
 155 745 197 717 261 716 c 0
 307 716 369 735 375 786 c 0
 375 788 375 819 406 819 c 0
 423 819 437 808 437 787 c 0
 437 713 362 652 260 652 c 0x2580
 155 652 84 717 84 788 c 0
EndSplineSet
EndChar

StartChar: Lcaron
Encoding: 317 317 186
Width: 525
Flags: HW
TeX: 819 0
HStem: 0 62<31.1879 107 177 418> 549 62<31.0977 107 177 271.865> 583 125<280.055 329.146>
VStem: 107 70<62 549> 265 140<598.232 682.5> 418 70<62 170.712>
LayerCount: 2
Fore
SplineSet
265 645 m 0
 265 677 289 708 327 708 c 0
 373 708 405 668 405 624 c 0
 405 542 331 491 305 491 c 0
 289 491 274 507 274 523 c 0xbc
 274 552 305 543 331 583 c 1
 278 583 265 623 265 645 c 0
EndSplineSet
Refer: 125 76 S 1 0 0 1 -0 0 3
EndChar

StartChar: Lslash
Encoding: 321 321 187
Width: 525
Flags: HW
TeX: 610 0
HStem: -0 62<31.1879 107 177 418> 549 62<31.0977 107 177 271.865>
VStem: 107 70<62 253 315.629 321.827 383 549> 418 70<62 170.712>
DStem2: 107 330 107 253 0.8 0.6<-89.5019 -46.2 87.8 222.999>
LayerCount: 2
Fore
SplineSet
30 31 m 0
 30 59 56 62 66 62 c 2
 107 62 l 1
 107 253 l 1
 80 233 77 231 69 231 c 0
 52 231 38 248 38 263 c 0
 38 274 38 282 107 330 c 1
 107 549 l 1
 67 549 l 2
 55 549 30 551 30 580 c 0
 30 595 37 611 66 611 c 2
 238 611 l 2
 247 611 273 610 273 580 c 0
 273 551 251 549 235 549 c 2
 177 549 l 1
 177 383 l 1
 265 449 273 460 289 460 c 0
 307 460 319 442 319 427 c 0
 319 408 309 405 215 334 c 0
 202 324 190 315 177 306 c 1
 177 62 l 1
 418 62 l 1
 418 137 l 1
 419 170 440 172 451 172 c 2
 456 172 l 2
 482 172 488 155 488 135 c 2
 488 37 l 2
 488 20 487 0 452 -0 c 2
 66 -0 l 2
 47 0 30 6 30 31 c 0
EndSplineSet
EndChar

StartChar: Ncaron
Encoding: 327 327 189
Width: 525
Flags: HW
TeX: 819 0
HStem: 0 62<28.1348 92 149 212.808> 549 62<28.1406 92 310.141 374 431 494.87> 636 21G<254.5 269.5>
VStem: 92 57<62 541> 374 57<70 549>
DStem2: 193 568 149 541 0.341592 -0.939849<10.3459 529.873>
LayerCount: 2
Fore
SplineSet
117 776 m 0
 117 791 131 804 146 804 c 0
 161 804 170 793 238 732 c 0
 246 725 254 718 262 711 c 1
 270 719 279 726 345 785 c 0
 357 795 365 804 378 804 c 0
 393 804 407 791 407 775 c 0
 407 762 397 753 392 748 c 0
 274 635 277 636 262 636 c 0
 247 636 250 635 132 748 c 0
 125 755 117 763 117 776 c 0
EndSplineSet
Refer: 127 78 S 1 0 0 1 0 -0 3
EndChar

StartChar: Eng
Encoding: 330 330 190
Width: 525
Flags: HW
TeX: 610 0
HStem: -11 61<319.578 397.871> -0 62<17.1777 77 147 226.945> 549 62<17.3803 77> 559 70<212.107 350.339>
VStem: 77 70<62 487.951> 238 89<73.4666 139.693> 416 70<67.1198 487.951>
LayerCount: 2
Fore
SplineSet
16 31 m 0
 16 43 21 62 53 62 c 2
 77 62 l 1
 77 549 l 1x6e
 69 549 61 549 53 549 c 0
 21 549 16 569 16 580 c 0
 16 610 41 611 54 611 c 2
 112 611 l 2x6e
 126 611 147 608 147 575 c 1
 182 606 224 629 282 629 c 0
 388 629 486 541 486 401 c 2
 486 136 l 2
 486 43 428 -11 361 -11 c 0
 291 -11 238 43 238 99 c 0
 238 137 268 146 283 146 c 0
 307 146 327 128 327 101 c 0
 327 90 323 83 317 73 c 1
 332 57 347 50 360 50 c 0
 382 50 416 71 416 136 c 2
 416 398 l 2
 416 509 343 559 282 559 c 0x9e
 220 559 147 509 147 398 c 2
 147 62 l 1
 192 62 l 2
 204 62 228 60 228 31 c 0
 228 6 211 0 192 -0 c 2
 52 -0 l 2
 43 0 16 1 16 31 c 0
EndSplineSet
EndChar

StartChar: Ohungarumlaut
Encoding: 336 336 191
Width: 525
Flags: HW
TeX: 778 0
HStem: -11 61<139.425 384.089> 560 62<137.856 385.732>
VStem: 56 70<64.7177 546.444> 398 70<73.8023 546.728>
AnchorPoint: "below" 262 0 basechar 0
AnchorPoint: "above" 262 787 basechar 0
LayerCount: 2
Fore
SplineSet
56 199 m 2
 56 412 l 1
 58 544 65 584 75 597 c 0
 95 621 178 622 258 622 c 0
 362 622 431 620 449 597 c 0
 464 578 466 486 468 412 c 1
 468 199 l 1
 467 121 464 35 451 16 c 0
 437 -5 388 -11 265 -11 c 2
 253 -11 l 2
 155 -11 92 -7 75 13 c 0
 62 28 56 97 56 199 c 2
110 727 m 0
 110 747 128 753 140 757 c 0
 284 806 282 807 293 807 c 0
 313 807 326 792 326 772 c 0
 326 767 326 762 324 756 c 1
 472 806 470 807 481 807 c 0
 498 807 515 792 515 772 c 0
 515 750 498 742 482 736 c 0
 346 690 336 686 330 686 c 0
 310 686 298 707 298 727 c 0
 298 731 298 735 299 738 c 1
 159 690 149 686 142 686 c 0
 117 686 110 719 110 727 c 0
126 215 m 1
 127 188 127 139 131 102 c 0
 136 62 136 50 255 50 c 0
 263 50 271 50 279 50 c 0
 313 50 373 51 386 73 c 0
 395 89 397 177 398 215 c 1
 398 410 l 1
 397 481 395 528 384 542 c 0
 373 555 345 560 273 560 c 2
 251 560 l 2
 133 560 135 546 131 509 c 0
 128 475 126 409 126 357 c 2
 126 215 l 1
EndSplineSet
EndChar

StartChar: Rcaron
Encoding: 344 344 193
Width: 525
Flags: HW
TeX: 819 0
HStem: -11 21<414.5 465> 0 62<20.9922 85 155 219.719> 275 61<155 304.318> 549 62<21.1777 85 155 307.566> 636 75<221 244.545>
VStem: 85 70<62 275 336 549> 336 70<55.515 245.388> 363 70<384.208 500.957> 441 80<54.9034 119.169>
AnchorPoint: "below" 218 0 basechar 0
AnchorPoint: "above" 218 795 basechar 0
LayerCount: 2
Fore
SplineSet
76 775 m 0
 76 791 91 804 106 804 c 0
 121 804 130 793 198 732 c 2
 221 711 l 1
 222 711 l 1
 230 719 238 726 304 785 c 0
 316 795 324 804 337 804 c 0x3c80
 352 804 366 791 366 775 c 0
 366 762 356 753 351 748 c 0
 233 635 236 636 221 636 c 0
 206 636 209 635 91 748 c 0
 86 753 76 762 76 775 c 0
EndSplineSet
Refer: 131 82 S 1 0 0 1 0 -0 3
EndChar

StartChar: Scaron
Encoding: 352 352 195
Width: 525
Flags: HW
TeX: 819 0
HStem: -11 61<184.371 356.095> 560 62<163.604 316.688> 636 21G<254.5 269.5>
VStem: 52 66<-7.939 35 406.623 518.276> 370 75<410.033 508.531> 377 68<575 617.388> 406 66<98.9099 225.102>
AnchorPoint: "below" 284 0 basechar 0
AnchorPoint: "above" 237 784 basechar 0
LayerCount: 2
Fore
SplineSet
117 775 m 0
 117 791 131 804 146 804 c 0
 161 804 170 793 238 732 c 0
 246 725 254 718 262 711 c 1
 270 719 279 726 345 785 c 0
 357 795 365 804 378 804 c 0xf0
 393 804 407 791 407 775 c 0
 407 762 397 753 392 748 c 0
 274 635 277 636 262 636 c 0
 247 636 250 635 132 748 c 0
 127 753 117 762 117 775 c 0
EndSplineSet
Refer: 132 83 S 1 0 0 1 0 0 3
EndChar

StartChar: Scedilla
Encoding: 350 350 196
Width: 525
Flags: HW
TeX: 610 194
HStem: -208 60<167.088 328.419> -67 117<260.425 316.108> -11 21G<70 95.5> 560 62<163.393 316.729>
VStem: 52 66<-7.60254 35 406.664 518.276> 340 70<-133.049 -76.6127> 370 75<410.033 508.109> 377 68<575 617.388> 406 66<97.8514 224.083>
DStem2: 175 378 158 309 0.964731 -0.263237<-46.0061 240.786>
LayerCount: 2
Fore
SplineSet
52 27 m 2
 52 167 l 2
 52 180 52 203 87 203 c 0
 152 203 91 135 168 81 c 0
 200 58 247 50 284 50 c 0
 366 50 406 111 406 162 c 0xd880
 406 213 370 247 339 261 c 0
 314 272 192 295 158 309 c 0
 111 328 52 379 52 458 c 0
 52 549 133 622 237 622 c 0
 301 622 345 601 377 575 c 1
 384 598 389 622 415 622 c 0
 439 622 445 605 445 584 c 2xd9
 445 443 l 2
 445 423 438 407 411 407 c 0
 372 407 378 429 370 461 c 0xda
 350 536 292 560 237 560 c 0
 169 560 118 515 118 462 c 0
 118 412 163 384 175 378 c 0
 206 362 315 344 350 332 c 0
 408 312 472 255 472 165 c 0xd880
 472 95 427 14 318 -9 c 1
 361 -18 410 -49 410 -107 c 0xdc
 410 -204 291 -207 207 -208 c 1
 201 -208 l 2
 176 -208 166 -193 166 -178 c 0
 166 -165 173 -152 187 -148 c 0
 207 -143 340 -158 340 -107 c 0
 340 -97 333 -71 285 -67 c 1xdc
 272 -67 253 -61 253 -34 c 0
 253 -20 258 -12 259 -10 c 1
 196 -5 157 10 120 35 c 1
 114 15 109 -11 82 -11 c 0xbc
 58 -11 52 6 52 27 c 2
EndSplineSet
EndChar

StartChar: Tcaron
Encoding: 356 356 197
Width: 525
Flags: HW
TeX: 819 0
HStem: 0 62<136.276 227 297 388.734> 549 62<96 227 297 428> 636 75<262 285.545>
VStem: 26 70<456.488 549> 227 70<62 549> 428 70<456.34 549>
CounterMasks: 1 1c
AnchorPoint: "below" 262 0 basechar 0
AnchorPoint: "above" 262 795 basechar 0
LayerCount: 2
Fore
SplineSet
117 776 m 0
 117 791 132 804 147 804 c 0
 162 804 171 793 239 732 c 2
 262 711 l 1
 263 711 l 1
 271 719 279 726 345 785 c 0
 357 795 365 804 378 804 c 0
 393 804 407 791 407 775 c 0
 407 762 397 753 392 748 c 0
 274 635 277 636 262 636 c 0
 247 636 250 635 132 748 c 0
 125 755 117 763 117 776 c 0
EndSplineSet
Refer: 133 84 S 1 0 0 1 0 0 3
EndChar

StartChar: Tcommaaccent
Encoding: 354 354 198
Width: 525
Flags: HW
TeX: 610 194
HStem: -208 61<141.091 304.886> 0 62<136.182 227 297 387.778> 549 62<96 227 297 428>
VStem: 26 70<456.488 549> 227 70<-16.7871 0 62 549> 314 71<-132.93 -76.6485> 428 70<456.34 549>
LayerCount: 2
Fore
SplineSet
26 487 m 1
 26 574 l 2
 26 604 41 611 63 611 c 2
 463 611 l 2
 500 611 498 583 498 573 c 2
 498 491 l 2
 498 474 493 455 465 455 c 2
 464 455 l 2
 451 455 429 455 428 488 c 1
 428 549 l 1
 297 549 l 1
 297 62 l 1
 356 62 l 1
 383 61 389 44 389 31 c 0
 389 2 367 0 353 -0 c 2
 297 -0 l 1
 297 -10 l 1
 297 -10 385 -29 385 -107 c 0
 385 -203 268 -208 186 -208 c 2
 174 -208 l 2
 162 -208 140 -205 140 -177 c 0
 140 -163 148 -147 176 -147 c 2
 195 -147 l 1
 263 -146 314 -139 314 -107 c 0
 314 -83 288 -71 267 -68 c 0
 244 -65 227 -68 227 -26 c 2
 227 0 l 1
 209 0 191 0 173 0 c 0
 162 0 135 1 135 31 c 0
 135 46 144 61 168 62 c 1
 227 62 l 1
 227 549 l 1
 96 549 l 1
 96 495 l 2
 96 482 98 455 62 455 c 2
 58 455 l 2
 44 455 27 460 26 487 c 1
EndSplineSet
EndChar

StartChar: Uhungarumlaut
Encoding: 368 368 199
Width: 525
Flags: HW
TeX: 778 0
HStem: -11 62<201.527 320.968> 549 62<4.17578 74 144 213.822 310.059 379 449 518.877> 686 121
VStem: 74 70<116.003 549> 90 216<739.95 754.546> 379 70<115.893 549>
AnchorPoint: "below" 262 0 basechar 0
AnchorPoint: "above" 262 798 basechar 0
LayerCount: 2
Fore
SplineSet
308 727 m 0
 308 754 325 753 469 802 c 0
 476 804 483 807 491 807 c 0
 508 807 525 792 525 772 c 0
 525 750 509 741 493 736 c 0
 357 690 346 686 340 686 c 0xe4
 314 686 308 717 308 727 c 0
EndSplineSet
Refer: 306 -1 S 1 0 0 1 -99 180 2
Refer: 134 85 S 1 0 0 1 0 0 3
EndChar

StartChar: Uring
Encoding: 366 366 200
Width: 525
Flags: HW
TeX: 819 0
HStem: -11 62<201.527 320.968> 549 62<4.17578 74 144 213.822 310.059 379 449 518.877> 590 62<216.437 305.988> 766 61<216.52 306.606>
VStem: 74 70<116.003 549> 145 59<665.292 752.914> 319 59<665.007 752.792> 379 70<115.893 549>
LayerCount: 2
Fore
SplineSet
145 709 m 0
 145 769 192 827 261 827 c 0
 320 827 378 780 378 709 c 0
 378 638 321 590 262 590 c 0
 203 590 145 638 145 709 c 0
204 709 m 0
 204 679 228 652 262 652 c 0
 299 652 319 683 319 709 c 0
 319 734 300 766 262 766 c 0xbf
 228 766 204 738 204 709 c 0
EndSplineSet
Refer: 134 85 S 1 0 0 1 -0 -0 3
EndChar

StartChar: Zcaron
Encoding: 381 381 203
Width: 525
Flags: HW
TeX: 819 0
HStem: -0 62<138 411> 549 62<129 386> 636 75<267 291.545>
VStem: 59 70<456.694 549> 411 70<62 173.73>
DStem2: 56 63 138 62 0.561751 0.827306<45.2363 587.449>
AnchorPoint: "below" 264 0 basechar 0
AnchorPoint: "above" 264 795 basechar 0
LayerCount: 2
Fore
SplineSet
123 776 m 0
 123 791 137 804 152 804 c 0
 167 804 176 793 244 732 c 2
 267 711 l 1
 268 711 l 1
 276 719 284 726 350 785 c 0
 362 795 370 804 383 804 c 0
 398 804 413 791 413 775 c 0
 413 762 403 753 398 748 c 0
 280 635 283 636 268 636 c 0
 253 636 256 635 138 748 c 0
 131 755 123 763 123 776 c 0
EndSplineSet
Refer: 139 90 S 1 0 0 1 0 -0 3
EndChar

StartChar: IJ
Encoding: 306 306 205
Width: 525
Flags: HW
TeX: 610 0
HStem: -11 62<295.512 367.727> 0 62<11.1619 70 140 197.838> 549 62<11.4285 70 140 197.893 312.109 384 454 494.724>
VStem: 10 189<1.57544 60.1675 550.898 609.082> 217 88<73.3282 139.738> 384 70<65.174 549>
LayerCount: 2
Fore
SplineSet
10 31 m 0
 10 43 15 62 47 62 c 2
 70 62 l 1x7c
 70 549 l 1
 47 549 l 2
 36 549 10 550 10 580 c 0
 10 591 15 611 47 611 c 2
 163 611 l 2
 191 611 199 595 199 580 c 0
 199 568 194 549 162 549 c 2
 140 549 l 1
 140 62 l 1
 162 62 l 2
 194 62 199 43 199 31 c 0
 199 16 192 0 163 0 c 2
 46 0 l 2
 17 0 10 16 10 31 c 0
217 99 m 0
 217 131 239 146 261 146 c 0
 283 146 305 129 305 102 c 0
 305 87 300 80 295 73 c 1
 305 60 318 51 334 51 c 0
 362 51 383 86 384 125 c 1
 384 549 l 1xbc
 346 549 l 2
 315 549 311 570 311 580 c 0
 311 591 315 611 346 611 c 2
 461 611 l 2
 489 611 496 594 496 580 c 0
 496 551 473 549 459 549 c 2
 454 549 l 1
 454 139 l 2
 454 18 374 -11 334 -11 c 0
 267 -11 217 45 217 99 c 0
EndSplineSet
Ligature2: "Latin Dutch ligatures subtable" I J
EndChar

StartChar: dcroat
Encoding: 273 273 207
Width: 525
Flags: HW
TeX: 610 0
HStem: -5 61<164.011 315.137 428 509.379> 304 62<167.648 341.102> 427 61<130.984 357 428 510.893> 549 62<274.057 357>
VStem: 35 70<113.881 244.897> 357 71<92.9141 279.487 341 427 488 549>
LayerCount: 2
Fore
SplineSet
35 180 m 0
 35 273 115 366 240 366 c 0
 275 366 314 361 357 341 c 1
 357 427 l 1
 166 427 l 2
 134 427 130 446 130 457 c 0
 130 473 137 488 165 488 c 2
 357 488 l 1
 357 549 l 1
 310 549 l 2
 297 549 273 551 273 580 c 0
 273 593 278 611 308 611 c 2
 391 611 l 2
 421 611 428 598 428 575 c 2
 428 488 l 1
 475 488 l 2
 507 488 512 469 512 457 c 0
 512 428 488 427 475 427 c 2
 428 427 l 1
 428 62 l 1
 474 62 l 2
 485 62 512 60 512 31 c 0
 512 6 495 0 475 0 c 2
 392 0 l 1
 360 1 357 21 357 34 c 1
 336 20 294 -5 230 -5 c 0
 114 -5 35 85 35 180 c 0
105 180 m 0
 105 116 160 56 236 56 c 0
 302 56 357 95 357 137 c 2
 357 246 l 2
 357 262 358 269 344 280 c 0
 330 291 296 304 248 304 c 0
 157 304 105 240 105 180 c 0
EndSplineSet
AlternateSubs2: "Stilistic set 01 subtable" dcroat.vn
AlternateSubs2: "Latin alternatives subtable" dcroat.vn
Substitution2: "Latin Vietnamese substitutions subtable" dcroat.vn
EndChar

StartChar: section
Encoding: 167 167 208
Width: 525
Flags: HW
TeX: 610 222
HStem: -228 62<192.777 341.623> 554 62<183.271 331.631>
VStem: 82 57<152.536 252.325 413.716 512.953> 98 69<-138.976 -66.9072> 357 69<455.643 527.595> 386 56<-124.612 -23.9525 136.288 236.695>
LayerCount: 2
Fore
SplineSet
82 200 m 0
 82 278 142 318 163 330 c 1
 163 331 l 1
 128 352 82 393 82 460 c 0
 82 554 169 616 263 616 c 0
 366 616 426 551 426 491 c 0
 426 466 409 453 391 453 c 0
 377 453 361 462 357 480 c 0
 354 493 359 517 322 539 c 0
 304 550 283 554 262 554 c 0
 193 554 139 512 139 461 c 0xe8
 139 389 257 364 295 350 c 0
 398 312 442 254 442 189 c 0
 442 125 399 79 361 59 c 1
 361 58 l 1
 396 37 442 -5 442 -72 c 0
 442 -166 356 -228 262 -228 c 0
 176 -228 98 -177 98 -103 c 0
 98 -78 116 -64 134 -64 c 0
 148 -64 163 -73 167 -91 c 0xd4
 170 -102 165 -129 202 -151 c 0
 220 -162 242 -166 263 -166 c 0
 332 -166 386 -123 386 -72 c 0
 386 0 267 24 229 38 c 0
 91 89 82 168 82 200 c 0
139 200 m 0
 139 124 279 96 281 96 c 0
 313 96 386 126 386 189 c 0
 386 265 247 292 244 292 c 0xe4
 212 292 139 263 139 200 c 0
EndSplineSet
EndChar

StartChar: abreve
Encoding: 259 259 209
Width: 525
Flags: HW
TeX: 638 0
HStem: -5 61<155.046 323.568> 0 70<426.005 519.314> 218 59<205.11 355> 377 62<170.963 315.117> 498 65<170.363 369.289> 619 20G<115.5 139.5 398.5 424>
VStem: 55 70<84.0976 167.51> 81 89<326.851 375.536> 94 62<581.51 637.557> 355 70<84.1364 218 277 339.9> 381 65<579.202 636.866>
AnchorPoint: "below" 226 0 basechar 0
AnchorPoint: "above" 226 619 basechar 0
LayerCount: 2
Fore
SplineSet
94 608 m 0
 94 627 107 639 124 639 c 0
 155 639 155 608 156 604 c 0
 166 565 246 563 269 563 c 0
 307 563 367 569 381 598 c 0
 385 607 382 639 415 639 c 0
 433 639 446 627 446 608 c 0
 446 564 409 498 270 498 c 0x3ca0
 130 498 94 564 94 608 c 0
EndSplineSet
Refer: 146 97 S 1 0 0 1 0 0 3
AlternateSubs2: "Stilistic set 01 subtable" abreve.vn
AlternateSubs2: "Latin alternatives subtable" abreve.vn
Substitution2: "Latin Vietnamese substitutions subtable" abreve.vn
EndChar

StartChar: aogonek
Encoding: 261 261 210
Width: 525
Flags: HW
TeX: 430 222
HStem: -233 62<373.767 457.58> -5 61<155.58 323.568 426.268 521.38> 217 60<202.955 355> 377 62<170.963 315.117>
VStem: 55 70<83.8212 166.339> 81 89<326.851 375.536> 296 64<-158.167 -61.8274> 355 70<84.1364 217 277 339.9>
AnchorPoint: "above" 224 440 basechar 0
LayerCount: 2
Fore
SplineSet
55 129 m 0xfa
 55 248 239 277 355 277 c 1
 355 282 l 2
 355 330 320 377 231 377 c 2
 229 377 l 2
 208 377 189 376 170 373 c 1
 170 367 l 2
 170 334 146 320 126 320 c 0
 102 320 81 339 81 366 c 0xf5
 81 437 174 439 222 439 c 2
 227 439 l 2
 278 439 324 431 367 398 c 0
 423 355 425 304 425 280 c 2
 425 70 l 1
 443 63 460 62 475 62 c 0
 479 62 483 62 487 62 c 0
 498 62 524 61 524 31 c 0
 524 4 504 0 488 -0 c 2
 472 -0 l 2
 462 0 459 0 445 -8 c 0
 373 -52 360 -93 360 -114 c 0
 360 -148 390 -171 416 -171 c 0
 462 -171 460 -124 491 -124 c 0
 507 -124 524 -136 524 -154 c 0
 524 -175 482 -233 415 -233 c 0
 358 -233 296 -186 296 -116 c 0
 296 -62 334 -14 378 18 c 1
 365 33 l 1
 353 25 307 -5 220 -5 c 0
 113 -5 55 64 55 129 c 0xfa
125 129 m 0xf9
 125 89 169 56 227 56 c 0
 269 56 344 68 353 114 c 0
 354 119 355 124 355 129 c 2
 355 217 l 1
 243 215 125 189 125 129 c 0xf9
EndSplineSet
EndChar

StartChar: cacute
Encoding: 263 263 211
Width: 525
Flags: HW
TeX: 610 0
HStem: -5 61<220.795 366.204> 377 62<221.608 364.154> 619 20G<360.5 374.5>
VStem: 72 70<135.239 298.019> 365 88<326.262 374.06> 394 71<82.4693 135.194>
AnchorPoint: "below" 293 0 basechar 0
AnchorPoint: "above" 305 619 basechar 0
LayerCount: 2
Fore
SplineSet
187 546 m 0
 187 567 206 573 217 578 c 0
 348 635 355 639 366 639 c 0
 383 639 400 625 400 604 c 0
 400 582 382 573 370 568 c 0
 226 505 231 506 221 506 c 0xf0
 199 506 187 532 187 546 c 0
EndSplineSet
Refer: 148 99 S 1 0 0 1 0 -0 3
EndChar

StartChar: ccaron
Encoding: 269 269 212
Width: 525
Flags: HW
TeX: 638 0
HStem: -5 61<220.795 366.204> 377 62<221.608 364.154> 484 78<235.597 298.31> 619 20G<144.5 163.5 371 391.5>
VStem: 72 70<135.239 298.019> 365 88<326.262 374.06> 394 71<82.4693 135.194>
AnchorPoint: "below" 293 0 basechar 0
AnchorPoint: "above" 305 619 basechar 0
LayerCount: 2
Fore
SplineSet
123 610 m 0
 123 626 137 639 152 639 c 0
 175 639 255 562 267 562 c 0xf8
 282 562 359 639 383 639 c 0
 400 639 413 622 413 610 c 0
 413 591 408 592 293 496 c 0
 288 492 279 484 268 484 c 2
 265 484 l 2
 256 484 252 488 143 579 c 0
 134 586 123 595 123 610 c 0
EndSplineSet
Refer: 148 99 S 1 0 0 1 -0 0 3
EndChar

StartChar: dcaron
Encoding: 271 271 213
Width: 525
Flags: HW
TeX: 610 0
HStem: -5 61<147.033 247.802 363 430.699> 374 62<151.287 256.911> 520 125<393.244 443.145> 549 62<223.428 293>
VStem: 26 70<118.746 308.035> 293 70<108.43 335.453 401 549> 378 140<535.232 619.5>
LayerCount: 2
Fore
SplineSet
26 215 m 0
 26 342 108 436 202 436 c 0
 238 436 268 422 293 401 c 1
 293 549 l 1
 259 549 l 2
 248 549 222 550 222 580 c 0
 222 591 227 611 259 611 c 2
 328 611 l 2xde
 361 611 363 591 363 574 c 2
 363 62 l 1
 401 62 l 2
 422 62 433 46 433 30 c 0
 433 0 409 0 396 0 c 2
 336 0 l 2
 310 0 293 2 293 37 c 1
 273 17 239 -5 194 -5 c 0
 98 -5 26 96 26 215 c 0
96 215 m 0
 96 120 147 56 197 56 c 0
 265 56 294 147 293 182 c 1
 293 276 l 2
 293 309 263 374 205 374 c 0
 147 374 96 305 96 215 c 0
378 583 m 0
 378 615 403 645 441 645 c 0
 487 645 518 605 518 561 c 0
 518 479 446 428 420 428 c 0
 404 428 389 442 389 459 c 0xee
 389 488 420 481 444 520 c 1
 391 520 378 561 378 583 c 0
EndSplineSet
EndChar

StartChar: ecaron
Encoding: 283 283 214
Width: 525
Flags: HW
TeX: 638 0
HStem: -5 61<208.485 363.473> 191 61<128 393> 377 62<197.163 342.001> 484 78<237.597 300.31> 619 20G<146.5 165.5 373 393.5>
VStem: 393 71<84.4173 135.089 252 323.612>
AnchorPoint: "below" 285 0 basechar 0
AnchorPoint: "above" 270 619 basechar 0
LayerCount: 2
Fore
SplineSet
125 610 m 0
 125 626 139 639 154 639 c 0
 177 639 257 562 269 562 c 0
 284 562 361 639 385 639 c 0
 402 639 414 622 414 610 c 0
 414 591 410 592 295 496 c 0
 290 492 281 484 270 484 c 2
 266 484 l 2
 257 484 254 488 145 579 c 0
 136 586 125 595 125 610 c 0
EndSplineSet
Refer: 150 101 S 1 0 0 1 -0 -0 3
EndChar

StartChar: eogonek
Encoding: 281 281 215
Width: 525
Flags: HW
TeX: 430 222
HStem: -233 63<277.449 362.724> 191 61<128 393> 377 62<198.071 342.32>
VStem: 201 64<-157.104 -61.4067> 393 71<83.3919 135.108 252 323.612>
AnchorPoint: "above" 271 440 basechar 0
LayerCount: 2
Fore
SplineSet
55 217 m 0
 55 341 154 439 271 439 c 0
 366 439 465 379 465 226 c 0
 465 192 443 191 427 191 c 2
 127 191 l 1
 146 94 230 56 292 56 c 0
 348 56 381 85 393 111 c 0
 401 128 408 137 429 137 c 0
 461 137 464 117 464 110 c 0
 464 95 449 62 418 37 c 0
 370 -2 265 -44 265 -115 c 0
 265 -145 292 -170 321 -170 c 0
 366 -170 367 -124 396 -124 c 0
 409 -124 428 -136 428 -154 c 0
 428 -180 384 -233 321 -233 c 0
 262 -233 201 -188 201 -117 c 0
 201 -94 206 -54 257 -4 c 1
 140 11 55 105 55 217 c 0
128 252 m 1
 393 252 l 1
 382 361 312 377 271 377 c 0
 214 377 149 341 128 252 c 1
EndSplineSet
EndChar

StartChar: lcaron
Encoding: 318 318 218
Width: 525
Flags: HW
TeX: 610 0
HStem: 0 62<58.3747 227 297 465.861> 428 55<355.803 422.921> 520 125<389.125 438> 549 62<58.1619 227>
VStem: 227 70<62 549> 374 139<534.972 619.5>
LayerCount: 2
Fore
SplineSet
354 459 m 0
 354 468 359 478 367 483 c 0
 382 493 408 482 438 520 c 1
 393 520 374 555 374 583 c 0
 374 616 398 645 436 645 c 0
 482 645 513 605 513 561 c 0
 513 478 439 428 387 428 c 0xec
 367 428 354 445 354 459 c 0
EndSplineSet
Refer: 157 108 S 1 0 0 1 0 0 3
EndChar

StartChar: lslash
Encoding: 322 322 219
Width: 525
Flags: HW
TeX: 610 0
HStem: -0 62<58.3747 227 297 465.861> 549 62<58.4229 227>
VStem: 227 70<62 281 411 549>
DStem2: 110 270 227 281 0.79846 0.602048<-25.9797 100.042 234.201 360.223>
AnchorPoint: "above" 202 611 basechar 0
LayerCount: 2
Fore
SplineSet
57 31 m 0
 57 60 82 62 93 62 c 2
 227 62 l 1
 227 281 l 1
 145 219 137 210 122 210 c 0
 105 210 92 227 92 242 c 0
 92 257 103 265 110 270 c 0
 203 340 215 350 227 358 c 1
 227 549 l 1
 91 549 l 1
 63 550 57 569 57 580 c 0
 57 609 83 611 92 611 c 2
 259 611 l 2
 298 611 297 588 297 572 c 2
 297 411 l 1
 379 473 387 482 402 482 c 0
 419 482 432 465 432 450 c 0
 432 432 425 430 334 361 c 1
 297 334 l 1
 297 62 l 1
 430 62 l 2
 441 62 467 61 467 31 c 0
 467 19 462 0 432 -0 c 2
 93 -0 l 2
 62 0 57 20 57 31 c 0
EndSplineSet
EndChar

StartChar: nacute
Encoding: 324 324 220
Width: 525
Flags: HW
TeX: 610 0
HStem: -0 62<12.0566 96 166 249.82 279.096 358 428 511.838> 369 61<12.0938 96 215.228 346.051> 619 20G<352.5 366.5>
VStem: 96 70<62 316.1> 358 70<62 359.259>
LayerCount: 2
Fore
SplineSet
179 546 m 0
 179 567 198 573 209 578 c 0
 340 635 347 639 358 639 c 0
 375 639 392 625 392 604 c 0
 392 582 374 573 362 568 c 0
 218 505 222 506 212 506 c 0
 190 506 179 532 179 546 c 0
EndSplineSet
Refer: 159 110 S 1 0 0 1 0 -0 3
EndChar

StartChar: ncaron
Encoding: 328 328 221
Width: 525
Flags: HW
TeX: 638 0
HStem: -0 62<12.0566 96 166 249.82 279.096 358 428 511.838> 369 61<12.0938 96 215.228 346.051> 484 78<185.729 247.31> 619 20G<93.5 112.5 321 341.5>
VStem: 96 70<62 316.1> 358 70<62 359.259>
LayerCount: 2
Fore
SplineSet
72 610 m 0
 72 626 86 639 101 639 c 0
 124 639 205 562 217 562 c 0
 232 562 309 639 333 639 c 0
 350 639 362 622 362 610 c 0
 362 591 357 592 242 496 c 0
 237 492 228 484 217 484 c 2
 214 484 l 2
 205 484 201 488 92 579 c 0
 83 586 72 595 72 610 c 0
EndSplineSet
Refer: 159 110 S 1 0 0 1 -0 -0 3
EndChar

StartChar: eng
Encoding: 331 331 222
Width: 525
Flags: HW
TeX: 430 222
HStem: -227 120<298.85 353.487> -0 62<12.0566 96 166 249.82> 369 61<12.0938 96 215.035 346.468>
VStem: 96 70<62 316.1> 358 70<-115.935 358.794>
AnchorPoint: "affricate-below" 525 -222 basechar 0
AnchorPoint: "affricate-above" 525 611 basechar 0
AnchorPoint: "below" 262 -222 basechar 0
AnchorPoint: "above" 262 440 basechar 0
LayerCount: 2
Fore
SplineSet
11 31 m 0
 11 60 35 62 48 62 c 0
 64 62 80 62 96 62 c 1
 96 369 l 1
 80 369 65 369 49 369 c 0
 35 369 11 370 11 399 c 0
 11 428 36 430 46 430 c 2
 127 430 l 2
 143 430 166 429 166 396 c 2
 166 383 l 1
 196 410 238 436 298 436 c 0
 402 436 428 366 428 284 c 2
 428 -14 l 1
 425 -120 420 -185 384 -214 c 0
 370 -225 356 -227 349 -227 c 0
 303 -227 278 -186 278 -153 c 0
 278 -122 301 -107 322 -107 c 0
 335 -107 343 -111 354 -118 c 1
 358 -74 358 -27 358 21 c 2
 358 284 l 2
 358 337 351 374 292 374 c 0
 249 374 166 346 166 234 c 2
 166 62 l 1
 214 62 l 2
 224 62 251 60 251 31 c 0
 251 2 225 0 216 -0 c 2
 48 -0 l 2
 38 0 11 0 11 31 c 0
EndSplineSet
EndChar

StartChar: ohungarumlaut
Encoding: 337 337 223
Width: 525
Flags: HW
TeX: 610 0
HStem: -5 61<196.837 326.449> 377 62<194.102 330.409> 568 71<237.387 310 446.387 519>
VStem: 56 70<134.318 305.768> 397 70<131.709 304.737>
AnchorPoint: "below" 262 0 basechar 0
AnchorPoint: "above" 262 619 basechar 0
LayerCount: 2
Fore
SplineSet
100 546 m 0
 100 567 119 573 130 578 c 0
 261 635 268 639 279 639 c 0
 296 639 313 625 313 604 c 0
 313 582 295 573 283 568 c 0
 145 508 144 506 134 506 c 0
 107 506 100 540 100 546 c 0
310 545 m 0
 310 571 316 567 465 632 c 0
 472 635 480 639 488 639 c 0
 505 639 522 625 522 604 c 0
 522 582 504 573 492 568 c 0
 354 508 353 506 343 506 c 0
 324 506 310 526 310 545 c 0
EndSplineSet
Refer: 160 111 S 1 0 0 1 0 -0 3
EndChar

StartChar: racute
Encoding: 341 341 224
Width: 525
Flags: HW
TeX: 610 0
HStem: -0 62<32.1514 152 222 372.628> 369 61<32.0176 152 305.516 403> 619 20G<348.5 362.5>
VStem: 152 70<62 279.736 355 369> 403 84<335.701 374>
AnchorPoint: "below" 202 0 basechar 0
AnchorPoint: "above" 248 622 basechar 0
LayerCount: 2
Fore
SplineSet
176 546 m 0
 176 567 194 573 205 578 c 0
 336 635 343 639 354 639 c 0
 371 639 388 625 388 604 c 0
 388 582 370 573 358 568 c 0
 214 505 219 506 209 506 c 0
 187 506 176 532 176 546 c 0
EndSplineSet
Refer: 163 114 S 1 0 0 1 0 -0 3
EndChar

StartChar: rcaron
Encoding: 345 345 225
Width: 525
Flags: HW
TeX: 638 0
HStem: 0 62<32.1514 152 222 372.628> 369 61<32.0176 152 305.516 403> 484 78<258.729 320.31> 619 20G<166.5 185.5 394 414.5>
VStem: 152 70<62 279.736 355 369> 403 84<335.701 374>
AnchorPoint: "below" 202 0 basechar 0
AnchorPoint: "above" 248 622 basechar 0
LayerCount: 2
Fore
SplineSet
145 610 m 0
 145 626 159 639 174 639 c 0
 197 639 278 562 290 562 c 0
 305 562 382 639 406 639 c 0
 423 639 435 622 435 610 c 0
 435 591 430 592 315 496 c 0
 310 492 301 484 290 484 c 2
 287 484 l 2
 278 484 274 488 165 579 c 0
 156 586 145 595 145 610 c 0
EndSplineSet
Refer: 163 114 S 1 0 0 1 -0 0 3
EndChar

StartChar: sacute
Encoding: 347 347 226
Width: 525
Flags: HW
TeX: 610 0
HStem: -5 61<189.091 372.325> 288 151<369.378 427.277> 377 62<153.074 343.813> 619 20G<342.5 356.5>
VStem: 72 62<-3.51685 32 290.135 357.348> 397 62<79.8796 163.089>
AnchorPoint: "above" 262 619 basechar 0
LayerCount: 2
Fore
SplineSet
72 31 m 2
 72 140 l 2
 72 166 90 172 109 172 c 0
 159 172 129 112 196 73 c 0
 217 61 242 56 271 56 c 0
 312 56 397 59 397 125 c 0
 397 139 391 169 325 187 c 0
 251 208 72 202 72 321 c 0
 72 368 97 439 261 439 c 0xbc
 326 439 355 425 369 418 c 1
 377 433 389 439 399 439 c 0xdc
 407 439 430 435 430 404 c 2
 430 329 l 2
 430 304 420 288 397 288 c 0xdc
 392 288 388 289 382 290 c 0
 335 301 397 377 262 377 c 2
 260 377 l 2
 222 377 134 375 134 321 c 0
 134 259 288 270 367 238 c 0
 401 225 459 193 459 125 c 0
 459 73 432 -5 270 -5 c 0
 209 -5 172 8 139 32 c 1
 130 12 125 -5 102 -5 c 0
 91 -5 72 -1 72 31 c 2
170 546 m 0
 170 567 188 573 199 578 c 0
 330 635 337 639 348 639 c 0
 365 639 382 625 382 604 c 0
 382 582 364 573 352 568 c 0
 208 505 213 506 203 506 c 0x9c
 181 506 170 532 170 546 c 0
EndSplineSet
EndChar

StartChar: scaron
Encoding: 353 353 227
Width: 525
Flags: HW
TeX: 638 0
HStem: -5 61<189.998 372.542> 288 151<369.378 427.277> 377 62<153.074 343.813> 484 78<218.597 281.31> 619 20G<127.5 146.5 354 374.5>
VStem: 72 62<-3.51685 32 290.023 357.348> 397 62<80.0041 163.089>
AnchorPoint: "above" 262 619 basechar 0
LayerCount: 2
Fore
SplineSet
72 31 m 2
 72 140 l 2
 72 166 90 172 109 172 c 0
 159 172 129 112 196 73 c 0
 217 61 242 56 271 56 c 2
 275 56 l 2
 382 56 397 97 397 125 c 0
 397 139 391 169 325 187 c 0
 251 208 72 202 72 321 c 0
 72 368 97 439 261 439 c 0xbe
 326 439 355 425 369 418 c 1
 377 433 389 439 399 439 c 0xde
 407 439 430 435 430 404 c 2
 430 329 l 2
 430 304 420 288 397 288 c 0xde
 392 288 388 289 382 290 c 0
 335 301 397 377 262 377 c 2
 260 377 l 2
 222 377 134 375 134 321 c 0
 134 259 291 268 367 238 c 0
 401 225 459 193 459 125 c 0
 459 73 432 -5 270 -5 c 0
 209 -5 172 8 139 32 c 1
 130 12 125 -5 102 -5 c 0
 91 -5 72 -1 72 31 c 2
106 610 m 0
 106 626 120 639 135 639 c 0
 158 639 238 562 250 562 c 0x9e
 265 562 342 639 366 639 c 0
 383 639 395 622 395 610 c 0
 395 591 391 592 276 496 c 0
 271 492 262 484 251 484 c 2
 247 484 l 2
 238 484 235 488 126 579 c 0
 117 586 106 595 106 610 c 0
EndSplineSet
EndChar

StartChar: scedilla
Encoding: 351 351 228
Width: 525
Flags: HW
TeX: 430 194
HStem: -208 61<133.005 316.186> -5 21G<96.5 113.5> 288 151<369.283 426.683> 377 62<153.074 343.813>
VStem: 72 62<-3.51685 32 290.854 357.51> 328 71<-130.435 -78.1432> 397 62<81.0634 163.871>
LayerCount: 2
Fore
SplineSet
72 31 m 2
 72 140 l 2
 72 166 90 172 109 172 c 0
 116 172 129 171 137 159 c 0
 146 145 154 67 245 57 c 0
 252 56 262 57 279 57 c 0
 381 57 397 98 397 125 c 0
 397 139 391 168 325 187 c 0
 248 208 72 203 72 321 c 0
 72 368 97 439 261 439 c 0xda
 326 439 355 425 369 418 c 1
 375 429 383 439 399 439 c 0
 409 439 429 434 429 404 c 2
 429 328 l 2
 429 297 414 288 396 288 c 0xec
 391 288 387 289 382 290 c 0
 335 301 397 377 262 377 c 2
 260 377 l 2
 221 377 134 375 134 322 c 0
 134 266 269 265 336 248 c 0
 426 225 459 174 459 125 c 0xda
 459 73 431 3 301 -5 c 1
 301 -9 l 1
 349 -19 399 -48 399 -107 c 0
 399 -207 262 -207 181 -208 c 1
 167 -208 l 2
 162 -208 132 -210 132 -177 c 0
 132 -161 141 -148 165 -147 c 0xdc
 172 -147 179 -147 186 -147 c 0
 231 -147 328 -145 328 -107 c 0xdc
 328 -90 310 -70 266 -67 c 0
 230 -65 230 -43 230 -25 c 2
 230 -3 l 1
 201 2 169 9 139 32 c 1
 130 12 125 -5 102 -5 c 0
 91 -5 72 -1 72 31 c 2
EndSplineSet
EndChar

StartChar: tcaron
Encoding: 357 357 229
Width: 525
Flags: HW
TeX: 610 0
HStem: -6 62<235.078 357.996> 369 61<26.1619 152 222 426.032> 433 21G<353.5 382> 525 125<351.144 400.691>
VStem: 152 70<70.6837 369 430 551.666> 336 140<540.232 623.658> 381 69<78.2803 163.115>
LayerCount: 2
Fore
SplineSet
25 400 m 0
 25 415 32 430 61 430 c 2
 152 430 l 1
 152 518 l 2
 152 546 169 553 185 553 c 2
 187 553 l 2
 202 553 222 551 222 518 c 2
 222 430 l 1
 392 430 l 2
 399 430 427 430 427 399 c 0
 427 388 423 369 391 369 c 2
 222 369 l 1
 222 131 l 2
 222 95 227 56 296 56 c 0
 374 56 381 114 381 134 c 0
 381 138 380 141 380 141 c 2
 380 146 389 165 415 165 c 0
 443 165 450 146 450 126 c 0xfa
 450 47 378 -6 294 -6 c 0
 181 -6 152 60 152 131 c 2
 152 369 l 1
 60 369 l 2
 32 369 25 386 25 400 c 0
332 465 m 0
 332 500 365 480 402 525 c 1
 353 525 336 562 336 588 c 0
 336 619 358 650 399 650 c 0
 435 650 476 619 476 566 c 0xfc
 476 484 401 433 363 433 c 0
 344 433 332 453 332 465 c 0
EndSplineSet
EndChar

StartChar: tcommaaccent
Encoding: 355 355 230
Width: 525
Flags: HW
TeX: 554 194
HStem: -208 61<155.278 363.906> 369 61<26.1619 152 222 426.032>
VStem: 152 70<71.7642 369 430 551.208> 378 70<-129.187 -79.1098 75.7988 162.363>
LayerCount: 2
Fore
SplineSet
25 400 m 0
 25 415 32 430 61 430 c 2
 152 430 l 1
 152 518 l 2
 152 531 155 553 187 553 c 2
 188 553 l 2
 216 553 222 538 222 518 c 2
 222 430 l 1
 392 430 l 2
 399 430 427 430 427 399 c 0
 427 388 423 369 391 369 c 2
 222 369 l 1
 222 132 l 2
 222 90 230 57 297 57 c 0
 390 57 379 137 381 145 c 0
 386 159 401 165 415 165 c 0
 454 165 450 128 450 126 c 0
 450 50 389 11 336 -1 c 1
 336 -8 l 1
 440 -24 448 -86 448 -106 c 0
 448 -211 284 -208 200 -208 c 2
 186 -208 l 2
 164 -208 154 -192 154 -177 c 0
 154 -167 158 -147 189 -147 c 2
 205 -147 l 2
 297 -147 378 -138 378 -106 c 0
 378 -91 362 -71 300 -67 c 0
 265 -65 266 -43 266 -25 c 2
 266 -4 l 1
 165 6 152 82 152 130 c 2
 152 369 l 1
 60 369 l 2
 32 369 25 387 25 400 c 0
EndSplineSet
EndChar

StartChar: uhungarumlaut
Encoding: 369 369 231
Width: 525
Flags: HW
TeX: 610 0
HStem: -5 61<174.855 319.616 428 510.379> 369 61<12.1016 96 274.289 358> 568 71<237.387 310 447.387 520>
VStem: 96 70<66.7863 369> 358 70<92.1532 369>
AnchorPoint: "below" 262 0 basechar 0
AnchorPoint: "above" 262 628 basechar 0
LayerCount: 2
Fore
SplineSet
101 546 m 0
 101 567 119 573 130 578 c 0
 261 635 268 639 279 639 c 0
 296 639 313 625 313 604 c 0
 313 582 295 573 283 568 c 0
 145 508 144 506 134 506 c 0
 107 506 101 540 101 546 c 0
311 545 m 0
 311 571 316 567 465 632 c 0
 472 635 481 639 489 639 c 0
 506 639 523 625 523 604 c 0
 523 582 505 573 493 568 c 0
 355 508 354 506 344 506 c 0
 325 506 311 526 311 545 c 0
EndSplineSet
Refer: 166 117 S 1 0 0 1 0 -0 3
EndChar

StartChar: uring
Encoding: 367 367 232
Width: 525
Flags: HW
TeX: 638 0
HStem: -5 61<174.855 319.616 428 510.379> 369 61<12.1016 96 274.289 358> 473 36<225.195 298.249> 612 35<226.192 297.505>
VStem: 96 70<66.7863 369> 155 58<518.067 602.915> 311 59<517.811 603.224> 358 70<92.1532 369>
LayerCount: 2
Fore
SplineSet
155 561 m 0
 155 606 200 647 262 647 c 0
 328 647 370 604 370 560 c 0
 370 515 324 473 262 473 c 0
 210 473 155 507 155 561 c 0
213 560 m 0
 213 534 232 509 262 509 c 0
 291 509 311 534 311 560 c 0
 311 586 292 612 262 612 c 0xf6
 233 612 213 586 213 560 c 0
EndSplineSet
Refer: 166 117 S 1 0 0 1 -0 0 3
EndChar

StartChar: ydieresis
Encoding: 255 255 233
Width: 525
Flags: HW
TeX: 610 222
HStem: -227 61<124 175.724> -227 125<70.2393 122.861> 369 61<26.1797 105.516 158 221.902 303.18 370 430 498.865> 511 100<119.232 199.835 322.871 403.768>
VStem: 42 86<-164.263 -107.55> 110 99<519.701 602.162> 314 99<519.438 601.982>
DStem2: 158 369 113 328 0.36986 -0.929088<0 319.961> 240 -10 281 -67 0.323381 0.946269<-154.899 34.0968 86.0497 400.675>
AnchorPoint: "below" 263 -222 basechar 0
AnchorPoint: "above" 268 600 basechar 0
LayerCount: 2
Fore
SplineSet
110 560 m 0
 110 588 132 611 159 611 c 0
 185 611 209 590 209 561 c 0x36
 209 534 189 511 160 511 c 0
 130 511 110 535 110 560 c 0
314 560 m 0
 314 587 335 611 363 611 c 0
 393 611 413 586 413 561 c 0
 413 533 392 511 363 511 c 0x32
 333 511 314 535 314 560 c 0
EndSplineSet
Refer: 170 121 S 1 0 0 1 0 0 3
EndChar

StartChar: zacute
Encoding: 378 378 234
Width: 525
Flags: HW
TeX: 610 0
HStem: -0 62<138 404> 369 61<118 365> 619 20G<338.5 352.5>
VStem: 48 70<302.767 369> 404 71<62 137.97>
DStem2: 47 68 138 62 0.726253 0.687428<61.9644 437.864>
AnchorPoint: "below" 254 0 basechar 0
AnchorPoint: "above" 254 628 basechar 0
LayerCount: 2
Fore
SplineSet
165 546 m 0
 165 567 184 573 195 578 c 0
 326 635 333 639 344 639 c 0
 361 639 378 625 378 604 c 0
 378 582 360 573 348 568 c 0
 204 505 208 506 198 506 c 0
 176 506 165 532 165 546 c 0
EndSplineSet
Refer: 171 122 S 1 0 0 1 0 -0 3
EndChar

StartChar: zcaron
Encoding: 382 382 235
Width: 525
Flags: HW
TeX: 638 0
HStem: -0 62<138 404> 369 61<118 365> 484 78<227.597 290.31> 619 20G<136.5 155.5 364 384.5>
VStem: 48 70<302.767 369> 404 71<62 137.97>
DStem2: 47 68 138 62 0.726253 0.687428<61.9644 437.864>
AnchorPoint: "below" 254 0 basechar 0
AnchorPoint: "above" 254 628 basechar 0
LayerCount: 2
Fore
SplineSet
115 610 m 0
 115 626 129 639 144 639 c 0
 167 639 247 562 259 562 c 0
 274 562 352 639 376 639 c 0
 393 639 405 622 405 610 c 0
 405 591 400 592 285 496 c 0
 280 492 271 484 260 484 c 2
 257 484 l 2
 248 484 244 488 135 579 c 0
 126 586 115 595 115 610 c 0
EndSplineSet
Refer: 171 122 S 1 0 0 1 -0 -0 3
EndChar

StartChar: ij
Encoding: 307 307 237
Width: 525
Flags: HW
TeX: 610 222
HStem: -227 120<313.5 370.427> -0 62<38.259 143 213 307.716> 369 61<43.8768 143 307.981 396> 511 100<122.232 203.474 374.232 455.474>
VStem: 113 100<520.229 601.768> 143 70<62 369> 288 88<-165.766 -112.812> 365 100<520.229 601.768> 396 70<-165.377 369>
LayerCount: 2
Fore
SplineSet
37 31 m 0
 37 41 41 61 71 62 c 1
 143 62 l 1
 143 369 l 1
 77 369 l 1
 49 370 43 386 43 399 c 0
 43 430 68 430 79 430 c 2
 177 430 l 2
 196 430 213 427 213 395 c 2
 213 62 l 1xf4
 269 62 l 2
 286 62 309 61 309 31 c 0
 309 15 300 0 273 -0 c 2
 73 -0 l 2
 44 0 37 17 37 31 c 0
288 -152 m 0
 288 -122 310 -107 332 -107 c 0
 355 -107 376 -124 376 -151 c 0
 376 -156 375 -161 374 -166 c 1
 394 -153 396 -122 396 -29 c 2
 396 369 l 1xf280
 344 369 l 2
 311 369 307 388 307 400 c 0
 307 413 312 430 342 430 c 2
 430 430 l 2
 466 430 466 407 466 390 c 2
 466 -44 l 2
 466 -112 463 -181 418 -213 c 0
 405 -222 388 -227 372 -227 c 0
 328 -227 288 -196 288 -152 c 0
EndSplineSet
Refer: 405 183 S 1 0 0 1 153 342 2
Refer: 405 183 S 1 0 0 1 -99 342 2
Ligature2: "Latin Dutch ligatures subtable" i j
EndChar

StartChar: exclamdown
Encoding: 161 161 238
Width: 525
Flags: HW
TeX: 388 222
HStem: -233 420<213.608 309.425> 264 125<214.967 307.881>
VStem: 199 125<-217.742 27.8333 279.944 372.789> 211 102<-37.6364 185.343>
LayerCount: 2
Fore
SplineSet
199 -169 m 0xe0
 199 -167 199 -164 200 -146 c 2
 211 152 l 2
 212 167 216 187 244 187 c 2xd0
 278 187 l 2
 315 187 312 157 313 141 c 2xd0
 324 -167 l 1
 324 -218 285 -233 262 -233 c 0
 231 -233 199 -211 199 -169 c 0xe0
EndSplineSet
Refer: 95 46 S 1 0 0 1 0 264 2
EndChar

StartChar: questiondown
Encoding: 191 191 239
Width: 525
Flags: HW
TeX: 388 222
HStem: -228 62<153.344 362.759> 288 100<205.232 286.474>
VStem: 61 70<-143.75 -63.801> 196 100<297.229 378.768> 206 80<64.5584 203.182> 382 80<-145.734 -103.514>
LayerCount: 2
Fore
SplineSet
61 -103 m 0
 61 -43 105 -15 122 -4 c 0
 206 53 206 125 206 149 c 2
 206 165 l 2
 206 183 205 205 244 205 c 2
 249 205 l 2
 267 205 286 203 286 169 c 2xec
 286 148 l 2
 286 11 174 -44 149 -66 c 0
 132 -81 131 -99 131 -103 c 0
 131 -128 149 -166 246 -166 c 0
 335 -166 364 -147 382 -131 c 1
 382 -130 l 1
 377 -123 373 -114 373 -103 c 0
 373 -76 395 -59 418 -59 c 0
 442 -59 462 -77 462 -106 c 0
 462 -155 433 -228 242 -228 c 0
 98 -228 61 -153 61 -103 c 0
EndSplineSet
Refer: 405 183 S 1 0 0 1 -16 119 2
EndChar

StartChar: sterling
Encoding: 163 163 240
Width: 525
Flags: HW
TeX: 610 0
HStem: -5 127<69.052 186.25> -5 64<296.169 420.295> 275 61<109.057 192 262 367.931> 557 62<292.377 382.09>
VStem: 192 70<117.828 275 336 523.709> 402 76<439.452 538.276> 430 71<68.6458 148.171>
LayerCount: 2
Fore
SplineSet
45 52 m 0
 45 94 86 122 139 122 c 0
 155 122 171 120 187 117 c 1
 190 131 192 146 192 164 c 2
 192 275 l 1
 176 275 160 275 144 275 c 0
 130 275 108 277 108 306 c 0
 108 335 132 336 145 336 c 2xba
 192 336 l 1
 192 448 l 2
 192 574 281 619 341 619 c 0
 433 619 478 528 478 461 c 0
 478 423 449 414 434 414 c 0
 407 414 389 436 389 458 c 0
 389 482 402 482 402 495 c 0xbc
 402 507 384 557 340 557 c 0
 309 557 262 526 262 450 c 2
 262 336 l 1
 335 336 l 2
 364 336 369 317 369 305 c 0
 369 291 363 275 335 275 c 2
 262 275 l 1
 262 162 l 2
 262 137 259 117 252 97 c 1
 290 83 348 59 383 59 c 0
 420 59 428 97 430 108 c 0
 432 123 427 150 466 150 c 0
 493 150 501 134 501 118 c 0
 501 71 464 -5 382 -5 c 0x7a
 325 -5 249 29 217 40 c 1
 174 -4 125 -5 115 -5 c 0
 76 -5 45 18 45 52 c 0
EndSplineSet
EndChar

StartChar: Agrave
Encoding: 192 192 241
Width: 525
Flags: HW
TeX: 778 0
HStem: 0 62<28.1226 86 158 213.909 310.091 365 437 494.988> 164 61<196 328> 603 20<238.5 287>
DStem2: 86 62 158 62 0.225813 0.974171<16.2586 121.043 183.629 506.371> 437 62 328 225 0.225535 -0.974235<-506.127 -183.384 -120.798 -16.2385>
AnchorPoint: "below" 262 0 basechar 0
AnchorPoint: "above" 262 786 basechar 0
LayerCount: 2
Fore
SplineSet
115 772 m 0
 115 791 131 807 149 807 c 0
 156 807 157 806 302 757 c 0
 316 752 332 745 332 727 c 0
 332 717 326 686 300 686 c 2
 299 686 l 2
 294 686 290 688 148 736 c 0
 132 742 115 750 115 772 c 0
EndSplineSet
Refer: 114 65 S 1 0 0 1 0 0 3
AlternateSubs2: "Stilistic set 01 subtable" Agrave.vn
AlternateSubs2: "Latin alternatives subtable" Agrave.vn
Substitution2: "Latin Vietnamese substitutions subtable" Agrave.vn
EndChar

StartChar: Acircumflex
Encoding: 194 194 243
Width: 525
Flags: HW
TeX: 819 0
HStem: 0 62<28.1226 86 158 213.909 310.091 365 437 494.988> 164 61<196 328> 603 20<238.5 287>
DStem2: 86 62 158 62 0.225813 0.974171<16.2586 121.043 183.629 506.371> 437 62 328 225 0.225535 -0.974235<-506.127 -183.384 -120.798 -16.2385>
AnchorPoint: "below" 262 0 basechar 0
AnchorPoint: "above" 262 803 basechar 0
LayerCount: 2
Fore
SplineSet
89 697 m 0
 89 709 96 717 110 727 c 0
 242 824 239 824 252 824 c 2
 253 824 l 2
 263 824 265 823 397 726 c 0
 404 721 415 713 415 698 c 0
 415 683 398 659 379 659 c 2
 377 659 l 2
 367 659 364 661 252 751 c 1
 148 669 141 659 125 659 c 0
 106 659 89 683 89 697 c 0
EndSplineSet
Refer: 114 65 S 1 0 0 1 0 0 3
AlternateSubs2: "Stilistic set 01 subtable" Acircumflex.vn
AlternateSubs2: "Latin alternatives subtable" Acircumflex.vn
Substitution2: "Latin Vietnamese substitutions subtable" Acircumflex.vn
EndChar

StartChar: Aring
Encoding: 197 197 246
Width: 525
Flags: HW
TeX: 778 0
HStem: -0 62<28.1226 86 158 213.909 310.091 365 437 494.988> 164 61<196 328> 765 62<210.082 293.676>
VStem: 136 58<641.25 749.338> 310 59<639.972 749.724>
DStem2: 86 62 158 62 0.224999 0.974359<16.1999 120.985 183.57 506.318> 437 62 328 225 0.224041 -0.97458<-506.031 -183.277 -120.691 -16.131>
LayerCount: 2
Fore
SplineSet
27 31 m 0
 27 57 47 62 64 62 c 2
 86 62 l 1
 204 573 l 1
 142 608 136 670 136 694 c 0
 136 762 183 827 252 827 c 0
 320 827 369 763 369 694 c 0
 369 653 352 609 317 584 c 1
 437 62 l 1
 459 62 l 2
 479 62 496 56 496 31 c 0
 496 2 473 0 461 -0 c 2
 345 -0 l 2
 316 0 309 16 309 31 c 0
 309 47 317 62 345 62 c 2
 365 62 l 1
 342 164 l 1
 182 164 l 1
 158 62 l 1
 179 62 l 2
 208 62 215 46 215 31 c 0
 215 15 207 0 179 -0 c 2
 63 -0 l 2
 51 0 27 2 27 31 c 0
194 695 m 0
 194 657 221 624 252 624 c 0
 288 624 310 661 310 695 c 0
 310 739 281 765 251 765 c 0
 223 765 194 738 194 695 c 0
196 225 m 1
 328 225 l 1
 279 445 265 509 262 541 c 1
 237 411 l 1
 196 225 l 1
EndSplineSet
EndChar

StartChar: AE
Encoding: 198 198 247
Width: 525
Flags: HW
TeX: 610 0
HStem: -0 62<23.2656 71 129 172.849 224.428 263 320 443> 183 61<165 263> 286 61<320 473.986> 549 62<130.109 169 227 263 320 434>
VStem: 22 152<1.66113 60.0818> 263 57<62 183 244 286 347 549> 434 57<455.875 549> 443 56<62 170.187>
DStem2: 71 62 129 62 0.197277 0.980348<11.4421 134.799 196.967 496.763>
AnchorPoint: "below" 261 0 basechar 0
AnchorPoint: "above" 292 622 basechar 0
LayerCount: 2
Fore
SplineSet
22 31 m 0
 22 42 27 62 58 62 c 2
 71 62 l 1
 169 549 l 1
 166 549 l 2
 154 549 129 550 129 580 c 0
 129 590 133 611 164 611 c 2
 458 611 l 2
 493 611 491 581 491 574 c 0xfe
 491 546 491 518 491 490 c 1
 492 467 478 455 463 455 c 0
 455 455 435 458 434 488 c 1
 434 549 l 1xfe
 320 549 l 1
 320 347 l 1
 440 347 l 2
 466 347 475 333 475 317 c 0
 475 288 452 286 439 286 c 2
 320 286 l 1
 320 62 l 1
 443 62 l 1
 443 136 l 2
 443 160 457 171 471 171 c 0
 494 171 499 154 499 134 c 2
 499 42 l 2xfd
 499 40 500 38 500 36 c 0
 500 21 497 0 465 -0 c 2
 259 -0 l 2
 234 0 223 14 223 29 c 0
 223 60 249 62 260 62 c 2
 263 62 l 1
 263 183 l 1
 153 183 l 1
 129 62 l 1
 138 62 l 2
 170 62 174 41 174 31 c 0
 174 17 167 0 139 0 c 2
 57 0 l 2
 29 0 22 17 22 31 c 0
165 244 m 1
 263 244 l 1xfc
 263 549 l 1
 227 549 l 1
 165 244 l 1
EndSplineSet
EndChar

StartChar: Ccedilla
Encoding: 199 199 248
Width: 525
Flags: HW
TeX: 610 194
HStem: -208 59<159.055 322.085> 560 62<218.153 351.281>
VStem: 40 70<185.915 427.344> 333 70<-133.324 -76.8761> 413 71<106.623 200.383 401.965 493.832 573 615.004>
AnchorPoint: "above" 281 622 basechar 0
LayerCount: 2
Fore
SplineSet
40 306 m 0
 40 493 156 622 281 622 c 0
 333 622 375 602 410 573 c 1
 425 607 433 622 454 622 c 0
 486 622 484 590 484 582 c 2
 484 441 l 2
 484 426 486 400 450 400 c 0
 413 400 415 424 412 440 c 0
 402 493 360 560 285 560 c 0
 201 560 110 460 110 306 c 0
 110 151 199 51 286 51 c 0
 349 51 408 97 413 167 c 0
 414 178 416 202 447 202 c 2
 451 202 l 2
 468 202 484 195 484 167 c 0
 484 99 425 6 313 -9 c 1
 313 -10 l 1
 354 -19 403 -50 403 -107 c 0
 403 -140 386 -166 360 -182 c 0
 320 -206 262 -208 201 -208 c 2
 195 -208 l 2
 176 -208 158 -202 158 -177 c 0
 158 -163 167 -153 178 -149 c 0
 195 -144 333 -155 333 -108 c 0
 333 -67 271 -67 263 -64 c 0
 252 -59 246 -47 246 -34 c 0
 246 -26 248 -17 253 -9 c 1
 135 10 40 137 40 306 c 0
EndSplineSet
EndChar

StartChar: Ecircumflex
Encoding: 202 202 251
Width: 525
Flags: HW
TeX: 819 0
HStem: 0 62<26.1387 96 166 433> 286 61<166 297> 549 62<26.2227 96 166 410>
VStem: 96 70<62 286 347 549> 297 70<230.504 286 347 402.693> 410 70<456.46 549> 433 70<62 170.685>
AnchorPoint: "below" 264 0 basechar 0
AnchorPoint: "above" 264 815 basechar 0
LayerCount: 2
Fore
SplineSet
99 697 m 0
 99 709 106 717 120 727 c 0
 252 824 249 824 262 824 c 2
 263 824 l 2
 273 824 275 823 407 726 c 0
 414 721 425 713 425 698 c 0
 425 683 408 659 389 659 c 0
 374 659 351 679 262 751 c 1
 153 665 150 659 135 659 c 0xf8
 116 659 99 683 99 697 c 0
EndSplineSet
Refer: 118 69 S 1 0 0 1 0 0 3
AlternateSubs2: "Stilistic set 01 subtable" Ecircumflex.vn
AlternateSubs2: "Latin alternatives subtable" Ecircumflex.vn
Substitution2: "Latin Vietnamese substitutions subtable" Ecircumflex.vn
EndChar

StartChar: Icircumflex
Encoding: 206 206 255
Width: 525
Flags: HW
TeX: 819 0
HStem: -0 62<79.4312 227 297 443.928> 549 62<79.2573 227 297 443.826> 751 73<234.245 286.309>
VStem: 227 70<62 549>
AnchorPoint: "below" 262 0 basechar 0
AnchorPoint: "above" 262 815 basechar 0
LayerCount: 2
Fore
SplineSet
99 697 m 0
 99 709 105 717 119 727 c 0
 251 824 249 824 262 824 c 2
 263 824 l 2
 273 824 274 823 406 726 c 0
 413 721 425 713 425 698 c 0
 425 683 408 659 389 659 c 2
 387 659 l 2
 377 659 374 661 262 751 c 1
 261 751 l 1
 157 669 151 659 135 659 c 0
 116 659 99 683 99 697 c 0
EndSplineSet
Refer: 122 73 S 1 0 0 1 0 -0 3
EndChar

StartChar: Eth
Encoding: 208 208 257
Width: 525
Flags: HW
TeX: 610 0
HStem: -0 62<19.4257 81 151 318.921> 269 62<19.0234 81 151 297.716> 549 62<19.2812 81 151 317.125>
VStem: 81 70<62 269 331 549> 415 70<182.537 423.706>
LayerCount: 2
Fore
SplineSet
18 30 m 0
 18 60 44 62 54 62 c 0
 63 62 72 62 81 62 c 1
 81 269 l 1
 55 269 l 2
 35 269 18 275 18 300 c 0
 18 325 36 331 56 331 c 2
 81 331 l 1
 81 549 l 1
 56 549 l 2
 35 549 18 555 18 580 c 0
 18 591 23 611 55 611 c 2
 266 611 l 2
 397 611 485 465 485 301 c 0
 485 138 394 0 269 -0 c 2
 52 -0 l 2
 25 0 18 18 18 30 c 0
151 62 m 1
 245 62 l 2
 367 62 415 198 415 300 c 0
 415 433 349 549 249 549 c 2
 151 549 l 1
 151 331 l 1
 263 331 l 2
 295 331 299 310 299 300 c 0
 299 271 276 269 259 269 c 2
 151 269 l 1
 151 62 l 1
EndSplineSet
EndChar

StartChar: Ograve
Encoding: 210 210 259
Width: 525
Flags: HW
TeX: 778 0
HStem: -11 61<139.425 384.089> 560 62<137.856 385.732> 787 20<155 169.5>
VStem: 56 70<64.7177 546.444> 132 216<739.496 754.199> 398 70<73.8023 546.728>
AnchorPoint: "below" 262 0 basechar 0
AnchorPoint: "above" 262 787 basechar 0
LayerCount: 2
Fore
SplineSet
56 199 m 2
 56 412 l 1
 58 544 65 584 75 597 c 0
 95 621 178 622 258 622 c 0
 362 622 431 620 449 597 c 0
 464 578 466 486 468 412 c 1
 468 199 l 1
 467 121 464 35 451 16 c 0
 437 -5 388 -11 265 -11 c 2
 253 -11 l 2
 155 -11 92 -7 75 13 c 0
 62 28 56 97 56 199 c 2
126 215 m 1
 127 188 127 139 131 102 c 0
 136 62 136 50 255 50 c 0
 263 50 271 50 279 50 c 0
 313 50 373 51 386 73 c 0
 395 89 397 177 398 215 c 1
 398 410 l 1
 397 481 395 528 384 542 c 0
 373 555 345 560 273 560 c 2
 251 560 l 2
 133 560 135 546 131 509 c 0
 128 475 126 409 126 357 c 2
 126 215 l 1
EndSplineSet
Refer: 305 -1 S 1 0 0 1 13 180 2
AlternateSubs2: "Stilistic set 01 subtable" Ograve.vn
AlternateSubs2: "Latin alternatives subtable" Ograve.vn
Substitution2: "Latin Vietnamese substitutions subtable" Ograve.vn
EndChar

StartChar: Oacute
Encoding: 211 211 260
Width: 525
Flags: HW
TeX: 778 0
HStem: -11 61<139.425 384.089> 560 62<137.856 385.732> 686 121
VStem: 56 70<64.7177 546.444> 176 216<739.95 754.546> 398 70<73.8023 546.728>
AnchorPoint: "below" 262 0 basechar 0
AnchorPoint: "above" 262 787 basechar 0
LayerCount: 2
Fore
SplineSet
56 199 m 2
 56 412 l 1
 58 544 65 584 75 597 c 0
 95 621 178 622 258 622 c 0
 362 622 431 620 449 597 c 0
 464 578 466 486 468 412 c 1
 468 199 l 1
 467 121 464 35 451 16 c 0
 437 -5 388 -11 265 -11 c 2
 253 -11 l 2
 155 -11 92 -7 75 13 c 0
 62 28 56 97 56 199 c 2
126 215 m 1
 127 188 127 139 131 102 c 0
 136 62 136 50 255 50 c 0
 263 50 271 50 279 50 c 0
 313 50 373 51 386 73 c 0
 395 89 397 177 398 215 c 1
 398 410 l 1
 397 481 395 528 384 542 c 0
 373 555 346 560 274 560 c 2
 251 560 l 2
 133 560 135 546 131 509 c 0
 128 475 126 409 126 357 c 2
 126 215 l 1
EndSplineSet
Refer: 306 -1 S 1 0 0 1 -13 180 2
AlternateSubs2: "Stilistic set 01 subtable" Oacute.vn
AlternateSubs2: "Latin alternatives subtable" Oacute.vn
Substitution2: "Latin Vietnamese substitutions subtable" Oacute.vn
EndChar

StartChar: Ocircumflex
Encoding: 212 212 261
Width: 525
Flags: HW
TeX: 819 0
HStem: -11 61<166.86 357.944> 561 61<162.755 357.679> 751 73<235.625 287.309>
VStem: 56 70<96.9378 520.499> 398 70<95.9093 519.373>
AnchorPoint: "below" 262 0 basechar 0
AnchorPoint: "above" 262 804 basechar 0
LayerCount: 2
Fore
SplineSet
99 697 m 0
 99 709 106 717 120 727 c 0
 252 824 249 824 262 824 c 2
 264 824 l 2
 274 824 275 823 407 726 c 0
 414 721 425 713 425 698 c 0
 425 683 408 659 389 659 c 2
 388 659 l 2
 378 659 375 661 263 751 c 1
 262 751 l 1
 158 669 151 659 135 659 c 0
 116 659 99 683 99 697 c 0
EndSplineSet
Refer: 128 79 S 1 0 0 1 0 0 3
AlternateSubs2: "Stilistic set 01 subtable" Ocircumflex.vn
AlternateSubs2: "Latin alternatives subtable" Ocircumflex.vn
Substitution2: "Latin Vietnamese substitutions subtable" Ocircumflex.vn
EndChar

StartChar: OE
Encoding: 338 338 264
Width: 525
Flags: HW
TeX: 610 0
HStem: -11 61<119.944 247.377> -0 62<319 446> 286 62<319 478.666> 549 62<319 439> 560 62<119.06 247.607>
VStem: 29 57<108.792 521.024> 262 57<63.3488 286 348 547.396> 439 56<455.696 549> 446 57<62 170.171>
AnchorPoint: "above" 290 622 basechar 0
LayerCount: 2
Fore
SplineSet
29 328 m 1
 29 355 l 1
 35 577 43 622 197 622 c 0xae80
 235 622 263 611 292 611 c 2
 460 611 l 2
 473 611 495 609 495 575 c 2
 495 491 l 2
 495 459 475 455 467 455 c 0
 458 455 439 459 439 490 c 2
 439 549 l 1
 319 549 l 1x37
 319 348 l 1
 445 348 l 2
 473 348 480 331 480 316 c 0
 480 286 457 286 438 286 c 2
 319 286 l 1
 319 62 l 1
 446 62 l 1
 446 135 l 2
 446 166 464 171 475 171 c 0
 483 171 503 168 503 136 c 2
 503 37 l 2
 503 1 482 0 467 -0 c 2
 302 -0 l 2x7680
 252 0 241 -11 197 -11 c 0
 31 -11 30 43 29 328 c 1
86 311 m 2
 86 122 97 88 125 68 c 0
 147 53 177 50 200 50 c 0
 256 50 259 88 262 161 c 1
 262 446 l 1
 260 535 251 560 198 560 c 0
 87 560 86 505 86 335 c 2xae
 86 311 l 2
EndSplineSet
EndChar

StartChar: Oslash
Encoding: 216 216 265
Width: 525
Flags: HW
TeX: 666 55
HStem: -11 61<213 370.131> 560 62<154.748 311>
VStem: 56 57<96.1446 513.525> 411 57<97.0315 516.084>
DStem2: 133 4 193 -9 0.306009 0.952029<-60.8765 3.49451 70.2121 582.811 649.008 713.946>
LayerCount: 2
Fore
SplineSet
56 274 m 1
 56 325 l 2
 56 595 84 622 257 622 c 0
 281 622 307 622 331 620 c 1
 349 674 351 695 376 695 c 0
 392 695 408 684 408 666 c 0
 408 656 402 644 391 607 c 1
 453 579 465 527 468 337 c 1
 468 286 l 2
 468 15 439 -11 267 -11 c 0
 242 -11 218 -11 193 -9 c 1
 176 -69 170 -84 148 -84 c 0
 137 -84 116 -76 116 -55 c 0
 116 -44 123 -29 133 4 c 1
 67 33 58 98 56 274 c 1
113 265 m 1
 115 179 115 101 154 71 c 1
 311 559 l 1
 295 561 278 560 262 560 c 2
 257 560 l 2
 128 560 113 533 113 311 c 2
 113 265 l 1
213 52 m 1
 229 50 246 50 262 50 c 2
 267 50 l 2
 398 50 411 79 411 303 c 2
 411 308 l 2
 411 486 398 514 371 540 c 1
 370 540 l 1
 213 52 l 1
EndSplineSet
EndChar

StartChar: Ucircumflex
Encoding: 219 219 268
Width: 525
Flags: HW
TeX: 819 0
HStem: -11 62<201.527 320.968> 549 62<4.17578 74 144 213.822 310.059 379 449 518.877> 751 73<237.173 288.75>
VStem: 74 70<116.003 549> 379 70<115.893 549>
AnchorPoint: "below" 262 0 basechar 0
AnchorPoint: "above" 262 815 basechar 0
LayerCount: 2
Fore
SplineSet
99 697 m 0
 99 713 112 722 119 727 c 0
 252 823 249 824 262 824 c 2
 263 824 l 2
 273 824 274 823 406 726 c 0
 413 721 425 713 425 698 c 0
 425 683 408 659 389 659 c 0
 374 659 351 680 262 751 c 1
 261 751 l 1
 151 664 151 659 135 659 c 0
 116 659 99 683 99 697 c 0
EndSplineSet
Refer: 134 85 S 1 0 0 1 0 0 3
EndChar

StartChar: Udieresis
Encoding: 220 220 269
Width: 525
Flags: HW
TeX: 819 0
HStem: -11 62<201.527 320.968> 549 62<4.17578 74 144 213.822 310.059 379 449 518.877> 719 100<117.965 199.824 322.648 404.035>
VStem: 74 70<116.003 549> 109 100<728.396 810.162> 314 99<727.838 810.162> 379 70<115.893 549>
AnchorPoint: "below" 262 0 basechar 0
AnchorPoint: "above" 262 810 basechar 0
LayerCount: 2
Fore
SplineSet
314 769 m 0
 314 798 337 819 363 819 c 0
 389 819 413 798 413 769 c 0
 413 740 390 719 364 719 c 0xe4
 334 719 314 743 314 769 c 0
EndSplineSet
Refer: 60 729 S 1 0 0 1 -128 208 2
Refer: 134 85 S 1 0 0 1 -0 0 3
EndChar

StartChar: Thorn
Encoding: 222 222 271
Width: 525
Flags: HW
TeX: 610 0
HStem: 0 62<31.1367 107 177 252.902> 159 61<177 351.122> 445 62<177 357.055> 549 62<31.0957 107 177 252.863>
VStem: 107 70<62 159 220 445 507 549> 406 70<272.242 395.765>
LayerCount: 2
Fore
SplineSet
30 31 m 0
 30 59 56 62 66 62 c 2
 107 62 l 1
 107 549 l 1
 66 549 l 2
 55 549 30 551 30 580 c 0
 30 605 47 611 66 611 c 2
 218 611 l 2
 228 611 254 610 254 580 c 0
 254 551 230 549 219 549 c 0
 205 549 191 549 177 549 c 1
 177 507 l 1
 296 507 l 2
 404 507 476 423 476 333 c 0
 476 264 428 159 286 159 c 2
 177 159 l 1
 177 62 l 1
 217 62 l 2
 229 62 254 61 254 31 c 0
 254 6 237 0 218 0 c 2
 66 0 l 2
 56 0 30 1 30 31 c 0
177 220 m 1
 264 220 l 2
 373 220 406 290 406 333 c 0
 406 378 372 445 280 445 c 2
 177 445 l 1
 177 220 l 1
EndSplineSet
EndChar

StartChar: Germandbls
Encoding: 61699 61699 272
Width: 525
Flags: HW
TeX: 610 0
HStem: -11 62<114.748 149.419 376.995 411.42> 602 20G<81.5 122.5 174.5 197 342 385.5 436.5 459>
VStem: 35 72<56.9241 201.128> 35 65<359.124 557.356> 134 76<410.274 559.673> 162 66<52.3558 276.989> 297 72<56.5166 200.968> 297 65<359.124 557.315> 396 76<410.274 559.673> 424 66<52.3558 275.783>
LayerCount: 2
Fore
SplineSet
35 27 m 2xd4
 35 170 l 1
 36 202 59 203 70 203 c 2
 73 203 l 2
 107 203 107 170 107 135 c 0
 107 97 107 57 144 51 c 1
 155 80 161 104 162 153 c 1
 162 172 l 2xe4
 162 188 163 205 163 221 c 0
 163 272 152 273 127 282 c 0
 83 298 38 304 35 408 c 1
 35 452 l 2
 35 515 48 622 115 622 c 0
 130 622 141 619 155 612 c 1
 156 612 l 1
 162 617 169 622 180 622 c 0
 214 622 210 584 210 583 c 2
 210 448 l 2
 210 432 212 407 175 407 c 0
 127 407 145 444 134 517 c 0xd8
 129 548 123 553 118 560 c 1
 103 524 100 490 100 415 c 0
 100 358 113 361 154 347 c 0
 199 331 228 306 228 221 c 0xd4
 228 211 228 201 228 191 c 2
 227 177 l 1
 227 157 l 1
 226 119 220 -11 146 -11 c 0
 124 -11 111 -6 92 4 c 1
 89 0 81 -11 65 -11 c 0
 31 -11 35 24 35 27 c 2xd4
297 27 m 2xc140
 297 170 l 1
 298 202 321 203 332 203 c 2
 335 203 l 2
 367 203 369 174 369 140 c 2
 369 127 l 2
 369 92 371 57 406 51 c 1
 417 80 423 104 424 153 c 1
 424 172 l 2xc240
 424 188 426 205 426 221 c 0
 426 270 416 273 390 282 c 0
 346 298 300 304 297 408 c 1
 297 452 l 2
 297 497 306 622 378 622 c 0
 393 622 403 619 417 612 c 1
 418 612 l 1
 424 617 431 622 442 622 c 0
 476 622 472 584 472 583 c 2
 472 448 l 2
 472 432 474 407 437 407 c 0
 389 407 407 444 396 517 c 0xc180
 391 548 385 553 380 560 c 1
 365 524 362 490 362 415 c 0
 362 358 375 361 416 347 c 0
 445 337 490 322 490 221 c 2xc140
 490 157 l 1
 489 120 482 -11 408 -11 c 0
 386 -11 374 -6 355 4 c 1
 352 0 344 -11 328 -11 c 0
 294 -11 297 24 297 27 c 2xc140
EndSplineSet
EndChar

StartChar: aacute
Encoding: 225 225 274
Width: 525
Flags: HW
TeX: 610 0
HStem: -5 61<155.046 323.568> 0 70<426.005 519.314> 218 59<205.11 355> 377 62<170.963 315.117> 619 20G<322.5 336.5>
VStem: 55 70<84.0976 167.51> 81 89<326.851 375.536> 355 70<84.1364 218 277 339.9>
AnchorPoint: "below" 226 0 basechar 0
AnchorPoint: "above" 226 619 basechar 0
LayerCount: 2
Fore
SplineSet
150 546 m 0
 150 567 168 573 179 578 c 0
 310 635 317 639 328 639 c 0
 345 639 362 625 362 604 c 0
 362 582 344 573 332 568 c 0
 188 505 193 506 183 506 c 0x39
 161 506 150 532 150 546 c 0
EndSplineSet
Refer: 146 97 S 1 0 0 1 0 -0 3
AlternateSubs2: "Stilistic set 01 subtable" aacute.vn
AlternateSubs2: "Latin alternatives subtable" aacute.vn
Substitution2: "Latin Vietnamese substitutions subtable" aacute.vn
EndChar

StartChar: acircumflex
Encoding: 226 226 275
Width: 525
Flags: HW
TeX: 638 0
HStem: -5 61<155.046 323.568> 0 70<426.005 519.314> 218 59<205.11 355> 377 62<170.963 315.117> 568 76<205.715 275.598>
VStem: 55 70<84.0976 167.51> 81 89<326.851 375.536> 355 70<84.1364 218 277 339.9>
AnchorPoint: "below" 226 0 basechar 0
AnchorPoint: "above" 226 624 basechar 0
LayerCount: 2
Fore
SplineSet
77 526 m 0
 77 542 89 550 100 557 c 0
 225 640 228 644 240 644 c 2
 241 644 l 2
 251 644 252 642 380 557 c 0
 388 552 403 544 403 526 c 0
 403 514 388 488 368 488 c 2
 366 488 l 2x39
 345 488 255 568 240 568 c 0
 233 568 227 562 209 549 c 0
 138 498 126 488 112 488 c 0
 91 488 77 515 77 526 c 0
EndSplineSet
Refer: 146 97 S 1 0 0 1 0 -0 3
AlternateSubs2: "Stilistic set 01 subtable" acircumflex.vn
AlternateSubs2: "Latin alternatives subtable" acircumflex.vn
Substitution2: "Latin Vietnamese substitutions subtable" acircumflex.vn
EndChar

StartChar: atilde
Encoding: 227 227 276
Width: 525
Flags: HW
TeX: 638 0
HStem: -5 61<155.046 323.568> 0 70<426.005 519.314> 218 59<205.11 355> 377 62<170.963 315.117> 491 66<287.987 364> 544 67<175.847 251.62>
VStem: 55 70<84.0976 167.51> 81 89<326.851 375.536> 355 70<84.1364 218 277 339.9>
AnchorPoint: "below" 226 0 basechar 0
AnchorPoint: "above" 226 591 basechar 0
LayerCount: 2
Fore
SplineSet
96 523 m 0
 96 536 104 544 112 551 c 0
 167 602 200 611 222 611 c 0x3480
 276 611 296 557 321 557 c 0
 354 557 389 610 412 610 c 0
 427 610 444 597 444 579 c 0
 444 566 435 558 428 551 c 0
 406 530 361 491 317 491 c 0x3880
 263 491 245 544 219 544 c 0x3480
 187 544 150 491 127 491 c 0x3880
 108 491 96 509 96 523 c 0
EndSplineSet
Refer: 146 97 S 1 0 0 1 0 0 3
AlternateSubs2: "Stilistic set 01 subtable" atilde.vn
AlternateSubs2: "Latin alternatives subtable" atilde.vn
Substitution2: "Latin Vietnamese substitutions subtable" atilde.vn
EndChar

StartChar: aring
Encoding: 229 229 278
Width: 525
Flags: HW
TeX: 638 0
HStem: -5 61<155.046 323.568> 0 70<426.005 519.314> 218 59<205.11 355> 377 62<170.963 315.117> 473 35<195.568 283.793> 612 35<195.834 283.415>
VStem: 55 70<84.0976 167.51> 81 89<326.851 375.536> 121 58<520.982 599.578> 300 59<520.481 599.063> 355 70<84.1364 218 277 339.9>
LayerCount: 2
Fore
SplineSet
121 560 m 0
 121 608 175 647 240 647 c 0
 303 647 359 610 359 560 c 0
 359 512 305 473 240 473 c 0
 166 473 121 518 121 560 c 0
179 560 m 0x3cc0
 179 534 205 508 240 508 c 0
 278 508 300 536 300 560 c 0
 300 594 267 612 240 612 c 0
 204 612 179 587 179 560 c 0x3cc0
EndSplineSet
Refer: 146 97 S 1 0 0 1 -0 0 3
EndChar

StartChar: ae
Encoding: 230 230 279
Width: 525
Flags: HW
TeX: 430 0
HStem: -5 61<105.847 212.019 344.529 432.509> 191 61<132.445 234 293 447> 377 62<128.511 208.431 336.956 417.749>
VStem: 32 57<71.7521 156.678> 41 88<326.647 375.977> 234 59<116.645 189 252 324.626> 451 53<73.877 136.361 252 336.227>
AnchorPoint: "below" 268 0 basechar 0
AnchorPoint: "above" 256 440 basechar 0
LayerCount: 2
Fore
SplineSet
32 119 m 0xf6
 32 144 44 228 192 246 c 0
 206 248 220 249 234 250 c 1
 234 278 l 2
 234 289 236 340 196 366 c 0
 183 375 172 377 155 377 c 0
 146 377 137 377 128 376 c 1
 129 372 129 369 129 366 c 0
 129 337 106 320 85 320 c 0
 66 320 41 334 41 366 c 0xee
 41 395 60 439 158 439 c 0
 226 439 261 390 272 368 c 1
 288 395 324 439 379 439 c 0
 429 439 504 398 504 228 c 0
 504 192 484 191 469 191 c 2
 292 191 l 1
 303 99 356 56 393 56 c 0
 437 56 447 111 451 120 c 0
 455 129 464 137 477 137 c 0
 490 137 504 126 504 109 c 0
 504 78 468 -5 390 -5 c 0
 345 -5 303 23 277 63 c 1
 263 43 225 -5 147 -5 c 0
 74 -5 32 60 32 119 c 0xf6
89 118 m 0xf6
 89 91 111 56 153 56 c 0
 177 56 233 69 233 127 c 2
 233 136 l 2
 233 148 234 171 234 189 c 1
 150 187 89 161 89 118 c 0xf6
293 252 m 1
 447 252 l 1
 442 343 411 377 380 377 c 0xe6
 345 377 304 335 293 252 c 1
EndSplineSet
EndChar

StartChar: ccedilla
Encoding: 231 231 280
Width: 525
Flags: HW
TeX: 430 194
HStem: -208 58<168.825 328.785> -2 59<221.259 255 325 369.603> 377 62<218.777 364.014>
VStem: 72 70<136.942 299.419> 342 71<-133.712 -76.8887> 365 89<326.556 372.925> 391 74<79.8319 134.094>
AnchorPoint: "above" 300 440 basechar 0
LayerCount: 2
Fore
SplineSet
72 215 m 0
 72 331 161 439 294 439 c 2
 306 439 l 2
 367 439 454 432 454 367 c 0
 454 342 436 320 409 320 c 0
 387 320 365 338 365 365 c 2
 365 373 l 1xf4
 344 376 321 377 298 377 c 0
 193 377 142 291 142 216 c 0
 142 133 205 57 300 57 c 0
 344 57 376 76 391 104 c 0
 399 120 400 137 430 137 c 0
 462 137 465 115 465 110 c 0xf2
 465 97 444 16 325 -3 c 1
 325 -10 l 1
 365 -20 413 -50 413 -107 c 0
 413 -139 397 -164 373 -180 c 0
 334 -206 275 -208 214 -208 c 2
 204 -208 l 2
 172 -208 168 -189 168 -178 c 0
 168 -169 170 -157 185 -150 c 0
 205 -140 342 -158 342 -107 c 0xf8
 342 -91 327 -73 296 -68 c 0
 273 -65 255 -68 255 -25 c 2
 255 -2 l 1
 138 18 72 117 72 215 c 0
EndSplineSet
EndChar

StartChar: eacute
Encoding: 233 233 282
Width: 525
Flags: HW
TeX: 610 0
HStem: -5 61<208.485 363.473> 191 61<128 393> 377 62<197.163 342.001> 619 20G<307.5 321.5>
VStem: 393 71<84.4173 135.089 252 323.612>
AnchorPoint: "below" 285 0 basechar 0
AnchorPoint: "above" 270 619 basechar 0
LayerCount: 2
Fore
SplineSet
135 546 m 0
 135 567 153 573 164 578 c 0
 295 635 302 639 313 639 c 0
 330 639 347 625 347 604 c 0
 347 582 329 573 317 568 c 0
 173 505 178 506 168 506 c 0
 146 506 135 532 135 546 c 0
EndSplineSet
Refer: 150 101 S 1 0 0 1 0 -0 3
AlternateSubs2: "Stilistic set 01 subtable" eacute.vn
AlternateSubs2: "Latin alternatives subtable" eacute.vn
Substitution2: "Latin Vietnamese substitutions subtable" eacute.vn
EndChar

StartChar: ecircumflex
Encoding: 234 234 283
Width: 525
Flags: HW
TeX: 638 0
HStem: -5 61<208.485 363.473> 191 61<128 393> 377 62<197.163 342.001> 568 76<220.715 290.598>
VStem: 393 71<84.4173 135.089 252 323.612>
AnchorPoint: "below" 285 0 basechar 0
AnchorPoint: "above" 270 624 basechar 0
LayerCount: 2
Fore
SplineSet
92 527 m 0
 92 543 104 550 115 557 c 0
 240 640 243 644 255 644 c 2
 256 644 l 2
 266 644 267 642 395 557 c 0
 401 553 418 545 418 526 c 0
 418 514 403 488 383 488 c 2
 381 488 l 2
 360 488 270 568 255 568 c 0
 248 568 242 562 224 549 c 0
 153 498 141 488 127 488 c 0
 107 488 92 513 92 527 c 0
EndSplineSet
Refer: 150 101 S 1 0 0 1 -0 -0 3
AlternateSubs2: "Stilistic set 01 subtable" ecircumflex.vn
AlternateSubs2: "Latin alternatives subtable" ecircumflex.vn
Substitution2: "Latin Vietnamese substitutions subtable" ecircumflex.vn
EndChar

StartChar: edieresis
Encoding: 235 235 284
Width: 525
Flags: HW
TeX: 610 0
HStem: -5 61<208.485 363.473> 191 61<128 393> 377 62<197.163 342.001> 511 100<112.396 194.035 316.232 397.768>
VStem: 103 100<519.912 601.474> 307 100<519.438 601.771> 393 71<84.4173 135.089 252 323.612>
AnchorPoint: "below" 285 0 basechar 0
AnchorPoint: "above" 270 591 basechar 0
LayerCount: 2
Fore
SplineSet
103 560 m 0
 103 588 126 611 153 611 c 0
 179 611 203 590 203 561 c 0
 203 534 182 511 153 511 c 0
 123 511 103 535 103 560 c 0
307 560 m 0
 307 587 329 611 357 611 c 0
 387 611 407 586 407 561 c 0
 407 533 386 511 357 511 c 0xfc
 327 511 307 535 307 560 c 0
EndSplineSet
Refer: 150 101 S 1 0 0 1 0 -0 3
EndChar

StartChar: iacute
Encoding: 237 237 286
Width: 525
Flags: HW
TeX: 610 0
HStem: 0 62<79.1514 240 310 453.87> 369 61<87.1406 240> 619 20G<367.5 381.5>
VStem: 240 70<62 369>
AnchorPoint: "below" 274 0 basechar 0
AnchorPoint: "above" 274 628 basechar 0
LayerCount: 2
Fore
SplineSet
194 546 m 0
 194 567 213 573 224 578 c 0
 355 635 362 639 373 639 c 0
 390 639 407 625 407 604 c 0
 407 582 389 573 377 568 c 0
 233 505 237 506 227 506 c 0
 205 506 194 532 194 546 c 0
EndSplineSet
Refer: 74 305 S 1 0 0 1 0 -0 3
AlternateSubs2: "Stilistic set 01 subtable" iacute.vn
AlternateSubs2: "Latin alternatives subtable" iacute.vn
Substitution2: "Latin Vietnamese substitutions subtable" iacute.vn
Ligature2: "Cyrillic ligatures subtable" afii10103 acutecomb
Ligature2: "Latin ligatures excepting Turkic subtable" i acutecomb
EndChar

StartChar: icircumflex
Encoding: 238 238 287
Width: 525
Flags: HW
TeX: 638 0
HStem: 0 62<79.1514 240 310 453.87> 369 61<87.1406 240> 568 76<239.716 310.598>
VStem: 240 70<62 369>
AnchorPoint: "below" 274 0 basechar 0
AnchorPoint: "above" 274 633 basechar 0
LayerCount: 2
Fore
SplineSet
112 527 m 0
 112 543 124 550 135 557 c 0
 260 640 262 644 274 644 c 2
 276 644 l 2
 286 644 287 642 415 557 c 0
 421 553 437 545 437 526 c 0
 437 514 422 488 402 488 c 2
 400 488 l 2
 379 488 290 568 275 568 c 0
 268 568 261 562 243 549 c 0
 172 498 161 488 147 488 c 0
 127 488 112 513 112 527 c 0
EndSplineSet
Refer: 74 305 S 1 0 0 1 -0 -0 3
Ligature2: "Latin ligatures excepting Turkic subtable" i uni0302
EndChar

StartChar: idieresis
Encoding: 239 239 288
Width: 525
Flags: HW
TeX: 610 0
HStem: -0 62<103.135 238 308 428.919> 369 61<110.329 238> 511 100<130.232 212.035 334.675 414.835>
VStem: 121 100<520.117 602.162> 238 70<62 369> 325 99<519.701 601.474>
AnchorPoint: "above" 273 591 basechar 0
LayerCount: 2
Fore
SplineSet
102 31 m 0
 102 46 109 62 138 62 c 2
 238 62 l 1
 238 369 l 1
 142 369 l 2
 115 369 109 388 109 400 c 0
 109 429 133 430 147 430 c 2
 270 430 l 2
 287 430 308 428 308 395 c 2
 308 62 l 1
 395 62 l 2
 425 62 430 43 430 31 c 0
 430 17 424 1 396 -0 c 1
 137 -0 l 2
 128 0 102 2 102 31 c 0
121 561 m 0
 121 590 144 611 171 611 c 0
 197 611 221 590 221 561 c 0
 221 533 200 511 171 511 c 0
 141 511 121 536 121 561 c 0
325 560 m 0
 325 588 348 611 375 611 c 0
 400 611 424 590 424 561 c 0
 424 534 404 511 375 511 c 0
 349 511 325 531 325 560 c 0
EndSplineSet
Ligature2: "Latin ligatures excepting Turkic subtable" i uni0308
EndChar

StartChar: eth
Encoding: 240 240 289
Width: 525
Flags: HW
TeX: 610 0
HStem: -5 61<196.896 325.888> 377 62<192.683 328.819> 467 111<174 268.255> 500 78<212.236 278.397> 535 76<71.2344 174.473>
VStem: 56 70<131.933 305.191> 397 70<134.252 299.414>
LayerCount: 2
Fore
SplineSet
56 216 m 0
 56 344 152 439 261 439 c 0
 285 439 309 434 332 425 c 1
 302 463 280 478 249 500 c 1
 248 500 l 1xd6
 220 482 193 467 182 467 c 0xe6
 166 467 150 485 150 503 c 0
 150 522 169 531 176 535 c 1
 106 557 64 536 63 577 c 1
 64 592 79 611 103 611 c 0xce
 179 611 240 578 247 578 c 0xe6
 261 578 297 610 316 610 c 0
 335 610 348 589 348 575 c 0
 348 560 340 552 313 538 c 1
 342 513 365 497 395 457 c 0
 437 401 467 327 467 241 c 2
 467 224 l 2
 467 69 356 -5 262 -5 c 0
 155 -5 56 87 56 216 c 0
126 223 m 0
 126 128 189 56 262 56 c 0
 338 56 397 136 397 219 c 0
 397 294 343 377 261 377 c 0xc6
 185 377 126 307 126 223 c 0
EndSplineSet
EndChar

StartChar: ntilde
Encoding: 241 241 290
Width: 525
Flags: HW
TeX: 638 0
HStem: -0 62<12.0566 96 166 249.82 279.096 358 428 511.838> 369 61<12.0938 96 215.228 346.051> 491 66<280.637 356.661> 544 67<168.074 244.27>
VStem: 96 70<62 316.1> 358 70<62 359.259>
LayerCount: 2
Fore
SplineSet
88 523 m 0
 88 536 96 544 104 551 c 0
 159 602 193 611 215 611 c 0xdc
 269 611 288 557 313 557 c 0
 346 557 382 610 404 610 c 0
 420 610 436 596 436 579 c 0
 436 566 428 558 421 551 c 0
 399 530 354 491 310 491 c 0xec
 256 491 237 544 211 544 c 0xdc
 179 544 142 491 119 491 c 0xec
 100 491 88 509 88 523 c 0
EndSplineSet
Refer: 159 110 S 1 0 0 1 0 -0 3
EndChar

StartChar: oacute
Encoding: 243 243 292
Width: 525
Flags: HW
TeX: 610 0
HStem: -5 61<196.837 326.449> 377 62<194.102 330.409> 619 20G<325.5 339.5>
VStem: 56 70<134.318 305.768> 397 70<131.709 304.737>
AnchorPoint: "below" 262 0 basechar 0
AnchorPoint: "above" 262 619 basechar 0
LayerCount: 2
Fore
SplineSet
153 546 m 0
 153 567 171 573 182 578 c 0
 313 635 320 639 331 639 c 0
 348 639 365 625 365 604 c 0
 365 582 347 573 335 568 c 0
 191 505 196 506 186 506 c 0
 164 506 153 532 153 546 c 0
EndSplineSet
Refer: 160 111 S 1 0 0 1 0 -0 3
AlternateSubs2: "Stilistic set 01 subtable" oacute.vn
AlternateSubs2: "Latin alternatives subtable" oacute.vn
Substitution2: "Latin Vietnamese substitutions subtable" oacute.vn
EndChar

StartChar: ocircumflex
Encoding: 244 244 293
Width: 525
Flags: HW
TeX: 638 0
HStem: -5 61<196.837 326.449> 377 62<194.102 330.409> 568 76<227.715 297.598>
VStem: 56 70<134.318 305.768> 397 70<131.709 304.737>
AnchorPoint: "below" 262 0 basechar 0
AnchorPoint: "above" 262 624 basechar 0
LayerCount: 2
Fore
SplineSet
99 527 m 0
 99 543 111 550 122 557 c 0
 247 640 250 644 262 644 c 2
 263 644 l 2
 273 644 274 642 402 557 c 0
 408 553 425 545 425 526 c 0
 425 514 409 488 389 488 c 2
 387 488 l 2
 366 488 277 568 262 568 c 0
 255 568 249 562 231 549 c 0
 160 498 148 488 134 488 c 0
 114 488 99 513 99 527 c 0
EndSplineSet
Refer: 160 111 S 1 0 0 1 -0 -0 3
AlternateSubs2: "Stilistic set 01 subtable" ocircumflex.vn
AlternateSubs2: "Latin alternatives subtable" ocircumflex.vn
Substitution2: "Latin Vietnamese substitutions subtable" ocircumflex.vn
EndChar

StartChar: odieresis
Encoding: 246 246 295
Width: 525
Flags: HW
TeX: 610 0
HStem: -5 61<196.837 326.449> 377 62<194.102 330.409> 511 100<119.396 200.352 323.232 404.768>
VStem: 56 70<134.318 305.768> 110 99<519.701 601.474> 314 100<519.438 601.771> 397 70<131.709 304.737>
AnchorPoint: "below" 262 0 basechar 0
AnchorPoint: "above" 262 591 basechar 0
LayerCount: 2
Fore
SplineSet
110 560 m 0
 110 588 133 611 160 611 c 0
 186 611 209 590 209 561 c 0xe8
 209 534 189 511 160 511 c 0
 130 511 110 535 110 560 c 0
314 560 m 0
 314 587 336 611 364 611 c 0
 394 611 414 586 414 561 c 0
 414 533 393 511 364 511 c 0xe4
 334 511 314 535 314 560 c 0
EndSplineSet
Refer: 160 111 S 1 0 0 1 0 -0 3
EndChar

StartChar: oe
Encoding: 339 339 296
Width: 525
Flags: HW
TeX: 430 0
HStem: -5 62<121.005 204.945 355.993 434.178> 191 61<310 448> 377 62<119.935 206.505 350.018 421.272>
VStem: 18 57<116.615 322.552> 252 58<118.41 191 252 321.017> 445 59<67.4937 134.982 252 352.255>
AnchorPoint: "below" 262 0 basechar 0
AnchorPoint: "above" 273 440 basechar 0
LayerCount: 2
Fore
SplineSet
18 216 m 0
 18 341 81 439 163 439 c 0
 233 439 268 373 279 352 c 1
 293 382 328 439 388 439 c 0
 435 439 505 400 505 228 c 0
 505 192 484 191 470 191 c 2
 310 191 l 1
 318 110 361 57 399 57 c 0
 418 57 435 70 445 101 c 0
 449 112 452 137 478 137 c 0
 491 137 504 126 504 109 c 0
 504 75 470 -5 397 -5 c 0
 327 -5 290 65 280 83 c 1
 252 25 210 -5 163 -5 c 0
 77 -5 18 99 18 216 c 0
75 223 m 0
 75 127 118 57 163 57 c 0
 206 57 252 126 252 223 c 0
 252 315 206 377 163 377 c 0
 126 377 75 324 75 223 c 0
310 252 m 1
 448 252 l 1
 446 315 424 377 389 377 c 0
 347 377 316 309 310 252 c 1
EndSplineSet
EndChar

StartChar: oslash
Encoding: 248 248 297
Width: 525
Flags: HW
TeX: 541 111
HStem: -5 61<210.654 341.8> 377 62<183.55 314.218>
VStem: 44 57<136.839 293.802> 423 56<137.753 296.032>
DStem2: 126 43 179 11 0.501926 0.864911<-174.093 2.75566 61.1898 375.75 433.776 608.049>
LayerCount: 2
Fore
SplineSet
42 -110 m 0
 42 -100 43 -100 126 43 c 1
 72 85 44 150 44 215 c 0
 44 341 144 439 262 439 c 0
 300 439 322 430 346 422 c 1
 352 434 360 445 415 541 c 0
 423 554 429 571 449 571 c 0
 463 571 481 559 481 541 c 0
 481 521 431 451 399 389 c 1
 452 345 479 280 479 215 c 0
 479 90 379 -5 262 -5 c 0
 234 -5 205 0 179 11 c 1
 93 -138 96 -140 75 -140 c 0
 60 -140 42 -129 42 -110 c 0
101 215 m 0
 101 175 115 131 157 95 c 1
 315 368 l 1
 300 373 283 377 262 377 c 0
 178 377 101 310 101 215 c 0
210 65 m 1
 225 60 243 56 261 56 c 0
 354 56 423 131 423 215 c 0
 423 275 394 312 369 337 c 1
 368 337 l 1
 210 65 l 1
EndSplineSet
EndChar

StartChar: uacute
Encoding: 250 250 299
Width: 525
Flags: HW
TeX: 610 0
HStem: -5 61<174.855 319.616 428 510.379> 369 61<12.1016 96 274.289 358> 619 20G<326.5 340.5>
VStem: 96 70<66.7863 369> 358 70<92.1532 369>
AnchorPoint: "below" 262 0 basechar 0
AnchorPoint: "above" 262 628 basechar 0
LayerCount: 2
Fore
SplineSet
153 546 m 0
 153 567 172 573 183 578 c 0
 314 635 321 639 332 639 c 0
 349 639 366 625 366 604 c 0
 366 582 348 573 336 568 c 0
 192 505 196 506 186 506 c 0
 164 506 153 532 153 546 c 0
EndSplineSet
Refer: 166 117 S 1 0 0 1 0 -0 3
AlternateSubs2: "Stilistic set 01 subtable" uacute.vn
AlternateSubs2: "Latin alternatives subtable" uacute.vn
Substitution2: "Latin Vietnamese substitutions subtable" uacute.vn
EndChar

StartChar: yacute
Encoding: 253 253 302
Width: 525
Flags: HW
TeX: 610 222
HStem: -227 61<124 175.724> -227 125<70.2393 122.861> 369 61<26.1797 105.516 158 221.902 303.18 370 430 498.865> 619 20G<379.5 393.5>
VStem: 42 86<-164.263 -107.55>
DStem2: 158 369 113 328 0.36986 -0.929088<0 319.961> 240 -10 281 -67 0.323381 0.946269<-154.899 34.0968 86.0497 400.675>
AnchorPoint: "below" 263 -222 basechar 0
AnchorPoint: "above" 268 628 basechar 0
LayerCount: 2
Fore
SplineSet
206 546 m 0
 206 567 225 573 236 578 c 0
 367 635 374 639 385 639 c 0
 402 639 419 625 419 604 c 0
 419 582 401 573 389 568 c 0
 245 505 249 506 239 506 c 0x38
 217 506 206 532 206 546 c 0
EndSplineSet
Refer: 170 121 S 1 0 0 1 0 -0 3
AlternateSubs2: "Stilistic set 01 subtable" yacute.vn
AlternateSubs2: "Latin alternatives subtable" yacute.vn
Substitution2: "Latin Vietnamese substitutions subtable" yacute.vn
EndChar

StartChar: thorn
Encoding: 254 254 303
Width: 525
Flags: HW
TeX: 610 222
HStem: -222 62<12.0566 96 166 249.82> -5 61<219.307 346.485> 374 62<218.108 350.984> 549 62<12.2188 96>
VStem: 96 70<-160 45 115.721 322.808 387 549> 418 70<130.255 302.509>
LayerCount: 2
Fore
SplineSet
11 -191 m 0
 11 -162 35 -160 48 -160 c 0
 64 -160 80 -160 96 -160 c 1
 96 549 l 1
 44 549 l 1
 16 550 11 569 11 580 c 0
 11 595 18 611 47 611 c 2
 131 611 l 2
 168 611 166 584 166 571 c 2
 166 387 l 1
 203 418 242 436 293 436 c 0
 397 436 488 342 488 216 c 0
 488 84 387 -5 283 -5 c 0
 232 -5 198 14 166 45 c 1
 166 -160 l 1
 214 -160 l 2
 224 -160 251 -162 251 -191 c 0
 251 -206 244 -222 215 -222 c 2
 47 -222 l 2
 38 -222 11 -222 11 -191 c 0
166 185 m 2
 166 151 199 56 278 56 c 0
 349 56 418 120 418 216 c 0
 418 304 359 374 288 374 c 0
 216 374 166 312 166 267 c 2
 166 185 l 2
EndSplineSet
EndChar

StartChar: germandbls
Encoding: 223 223 304
Width: 525
Flags: HW
TeX: 610 0
HStem: -5 61<18.478 110 323.08 410.83> 369 61<17.0183 110> 555 61<198.504 378.672>
VStem: 16 164<1.54675 60.3323 370.494 428.497> 110 70<62 369 430 535.95> 238 62<273.187 366.204> 239 83<57.5573 158.071> 395 71<445.976 538.722> 427 62<71.8415 174.469>
LayerCount: 2
Fore
SplineSet
16 30 m 0xf0
 16 45 23 62 51 62 c 2
 110 62 l 1
 110 369 l 1xe8
 53 369 l 2
 39 369 16 371 16 399 c 0xf0
 16 413 22 429 49 430 c 1
 110 430 l 1
 110 501 l 2
 110 547 132 616 287 616 c 0
 438 616 466 549 466 505 c 0
 466 443 434 381 357 377 c 0
 339 376 332 377 314 365 c 1
 304 350 300 340 300 322 c 0xed
 300 257 356 263 391 253 c 0
 441 239 489 194 489 125 c 0
 489 47 437 -5 354 -5 c 0
 331 -5 316 -1 296 10 c 1
 293 5 285 -5 269 -5 c 0
 258 -5 239 -2 239 30 c 2
 239 131 l 1
 238 164 259 167 274 167 c 2xe280
 276 167 l 2
 319 167 303 126 322 80 c 0
 330 62 340 56 355 56 c 0
 387 56 427 70 427 125 c 0xe280
 427 146 420 158 407 175 c 1
 368 206 346 193 309 209 c 0
 273 224 238 265 238 321 c 0
 238 385 275 433 344 438 c 0
 356 438 395 438 395 501 c 0
 395 530 376 555 285 555 c 2
 283 555 l 2
 268 555 195 553 182 516 c 0
 180 510 180 504 180 498 c 2xed
 180 37 l 1
 181 2 159 0 143 -0 c 2
 52 -0 l 2
 20 0 16 19 16 30 c 0xf0
EndSplineSet
EndChar

StartChar: grave.uc
Encoding: 65542 -1 305
Width: 525
Flags: HW
TeX: 598 0
HStem: 607 20G<142 156.5>
VStem: 119 216<559.496 574.199>
LayerCount: 2
Fore
SplineSet
119 592 m 0
 119 608 131 627 153 627 c 0
 160 627 161 626 306 577 c 0
 320 572 335 565 335 547 c 0
 335 537 329 506 303 506 c 2
 302 506 l 2
 297 506 293 507 152 555 c 0
 134 561 119 570 119 592 c 0
EndSplineSet
EndChar

StartChar: acute.uc
Encoding: 65543 -1 306
Width: 525
Flags: HW
TeX: 598 0
HStem: 506 121
VStem: 189 216<559.95 574.546>
LayerCount: 2
Fore
SplineSet
189 547 m 0
 189 569 209 574 221 578 c 0
 362 626 361 627 371 627 c 0
 388 627 405 613 405 592 c 0
 405 570 389 561 373 556 c 0
 237 510 227 506 221 506 c 0
 195 506 189 538 189 547 c 0
EndSplineSet
EndChar

StartChar: tilde.uc
Encoding: 65544 -1 307
Width: 525
Flags: HW
TeX: 638 0
HStem: 510 67<285.468 380.754> 572 67<143.177 237.156>
LayerCount: 2
Fore
SplineSet
58 541 m 0
 58 561 123 639 189 639 c 0x40
 257 639 291 577 336 577 c 0x80
 381 577 407 639 434 639 c 0x40
 444 639 465 627 465 607 c 0
 465 587 401 510 335 510 c 0x80
 270 510 229 572 188 572 c 0x40
 143 572 117 510 90 510 c 0x80
 73 510 58 526 58 541 c 0
EndSplineSet
EndChar

StartChar: ring.uc
Encoding: 65546 -1 310
Width: 525
Flags: HW
TeX: 638 0
HStem: 410 61<216.394 305.703> 585 62<217.093 306.563>
VStem: 145 59<484.208 571.989> 319 59<484.508 571.508>
LayerCount: 2
Fore
SplineSet
145 528 m 0
 145 599 202 647 261 647 c 0
 320 647 378 598 378 528 c 0
 378 457 321 410 262 410 c 0
 203 410 145 457 145 528 c 0
204 528 m 0
 204 503 223 471 261 471 c 0
 295 471 319 499 319 528 c 0
 319 558 295 585 261 585 c 0
 227 585 204 557 204 528 c 0
EndSplineSet
EndChar

StartChar: threequartersemdash
Encoding: 63198 63198 312
Width: 525
Flags: HW
TeX: 430 0
HStem: 235 62<1.09424 522.919>
LayerCount: 2
Fore
SplineSet
0 266 m 0
 0 278 5 297 35 297 c 2
 489 297 l 2
 518 297 524 279 524 266 c 0
 524 249 514 235 490 235 c 2
 36 235 l 2
 10 235 0 247 0 266 c 0
EndSplineSet
EndChar

StartChar: arrowleft
Encoding: 8592 8592 313
Width: 525
Flags: HW
TeX: 415 -195
HStem: 271 69<141 492.508>
VStem: 109 70<132.731 225.705>
LayerCount: 2
Fore
SplineSet
29 305 m 0
 29 318 37 325 51 338 c 0
 135 417 85 480 145 480 c 0
 169 480 179 469 179 450 c 0
 179 428 167 383 141 340 c 1
 443 340 l 2
 444 340 447 341 452 341 c 0
 486 341 495 320 495 306 c 0
 495 286 480 276 471 273 c 0
 462 270 453 271 444 271 c 2
 141 271 l 1
 167 228 179 183 179 161 c 0
 179 146 172 131 143 131 c 1
 115 132 112 147 109 165 c 0
 93 260 29 276 29 305 c 0
EndSplineSet
EndChar

StartChar: arrowright
Encoding: 8594 8594 314
Width: 525
Flags: HW
TeX: 415 -195
HStem: 271 69<31.6985 383>
VStem: 345 71<385.295 478.062>
LayerCount: 2
Fore
SplineSet
29 305 m 0
 29 325 44 335 53 338 c 0
 62 341 72 340 81 340 c 2
 383 340 l 1
 357 383 345 428 345 450 c 0
 345 464 351 480 379 480 c 0
 412 480 414 460 416 446 c 0
 432 351 495 335 495 306 c 0
 495 292 484 283 474 274 c 0
 391 197 437 132 381 131 c 1
 380 131 l 2
 370 131 345 132 345 161 c 0
 345 186 360 233 383 271 c 1
 81 271 l 2
 80 271 77 270 72 270 c 0
 46 270 29 284 29 305 c 0
EndSplineSet
EndChar

StartChar: uni0361.alt
Encoding: 61701 61701 315
Width: 525
Flags: HW
TeX: 610 0
HStem: 482 93<251.623 295.563> 528 63<299.835 602.363>
LayerCount: 2
Fore
SplineSet
227 512 m 0
 227 555 278 567 307 575 c 0x80
 348 586 399 591 446 591 c 2
 451 591 l 2x40
 545 591 675 575 675 512 c 0
 675 501 671 482 639 482 c 0x80
 620 482 611 491 606 505 c 1
 593 511 546 528 454 528 c 0x40
 387 528 332 520 296 505 c 1
 293 498 288 482 263 482 c 0
 231 482 227 501 227 512 c 0
EndSplineSet
EndChar

StartChar: uni0361
Encoding: 865 865 316
Width: 525
Flags: HW
TeX: 791 0
HStem: 575 64<363.073 556.483>
VStem: 227 71<444.668 522.347> 620 70<444.635 521.067>
AnchorPoint: "affricate-above" 458 440 mark 0
LayerCount: 2
Fore
SplineSet
227 475 m 0
 227 543 305 639 459 639 c 0
 603 639 690 550 690 474 c 0
 690 445 665 443 656 443 c 2
 653 443 l 2
 623 443 622 463 620 476 c 0
 615 523 556 575 458 575 c 0
 366 575 305 527 298 479 c 0
 296 466 297 443 263 443 c 2
 261 443 l 2
 234 443 227 460 227 475 c 0
EndSplineSet
EndChar

StartChar: uni2040.alt
Encoding: 61702 61702 317
Width: 525
Flags: HW
TeX: 610 0
HStem: 527 64<201.736 322.006>
VStem: 130 262<499 555.892>
LayerCount: 2
Fore
SplineSet
130 512 m 0
 130 555 185 591 262 591 c 0
 334 591 392 558 392 513 c 0
 392 499 386 482 358 482 c 0
 306 482 350 527 261 527 c 0
 173 527 218 482 165 482 c 0
 138 482 130 499 130 512 c 0
EndSplineSet
EndChar

StartChar: uni2040
Encoding: 8256 8256 318
Width: 525
Flags: HW
TeX: 610 0
HStem: 575 64<199.793 323.943>
VStem: 90 71<444.499 533.953> 364 70<444.379 533.953>
LayerCount: 2
Fore
SplineSet
90 475 m 0
 90 554 159 639 262 639 c 0
 365 639 434 554 434 475 c 0
 434 445 410 443 400 443 c 2
 396 443 l 2
 369 443 365 459 364 476 c 0
 359 545 305 575 262 575 c 0
 213 575 170 540 161 487 c 0
 159 470 164 443 126 443 c 2
 124 443 l 2
 97 443 90 460 90 475 c 0
EndSplineSet
EndChar

StartChar: uni2422
Encoding: 9250 9250 319
Width: 525
Flags: HW
TeX: 610 0
HStem: -5 61<219.307 346.485> 374 62<218.535 350.984> 549 62<12.0566 96> 617 20G<285 300>
VStem: 11 155<550.529 609.405> 96 70<1.69373 45 115.721 322.808 387 420 483.034 488.707> 418 70<130.255 302.509>
LayerCount: 2
Fore
SplineSet
11 580 m 0
 11 609 35 611 48 611 c 2
 128 611 l 2
 148 611 166 610 166 572 c 2xfa
 166 550 l 1
 282 637 278 637 292 637 c 0
 308 637 323 621 323 605 c 0
 323 586 316 586 181 484 c 0
 169 475 166 472 166 460 c 2
 166 387 l 1
 199 414 238 436 293 436 c 0
 397 436 488 342 488 216 c 0
 488 84 387 -5 283 -5 c 0
 232 -5 198 14 166 45 c 1
 166 38 l 2
 166 22 164 0 134 -0 c 2
 132 -0 l 2
 94 0 96 25 96 39 c 2
 96 420 l 1
 65 396 61 393 51 393 c 0
 34 393 20 410 20 426 c 0
 20 437 19 443 96 497 c 1
 96 549 l 1
 80 549 64 549 48 549 c 0
 34 549 11 551 11 580 c 0
166 185 m 2xf6
 166 151 199 56 278 56 c 0
 349 56 418 120 418 216 c 0
 418 304 359 374 288 374 c 0
 216 374 166 312 166 267 c 2
 166 185 l 2xf6
EndSplineSet
EndChar

StartChar: quotesingle
Encoding: 39 39 320
Width: 525
Flags: HW
TeX: 610 0
HStem: 328 293<232.875 290.673>
VStem: 217 89<336.915 614.355>
LayerCount: 2
Fore
SplineSet
217 575 m 0
 217 605 240 621 262 621 c 0
 286 621 306 603 306 575 c 0
 306 568 297 437 293 368 c 0
 292 356 293 328 262 328 c 0
 230 328 231 357 230 365 c 0
 226 435 217 568 217 575 c 0
EndSplineSet
EndChar

StartChar: fraction
Encoding: 8260 8260 323
Width: 525
Flags: HW
TeX: 694 83
DStem2: 67 -23 134 -44 0.431221 0.902246<-26.9162 787.009>
LayerCount: 2
Fore
SplineSet
58 -49 m 0
 58 -39 63 -31 67 -23 c 2
 391 656 l 2
 398 670 406 694 431 694 c 0
 449 694 466 678 466 659 c 0
 466 650 462 643 459 636 c 2
 134 -44 l 2
 126 -61 118 -83 93 -83 c 0
 75 -83 58 -68 58 -49 c 0
EndSplineSet
EndChar

StartChar: zerooldstyle
Encoding: 63280 63280 324
Width: 525
Flags: HW
TeX: 430 0
HStem: -11 62<193.548 328.828> 380 62<190.049 333.506>
VStem: 49 70<133.106 306.089> 404 70<132.868 306.236>
LayerCount: 2
Fore
SplineSet
49 215 m 0
 49 345 149 442 262 442 c 0
 373 442 474 347 474 215 c 0
 474 94 383 -11 262 -11 c 0
 141 -11 49 93 49 215 c 0
119 223 m 0
 119 126 185 51 262 51 c 0
 337 51 404 124 404 223 c 0
 404 314 338 380 262 380 c 0
 180 380 119 308 119 223 c 0
EndSplineSet
EndChar

StartChar: oneoldstyle
Encoding: 63281 63281 325
Width: 525
Flags: HW
TeX: 430 0
HStem: -0 62<111.347 241 311 440.766> 291 59<105.151 201.835> 419 20G<266.5 286>
VStem: 241 70<62 324>
LayerCount: 2
Fore
SplineSet
104 322 m 0
 104 336 112 346 123 350 c 0
 138 356 165 348 208 375 c 0
 253 404 252 439 281 439 c 0
 291 439 311 434 311 402 c 2
 311 62 l 1
 407 62 l 2
 436 62 442 44 442 31 c 0
 442 20 437 1 408 -0 c 1
 146 -0 l 2
 117 0 110 19 110 31 c 0
 110 45 117 62 146 62 c 2
 241 62 l 1
 241 324 l 1
 203 301 163 291 139 291 c 0
 111 291 104 308 104 322 c 0
EndSplineSet
EndChar

